<?xml version="1.0" standalone="no"?>
<svg version="1.0" xmlns="http://www.w3.org/2000/svg" width="180" height="180" viewBox="0 0 2771 1863" preserveAspectRatio="xMidYMid meet">
<defs>
  <style>
    .cls-1 {
      stroke-width: 0px;
      fill: black;
    }

    @media (prefers-color-scheme: dark) {
      .cls-1 {
        fill: white;
      }
    }
  </style>
</defs>
<g transform="translate(0.000000,1863) scale(0.100000,-0.100000)" fill="#000000" stroke="none">
  <path class="cls-1" d="M12750 18623 c-574 -34 -1134 -224 -1532 -520 -96 -71 -262 -222
  -254 -230 2 -2 64 -20 137 -39 928 -240 1692 -714 2398 -1488 207 -226 322
  -364 704 -841 576 -719 681 -840 996 -1155 286 -286 501 -466 772 -648 214
  -144 382 -236 745 -408 l41 -19 -219 -565 c-348 -899 -349 -903 -355 -985 -16
  -202 116 -360 327 -394 90 -15 4049 -15 4140 0 231 36 367 227 321 449 -6 30
  -119 334 -251 675 l-239 620 92 31 c292 99 691 284 955 443 992 598 1861 1536
  2574 2776 131 228 165 274 278 386 179 177 416 301 683 360 118 26 377 36 502
  20 739 -97 1332 -702 1384 -1410 50 -701 -393 -1282 -1092 -1433 -150 -32
  -435 -32 -594 0 -160 32 -294 82 -476 175 l-159 82 -97 0 c-89 0 -102 -3 -163
  -33 -149 -73 -238 -241 -209 -397 25 -136 96 -221 263 -313 311 -172 651 -271
  997 -291 557 -31 1077 129 1506 464 103 81 293 276 374 385 536 722 547 1712
  28 2490 -495 742 -1406 1152 -2276 1024 -569 -84 -1076 -378 -1403 -815 l-80
  -106 -361 -72 c-1226 -242 -2203 -343 -3172 -328 -1391 22 -2360 262 -3485
  862 -101 54 -338 183 -525 287 -391 218 -848 448 -1080 544 -204 84 -583 211
  -790 263 -504 127 -978 179 -1405 154z"/>
  <path class="cls-1" d="M16065 11019 c-54 -27 -101 -74 -128 -129 -21 -43 -22 -55 -22 -325
  0 -246 2 -285 17 -317 28 -58 78 -109 133 -134 l50 -24 2405 0 c2317 0 2406 1
  2446 19 58 26 108 74 135 129 23 46 24 53 24 327 0 273 -1 281 -23 327 -29 58
  -97 120 -150 136 -30 9 -629 12 -2443 12 -2377 -1 -2404 -1 -2444 -21z"/>
  <path class="cls-1" d="M10560 9230 c-419 -18 -1033 -79 -1225 -122 -104 -23 -211 -101 -254
  -187 -32 -61 -53 -149 -49 -202 3 -43 0 -50 -17 -54 -689 -138 -1316 -316
  -1890 -535 -159 -60 -163 -61 -540 -125 -2627 -441 -4696 -1244 -5755 -2233
  -455 -424 -701 -819 -802 -1282 -19 -91 -22 -134 -22 -315 0 -180 3 -225 23
  -315 67 -314 217 -615 451 -910 167 -210 462 -486 735 -686 1606 -1180 4573
  -1999 8000 -2209 424 -26 650 -34 1207 -47 734 -16 1635 4 2373 52 3326 218
  6176 994 7800 2124 309 215 665 536 848 766 232 292 382 595 449 907 20 94 23
  135 23 323 -1 185 -4 230 -23 320 -122 566 -507 1084 -1172 1580 -898 669
  -2297 1247 -3984 1646 l-200 47 -270 138 c-321 163 -497 246 -821 384 -1252
  534 -2570 848 -3880 925 -254 14 -773 20 -1005 10z m-1271 -1470 c130 -378
  233 -605 451 -990 287 -507 404 -764 548 -1201 164 -496 274 -982 316 -1398 9
  -85 23 -307 31 -495 21 -489 41 -685 101 -985 21 -108 80 -358 100 -428 l6
  -23 -188 0 c-553 0 -1424 48 -2099 115 -2256 225 -4156 787 -5024 1485 -222
  179 -371 385 -371 512 0 72 113 278 259 471 155 206 478 545 727 764 1177
  1030 2797 1860 4429 2269 240 60 584 133 614 131 21 -2 30 -22 100 -227z
  m2335 -352 c171 -88 312 -162 314 -164 2 -1 -323 -630 -332 -641 -1 -1 -144
  73 -319 164 -190 99 -317 171 -315 179 7 27 324 624 332 624 5 0 149 -73 320
  -162z m3163 -10 l132 -52 138 -138 138 -138 -235 -235 -235 -235 -227 227
  c-126 125 -228 232 -228 238 0 10 370 385 380 385 3 0 64 -23 137 -52z
  m-10144 -552 c-543 -373 -934 -694 -1318 -1080 -341 -343 -580 -652 -723 -933
  -136 -268 -167 -448 -117 -669 85 -371 377 -727 867 -1055 1084 -728 3121
  -1277 5478 -1478 648 -55 1419 -90 2000 -91 l235 0 29 -78 c52 -142 113 -214
  226 -266 30 -14 77 -28 105 -31 102 -13 952 25 1485 66 2504 192 4663 759
  5845 1536 586 386 931 807 1051 1285 35 140 44 371 20 503 -63 334 -285 739
  -636 1158 -199 237 -514 551 -787 783 -51 43 -91 79 -89 81 1 2 86 -31 188
  -72 1327 -531 2199 -1183 2483 -1855 122 -290 132 -585 29 -870 -148 -414
  -522 -826 -1094 -1206 -1523 -1014 -4257 -1722 -7335 -1898 -614 -36 -815 -41
  -1620 -41 -805 0 -1031 6 -1625 40 -2631 153 -4985 680 -6595 1475 -989 488
  -1608 1033 -1831 1610 -96 251 -99 557 -8 812 100 277 311 569 597 825 546
  489 1356 923 2417 1296 256 90 848 274 889 276 7 1 -67 -55 -166 -123z m8470
  -2147 c64 -29 117 -58 117 -64 0 -8 -247 -551 -257 -564 -3 -4 -553 247 -566
  259 -4 4 51 135 124 292 l132 286 166 -77 c91 -43 219 -102 284 -132z m4270
  46 c175 -85 317 -160 317 -165 0 -9 -307 -629 -316 -639 -6 -7 -644 312 -644
  321 0 13 314 638 321 638 3 0 148 -70 322 -155z m-2287 -1650 c79 -198 140
  -362 136 -366 -4 -3 -110 -47 -237 -96 -207 -82 -244 -93 -368 -113 -76 -12
  -140 -20 -141 -18 -7 9 -259 645 -260 656 -1 9 128 66 354 157 195 79 359 142
  364 141 4 -1 73 -163 152 -361z"/>
</g>
</svg>
