<?xml version="1.0" encoding="UTF-8"?>
<svg id="_レイヤー_2" data-name="レイヤー 2" xmlns="http://www.w3.org/2000/svg" viewBox="0 0 279.03 325.56">
  <defs>
    <style>
      .cls-1 {
        fill: none;
      }

      .cls-1, .cls-2, .cls-3, .cls-4 {
        stroke-width: 0px;
      }

      .cls-2 {
        fill: #000;
      }

      .cls-3 {
        fill: #f15a24;
      }

      .cls-4 {
        fill: #fff;
      }
    </style>
  </defs>
  <g id="_人物" data-name="人物">
    <g>
      <path class="cls-4" d="M271.91,197.86c-.49-2.97-1.06-5.92-1.7-8.82-6.79-23.15-21.31-43.01-37.46-60.57-7.71-8.47-14.88-17.67-24.11-24.57-7.14-5.11-14.07-10.84-22.23-14.25-.45-.19-.91-.36-1.36-.54.22-.47.39-.99.57-1.49.04-.1.07-.2.11-.29.07-.16.14-.33.19-.5,0-.03.02-.06.03-.09t0,0c.25-.82.45-1.67.59-2.56.9-3.74.37-7.75-1.53-11.61l-.03-.05c-4.11-7.23-8.39-8.49-11.25-8.28-3.78.28-7.27,3.37-9.1,8.09-.13.33-.25.68-.36,1.04,0,0,0,0,0,0-.03.1-.06.2-.09.3-.08.27-.16.55-.23.84-.03.11-.05.21-.07.32,0,0,0,0,0,0-.06.25-.11.51-.15.78,0,.05-.02.09-.03.14,0,0,0,.01,0,.02-.01.07-.02.14-.03.2,0,.02,0,.03,0,.05,0,0,0,0,0,0,0,0,0,0,0,0-.09.56-.14,1.14-.18,1.73,0,.08,0,.16-.01.24,0,.03,0,.05,0,.08,0,0,0,0,0,0-.02.53-.02,1.06,0,1.6,0,.04,0,.08,0,.13,0,.01,0,.03,0,.04,0,.02,0,.04,0,.05.03.52.07,1.05.15,1.57,0,.01,0,.02,0,.03,0,0,0,0,0,0,.02.11.04.22.06.33.06.37.12.73.21,1.1-5.77-1.07-11.62-1.68-17.49-1.81l-.02-.07c-.35-1.01-1.05-1.77-1.72-2.5-.38-.41-.73-.81-1.04-1.26-1.06-1.4-1.91-2.92-2.82-4.61-2.66-5.19-5.12-14.57-5.57-19.6.24-.23.53-.52.89-.89.65-.67,1.42-1.46,1.96-1.94,1.21-1.22,2.02-2.76,2.35-4.46.18-1.03.22-1.98.13-2.84l-.08-.53c-.12-.68-.34-1.3-.66-1.84l-.05-.08c-.46-.66-1.07-1.15-1.74-1.52.97-2.35,1.46-4.92,1.42-7.25.07-2.36.08-4.87-.58-7.37-.65-2.03-1.75-3.82-2.82-5.56l-.67-1.09c-3.88-6.58-8.73-11.35-14.4-14.17-2.93-1.47-6.13-1.84-9.23-2.2-1.1-.13-2.19-.25-3.25-.42-7.61-1.38-15.05-1.15-22.13.69-16.49,4.64-29.9,20.16-32.59,37.7-.82,4.14-.31,8.37,1.46,12.21l.16.37c.81,1.85,1.72,3.94,3.79,4.99.47.25.97.4,1.58.47.33.14.64.23.92.29.08.02.17.03.25.05-.95,1.71-1.11,3.85-.26,5.67.71,1.14,1.92,2.1,3.57,2.79,2.6.94,5.64.37,7.86-.05.24-.05.46-.09.68-.13l.29,1.19c1.3,4.51,2.13,8.14,2.57,13.34.12,1.21.22,2.43.33,3.64.28,3.32.58,6.75,1.17,10.09l.02.1.04.09c.03.08.09.14.13.21-3.74,2.82-7.11,6.13-10.52,9.33-1.36,1.32-2.64,2.74-3.87,4.21-.81.79-1.63,1.59-2.4,2.38-1.14-.45-2.28-.88-3.35-1.27-.91-.33-1.74-.64-2.51-.94-.05-3.13-.9-6.27-3.87-8.33-2.32-1.29-5.38-1.27-9.39.07-.66.24-1.28.56-1.88.91-.03,0-.06-.03-.09-.04-1.47-.42-2.96-.8-4.45-1.17-1.59-.4-3.18-.8-4.77-1.27-.12-.03-.47-.14-.83-.26-.39-2.48-1.35-5.79-3.68-8.67-2.73-2.57-5.76-5.02-9.47-5.54-2.57-.37-4.74.37-6.11,2.1-1.69,2.14-1.98,5.57-.73,8.72,1.49,3.94,4.77,7,8.79,8.18,1.64.48,4.88.52,6.32.3.14.08.27.16.41.25.47.29.94.57,1.44.82,2.51,1.22,4.99,2.36,7.65,3.1-.13.32-.26.63-.37.96-1.47,4.43-.9,9.41,1.47,13.01,1.2,1.81,2.6,3.55,4.42,4.59.05.1.07.2.14.3,1.31,1.8,2.71,3.57,4.13,5.31-10.05,16.33-14.71,33.85-18.4,56.5-3.16,20.46-3.96,41.95,2.41,61.88.8,2.51,1.63,5.01,2.52,7.49.06.47.1.93.17,1.4,2.1,13.89,7.81,27.05,14.21,39.46,3.83,5.82,8.33,11.35,13.55,15.97,9.32,7.13,21.09,11.51,32.88,11.16,10.74-1.17,20.83-5.36,31.24-8.03,21.37-5.85,25.12-6.24,42.96-9.09,16.19-2.73,32.41-6.39,47.94-11.9,11.35-3.77,22.6-8.03,33.05-13.82,9.64-5.77,18.71-13.48,24.19-23.41,8.09-14.52,9.35-32.06,5.15-48-1.27-4.62-2.89-9.09-4.77-13.44Z"/>
      <g>
        <path class="cls-1" d="M52.57,147.81c-.25.48-.66.82-1.13.97-.26.08-.54.11-.83.06-.14,0-.27-.03-.41-.07l-.11.08c-.14,2.62.52,5.2.95,7.77,1.38,7.76,3.51,15.35,5.57,22.95,1.59,8.54,3.58,16.96,5.74,25.37.68,3.21,1.7,6.34,2.47,9.52.74,2.56.92,5.42,2.1,7.79,1.88,1.91,4.24-.41,3.09-2.66-2.5-10.7-5.54-21.26-7.89-32-1.34-8.91-4.3-17.43-6.19-26.22-1.2-5.65-1.97-9.13-2.14-14.26-.23-.58-.69-.88-1.19-1,.25.52.26,1.14-.03,1.7Z"/>
        <path class="cls-1" d="M125.97,70.52c-1.85-5.4-3.85-11.64-4.26-17.92.02-.72.19-1.21.54-1.59.56-.68,1.4-1.49,2.21-2.28.75-.73,1.59-1.55,1.81-1.91.96-1.35.95-3.48.64-4.21-.07-.09-.1-.11-.39-.26-1.38,1.88-3.18,3.37-5.39,4.08-.38.07-.73.09-1.08.09-.02.03-.04.05-.07.07-.57.64-1.39.88-2.16.64-.8-.25-1.36-.94-1.47-1.8-.09-.28-.19-.57-.29-.86-1.37-1.58-2.19-3.78-2.79-5.41l-.14-.36c-.16-.32-.33-.71-.45-1.12-.88-2.16-1.79-4.34-2.61-6.26-.28-.23-.55-.48-.81-.76-3,.66-6.14-.12-8.14-2.06-.34-.34-.67-.73-1.01-1.2-2.73.22-5.15-.47-7.03-2.01-.16-.01-.31-.03-.47-.05-1.77.95-3.38,1.52-4.92,1.75-2.65,1.51-5.7,2.65-8.21,3.08-.66.06-1.26.05-1.91-.01-2.44.8-4.86,1.15-7.12,1.02-.11.06-.22.12-.33.17-.45.21-.92.38-1.38.51-1.25,1.68-2.63,3.16-4.1,4.46.68,1.49.76,3.3.81,4.82l.06,1.52c.07,1.6.15,3.4-.51,4.92v.13c-.07.67-.08,1.27-.09,1.88-.03,1.75-.07,3.88-1.54,5.35.32.71.6,1.52.3,2.3-.13.34-.44.81-1.13,1.09l-.19.08h-.2c-.37-.01-.79-.04-1.25-.06-1.26-.07-2.99-.16-3.8.1-.05.02-.1.03-.14.04-.52.17-.93.51-1.21,1-.35.6-.47,1.34-.31,1.95,0,0,.29.52,1.79,1.16.88.37,2.63.1,4.47-.19,1.3-.2,2.64-.41,3.99-.46l.23.02c1.4.29,1.67,1.58,1.84,2.35l.08.38c2.16,6.72,2.86,13.79,3.53,20.64.22,2.27.46,4.61.75,6.92,14.8-8.23,31.87-12.32,48.75-10.31,3.75-.48,7.53-.74,11.3-.82-.02-.02-.04-.06-.06-.08-2.4-2.76-4.33-6.08-6.12-10.53ZM90.04,37.9l7.85-4.48c.46-.27,1.05-.1,1.31.36.26.46.1,1.05-.36,1.31l-5.15,2.94,6.07.5c.53.04.92.51.88,1.04-.04.5-.46.88-.96.88-.03,0-.05,0-.08,0l-9.17-.75c-.42-.03-.77-.34-.86-.75-.09-.41.1-.84.46-1.05ZM84.22,48.55c.1-.45.48-.82.88-.93.12-.05.24-.07.35-.08.04-.02.07-.05.11-.07,1.55-.47,3.03-1.01,4.38-1.58.57-.24,1.26.02,1.57.53.37.57.23,1.36-.29,1.75-1.45.74-2.91,1.2-4.31,1.66l-.56.18s-.01,0-.02,0c-.07.02-.15.03-.22.04-.07.03-.13.07-.21.1-.01,0-.03,0-.04.01-.44.14-.89.04-1.23-.27-.37-.33-.53-.86-.42-1.34ZM74.16,48.62c-.28,0-.56-.12-.75-.35-.34-.41-.28-1.02.13-1.36l4.71-3.87-5.91.52c-.52.05-1-.34-1.04-.88-.05-.53.35-1,.88-1.04l9.01-.79c.43-.03.82.21.98.6.16.39.05.84-.28,1.11l-7.11,5.85c-.18.15-.4.22-.61.22ZM105.47,61.23c0,1.14-.5,1.54-.9,1.68,0,0-.02,0-.03,0-.94.3-2.14-.61-3.94-2.65-.75,1.14-1.74,2.55-3.09,3.52-.8.53-1.64.92-2.52,1.2-3.37,1.07-7.08.4-9.81-.77-.35.6-.71,1.2-1.05,1.8-.18.35-.48.61-.85.72-.12.04-.25.06-.38.07-.57.03-1.14-.27-1.44-.75-.29-.46-.3-1-.04-1.49.83-1.44,1.66-2.86,2.5-4.27.23-.59.74-1.24,1.43-1.37.5-.1,1,.08,1.38.49.43.45.52,1.15.22,1.73-.08.14-.16.27-.23.4.15.08.37.2.44.21l.18.03c2.96.91,8.31,1.68,10.83-3.45l.18-.27c.06-.09.13-.18.2-.27-.19-.23-.36-.45-.55-.69-.49-.62-.86-1.1-1.03-1.27-.44-.62-.44-1.3-.06-1.83.37-.53,1-.78,1.61-.62.68.23,1.02.72,1.3,1.11.1.14.2.29.32.41l.07.08c1.45,1.9,2.72,3.24,4.33,4.94l.94.99v.31Z"/>
        <path class="cls-1" d="M46.76,116.06c.06-.07.12-.15.19-.22-.17-.09-.35-.18-.52-.27.11.16.22.33.33.49Z"/>
        <path class="cls-1" d="M61.09,135.55c-.42.56-.84.82-1.19.94-.19.06-.36.08-.5.08-.07,0-.13-.04-.2-.05-1.07-.13-1.88-1.16-2.59-2.1-.29-.38-.62-.82-.82-.97-3.99-4.54-8.97-10.41-13.32-16.75l-.2-.33c-.26-.42-.55-.9-.69-1.48,0-.06,0-.1,0-.16-.02-.6.05-1.06.13-1.46.05-.24.1-.48.12-.73.46-2.75.55-6.09-.15-7.31-1.18-2.57-2.8-2.56-6.23-1.95-2.53.52-4.3,1.99-5.47,3.78-.02.04-.03.08-.05.11-.02.03-.04.04-.06.06-.93,1.49-1.47,3.17-1.65,4.75-.47,4.08,1.05,9.11,5.48,11.17.66.34,1.04.91,1.07,1.59,0,.05-.01.09-.01.14.37.46.74.92,1.1,1.39.25.32.51.64.76.96.91,1.16,1.81,2.33,2.75,3.46,1.93,2.46,4.4,5.2,6.79,7.86,2.33,2.59,4.53,5.04,6.28,7.24h0s.03.07.05.1c3.04-2.21,5.77-5.05,7.55-8.38,4.89,5.05,9.33,13.29,14.75,19.63,3.6,4.37,7.94,8.04,11.7,12.26,3.05,3.36,6.52,8.71,9.75,13.67,8,12.23,13.71,23.72,18.5,36.64,2.79,7.79,5.54,14.17,5.69,21.6.08,5.87-1.34,14.51-4.05,18.15-2.57,3.47-5.55,5.06-9.73,7.87-4.74,3.22-9.08,4.54-13.76,5.14-8.03,1.47-13.71.92-21.29-.39-8.61-1.38-14.9-3-21.79-7.85-3.01-1.78-7.48-5.37-9.63-7.94-1.6-1.29-3.92.96-2.72,2.63,4.47,5.35,10.7,9.01,16.72,12.38,6.7,3.07,14.06,4.24,21.3,5.24,5.64,1.04,11.39.84,17.02-.12,5.61-.63,11.03-2.35,15.74-5.51,4.62-3.06,9.79-6.02,12.42-11.11,3.63-7.82,4.41-17.08,2.84-25.52-2.97-11.64-7.51-22.9-12.83-33.66-5.47-11.37-12.29-22.12-19.9-32.17-4.79-5.73-11.32-11.13-14.8-16.02-3.9-4.98-7.1-10.48-11.11-15.38-1.18-1.11-2.1-3.01-3.76-3.32.28.55.29,1.23,0,1.79ZM40.45,123.87s.06-.08.09-.12c.13.23.25.45.38.67-.15-.19-.31-.37-.47-.56Z"/>
        <path class="cls-1" d="M167.88,117.17c.46-2.53.9-5.13,1.32-7.75.67-4.14.57-8.36.46-12.84l-.05-2.06c.02-.42,0-.79-.02-1.16-.03-.79-.07-1.6.13-2.42l.18-.37.52-.66c.57-.71.8-1.01,1.3-1.96.27-.54.51-1.18.73-1.86.83-2.59,1.25-5.87.86-7.7-.79-3.9-3.42-7.92-6.25-9.56-1.3-.76-2.53-.96-3.65-.61-.01,0-.02,0-.03,0-3.05,1.26-5.31,4.99-5.68,9.47-.12,1.44-.02,3.05.37,4.62.61,2.46,1.93,4.83,4.32,6.33.72.6.93,1.43.64,2.2-.03.1-.09.17-.14.26.09.44.03.86-.02,1.17-.02.12-.04.24-.05.36-.95,9.17-1.9,17.61-2.92,25.86-.13.67-.55,1.16-1.12,1.41-.06.03-.12.07-.19.09-.08.03-.17.05-.26.06-.8.14-1.57-.2-1.98-.86l-.12-.2-.02-.24c-.01-.17,0-.35,0-.52-.29.1-.57.25-.79.52-5.06,7.02-6.65,15.87-8.69,24.12-2.43,11.58-4.06,23.32-5.23,35.09-1.43,12.66-1.1,25.51,1.84,37.93,1.74,6.59,2.85,13.8,7.4,19.14,3.45,3.74,6.61,8.16,11.29,10.42,8.17,3.9,17.35,7.52,26.53,5.76,18.82-3.71,32.82-22.05,42.44-37.5,3.23-5.09,6-10.54,7.57-16.38.35-1.41,1.47-3.34-.1-4.37-3.23-1.72-3.39,3.24-4.17,5.21-.62,2.3-2.47,6.28-4.26,9.61-9.89,17.12-24.94,36.74-42.87,39.78-8.83,1.06-15.77-1.97-23.85-5.79-2.03-.88-3.22-2.35-5.41-4.56-3.09-3.39-4.78-4.71-6.8-8.64-3.63-9.37-6.36-22.17-6.59-33.94.03-16.56,2.43-31.6,5.46-48.51,1.65-7.53,3.43-15.28,6.16-21.1.46-.93.96-1.85,1.48-2.75.16-.14.22-.28.22-.33.05-.06.1-.13.15-.19.42-.51.85-1.06.8-1.76,0,0,0-.01,0-.02,2.85.24,5.65-.62,8.41-1.25.17-.01.56-.05.93-.09-.27-.43-.38-.95-.24-1.45ZM171.49,87.87s0,0,0,0c0,0,0,0,0,0-.06-.08-.13-.16-.22-.22,0-.02-.02-.03-.02-.05.08.09.16.17.25.25ZM169.43,93.98c-.02.34-.07.68-.06,1.03,0,.25,0,.48.02.71,0,0,0,0,0,0,0-.5-.03-1.01-.06-1.51.03-.08.07-.15.1-.23ZM161.69,117.97s.03-.06.04-.09c.04.03.1.05.14.07-.06,0-.12.01-.18.02Z"/>
        <path class="cls-1" d="M170.84,119.24c-.16.11-.33.19-.5.25-.55.17-1.17.08-1.68-.28-.21-.15-.37-.33-.5-.53-.09.33-.12.68.02,1.06,4.07,12.5,7.39,25.2,10.22,38.04,2.86,13.63,6.94,27.05,12.56,39.8,1.96,2.35,4.81-.4,2.9-2.78-3.55-8.77-8.71-23.19-10.91-34.44-3.29-14.19-6.41-28.58-11.39-42.24-.13.3-.28.59-.47.87l-.24.24Z"/>
        <path class="cls-1" d="M114.52,112.69c.44-.15.9-.25,1.35-.36.06-.05.11-.1.17-.14-.5.11-1.05.23-1.65.36.04.05.09.1.13.15Z"/>
        <path class="cls-3" d="M171.48,87.89s0,0,0,0c0,0,0,0,0,0-.08-.08-.17-.17-.25-.25,0,.02.02.03.02.05.08.06.15.13.22.22Z"/>
        <path class="cls-3" d="M40.45,123.87c.15.19.32.36.47.56-.12-.22-.25-.44-.38-.67-.03.04-.06.08-.09.12Z"/>
        <path class="cls-3" d="M267.04,211.3c-1.27-4.62-2.89-9.09-4.77-13.44-.49-2.97-1.06-5.92-1.7-8.82-6.79-23.15-21.31-43.01-37.46-60.57-7.71-8.47-14.88-17.67-24.11-24.57-7.14-5.11-14.07-10.84-22.23-14.25-.45-.19-.91-.36-1.36-.54-.54,1.16-1.17,2.24-1.94,3.18,0,1.37.03,2.74.07,4.12.03,1.41.06,2.82.07,4.23.11,3.88-.25,7.98-1.09,12.53-.19.67-.26,1.33-.34,2.03-.11.99-.23,2.01-.61,2.94,4.98,13.66,8.1,28.05,11.39,42.24,2.2,11.25,7.36,25.68,10.91,34.44,1.9,2.38-.94,5.13-2.9,2.78-5.62-12.75-9.7-26.17-12.56-39.8-2.83-12.84-6.15-25.55-10.22-38.04-.14-.38-.11-.73-.02-1.06-.01-.02-.02-.04-.04-.06-.37.05-.76.08-.93.09-2.75.62-5.56,1.49-8.41,1.25,0,0,0,.01,0,.02.06.7-.38,1.25-.8,1.76-.05.06-.1.13-.15.19,0,.05-.07.2-.22.33-.52.9-1.02,1.82-1.48,2.75-2.72,5.82-4.5,13.57-6.16,21.1-3.03,16.92-5.43,31.95-5.46,48.51.23,11.77,2.96,24.57,6.59,33.94,2.02,3.93,3.71,5.26,6.8,8.64,2.19,2.2,3.38,3.68,5.41,4.56,8.09,3.82,15.02,6.85,23.85,5.79,17.93-3.04,32.98-22.66,42.87-39.78,1.79-3.33,3.63-7.31,4.26-9.61.78-1.97.94-6.92,4.17-5.21,1.57,1.03.45,2.96.1,4.37-1.57,5.84-4.34,11.29-7.57,16.38-9.62,15.45-23.62,33.79-42.44,37.5-9.18,1.76-18.36-1.86-26.53-5.76-4.68-2.26-7.84-6.68-11.29-10.42-4.55-5.34-5.66-12.55-7.4-19.14-2.94-12.42-3.27-25.28-1.84-37.93,1.17-11.77,2.8-23.52,5.23-35.09,2.04-8.25,3.63-17.1,8.69-24.12.22-.27.5-.42.79-.52-.07-2.14.25-4.33.58-6.45.19-1.22.38-2.43.49-3.63.36-2.79.63-5.61.9-8.34.27-2.84.56-5.78.94-8.66,0-.03.02-.06.03-.09-.16-.14-.32-.27-.47-.41-.16-.15-.33-.29-.49-.42-2.12-2.24-3.34-4.78-3.94-7.32-5.77-1.07-11.62-1.68-17.49-1.81l.02.06v.14c.04.6-.23,1.18-.7,1.57-.2.16-.42.28-.66.36-.33.1-.68.12-1.01.04-.94-.37-1.41-1.04-1.8-1.58-.15-.21-.3-.41-.47-.59-3.78.08-7.55.34-11.3.82-16.88-2.01-33.95,2.09-48.75,10.31.05.4.09.8.14,1.2.07.94-.47,1.71-1.33,1.98-.05.02-.11.03-.16.04-.86.2-1.66-.17-2.07-.88-3.74,2.82-7.11,6.13-10.52,9.33-1.36,1.32-2.64,2.74-3.87,4.21-.81.79-1.63,1.59-2.4,2.38,1.91.76,3.85,1.62,5.66,2.7,1.15.56,1.71,1.54,1.46,2.56-.14.64-.45,1.19-.73,1.67-.08.15-.17.3-.25.46l-.11.2c-.26.5-.74,1.41-1.62,1.68-.29.09-.61.11-.99.03-2.92-1.21-5.68-2.59-8.37-4-.06.07-.12.15-.19.22,2.02,2.9,4.22,5.65,6.37,8.32l1.33,1.65c1.97,2.32,3.9,4.53,6.25,7.22.16.15.28.32.38.51,1.66.31,2.58,2.21,3.76,3.32,4.01,4.9,7.21,10.39,11.11,15.38,3.48,4.9,10.01,10.29,14.8,16.02,7.62,10.05,14.44,20.8,19.9,32.17,5.32,10.76,9.86,22.02,12.83,33.66,1.57,8.44.79,17.7-2.84,25.52-2.63,5.09-7.8,8.05-12.42,11.11-4.71,3.16-10.13,4.88-15.74,5.51-5.64.96-11.38,1.16-17.02.12-7.24-1-14.6-2.17-21.3-5.24-6.02-3.37-12.25-7.03-16.72-12.38-1.2-1.67,1.12-3.92,2.72-2.63,2.15,2.57,6.62,6.16,9.63,7.94,6.89,4.85,13.19,6.47,21.79,7.85,7.57,1.31,13.26,1.86,21.29.39,4.68-.6,9.02-1.91,13.76-5.14,4.17-2.82,7.16-4.4,9.73-7.87,2.71-3.64,4.13-12.28,4.05-18.15-.15-7.44-2.9-13.81-5.69-21.6-4.79-12.92-10.5-24.41-18.5-36.64-3.24-4.96-6.71-10.31-9.75-13.67-3.76-4.22-8.11-7.89-11.7-12.26-5.42-6.35-9.86-14.59-14.75-19.63-1.78,3.33-4.51,6.17-7.55,8.38.05.07.08.14.12.21.5.12.96.43,1.19,1,.17,5.13.94,8.61,2.14,14.26,1.88,8.79,4.85,17.31,6.19,26.22,2.35,10.73,5.39,21.3,7.89,32,1.15,2.25-1.2,4.57-3.09,2.66-1.19-2.36-1.36-5.23-2.1-7.79-.77-3.19-1.79-6.31-2.47-9.52-2.15-8.41-4.15-16.83-5.74-25.37-2.06-7.6-4.19-15.19-5.57-22.95-.44-2.57-1.1-5.15-.95-7.77l-.08.06-.23-.28h0s-.45-.55-.45-.55c-.02-.02-.04-.04-.05-.07-1.93-2.31-3.96-4.62-6.12-7.05-2.67-3.02-5.38-6.12-7.97-9.3-10.05,16.33-14.71,33.85-18.4,56.5-3.16,20.46-3.96,41.95,2.41,61.88.8,2.51,1.63,5.01,2.52,7.49.06.47.1.93.17,1.4,2.1,13.89,7.81,27.05,14.21,39.46,3.83,5.82,8.33,11.35,13.55,15.97,9.32,7.13,21.09,11.51,32.88,11.16,10.74-1.17,20.83-5.36,31.24-8.03,21.37-5.85,25.12-6.24,42.96-9.09,16.19-2.73,32.41-6.39,47.94-11.9,11.35-3.77,22.6-8.03,33.05-13.82,9.64-5.77,18.71-13.48,24.19-23.41,8.09-14.52,9.35-32.06,5.15-48ZM115.88,112.32c-.45.11-.91.21-1.35.36-.04-.05-.09-.1-.13-.15.6-.13,1.15-.25,1.65-.36-.06.05-.11.1-.17.14Z"/>
        <path class="cls-3" d="M169.4,95.72c0-.23-.02-.46-.02-.71-.01-.35.03-.69.06-1.03-.03.08-.07.15-.1.23.03.5.05,1.01.06,1.51,0,0,0,0,0,0Z"/>
        <path class="cls-3" d="M161.69,117.97c.06,0,.12,0,.18-.02-.05-.03-.1-.04-.14-.07,0,.03-.02.06-.04.09Z"/>
        <path class="cls-2" d="M70.75,95.49c.06-.01.11-.03.16-.04.86-.27,1.4-1.05,1.33-1.98-.05-.4-.09-.8-.14-1.2-.28-2.31-.52-4.65-.75-6.92-.68-6.85-1.37-13.92-3.53-20.64l-.08-.38c-.16-.77-.43-2.06-1.84-2.35l-.23-.02c-1.34.05-2.69.25-3.99.46-1.85.29-3.59.56-4.47.19-1.5-.64-1.78-1.16-1.79-1.16-.16-.6-.04-1.35.31-1.95.28-.49.69-.83,1.21-1,.04-.01.09-.02.14-.04.81-.26,2.53-.17,3.8-.1.46.02.88.05,1.25.06h.2s.19-.07.19-.07c.69-.29,1-.75,1.13-1.09.3-.78.02-1.6-.3-2.3,1.47-1.47,1.51-3.6,1.54-5.35,0-.61.02-1.21.09-1.88v-.13c.66-1.52.58-3.32.51-4.92l-.06-1.52c-.05-1.53-.13-3.34-.81-4.82,1.47-1.29,2.85-2.78,4.1-4.46.46-.13.93-.31,1.38-.51.11-.05.22-.11.33-.17,2.26.13,4.68-.22,7.12-1.02.65.06,1.25.07,1.91.01,2.5-.42,5.56-1.57,8.21-3.08,1.54-.23,3.15-.81,4.92-1.75.16.02.32.03.47.05,1.88,1.54,4.29,2.23,7.03,2.01.34.46.67.86,1.01,1.2,2,1.94,5.15,2.71,8.14,2.06.27.28.54.53.81.76.83,1.91,1.73,4.09,2.61,6.26.12.41.29.81.45,1.12l.14.36c.6,1.63,1.42,3.84,2.79,5.41.1.29.2.59.29.86.11.86.68,1.55,1.47,1.8.77.24,1.59,0,2.16-.64.02-.03.04-.05.07-.07.34,0,.7-.02,1.08-.09,2.21-.71,4.01-2.2,5.39-4.08.29.15.31.18.39.26.31.73.32,2.86-.64,4.21-.22.36-1.07,1.18-1.81,1.91-.81.79-1.64,1.6-2.21,2.28-.35.38-.52.87-.54,1.59.41,6.29,2.41,12.52,4.26,17.92,1.79,4.45,3.72,7.77,6.12,10.53.02.02.04.06.06.08.17.18.32.38.47.59.38.54.86,1.21,1.8,1.58.33.08.69.06,1.01-.04.24-.07.46-.2.66-.36.47-.39.74-.98.71-1.57v-.14s-.03-.06-.03-.06l-.02-.07c-.35-1.01-1.05-1.77-1.72-2.5-.38-.41-.73-.81-1.04-1.26-1.06-1.4-1.91-2.92-2.82-4.61-2.66-5.19-5.12-14.57-5.57-19.6.24-.23.53-.52.89-.89.65-.67,1.42-1.46,1.96-1.94,1.21-1.22,2.02-2.76,2.35-4.46.18-1.03.22-1.98.13-2.84l-.08-.53c-.12-.68-.34-1.3-.66-1.84l-.05-.08c-.46-.66-1.07-1.15-1.74-1.52.97-2.35,1.46-4.92,1.42-7.25.07-2.36.08-4.86-.58-7.37-.65-2.03-1.75-3.82-2.82-5.56l-.67-1.09c-3.88-6.58-8.73-11.35-14.4-14.17-2.93-1.47-6.13-1.84-9.23-2.2-1.1-.13-2.19-.25-3.25-.42-7.61-1.38-15.05-1.15-22.13.69-16.49,4.64-29.9,20.16-32.59,37.7-.82,4.14-.31,8.37,1.46,12.21l.16.37c.81,1.85,1.72,3.94,3.79,4.99.47.25.97.4,1.58.47.33.14.64.23.92.29.08.02.17.03.25.05-.95,1.71-1.11,3.85-.26,5.67.71,1.14,1.92,2.1,3.57,2.79,2.6.94,5.64.37,7.86-.05.24-.05.46-.09.68-.13l.29,1.19c1.3,4.51,2.13,8.14,2.57,13.34.12,1.21.22,2.43.33,3.64.28,3.32.58,6.75,1.17,10.09l.02.1.04.09c.03.08.09.14.13.21.41.71,1.21,1.08,2.07.88Z"/>
        <path class="cls-2" d="M100.21,54.99l-.07-.08c-.12-.12-.22-.26-.32-.41-.28-.39-.63-.88-1.3-1.11-.61-.16-1.24.09-1.61.62-.37.53-.38,1.21.06,1.83.17.17.55.65,1.03,1.27.2.25.37.46.55.69-.07.1-.14.19-.2.27l-.18.27c-2.52,5.13-7.87,4.36-10.83,3.45l-.18-.03c-.08,0-.29-.12-.44-.21.08-.14.16-.26.23-.4.3-.57.21-1.28-.22-1.73-.38-.42-.88-.6-1.38-.49-.69.13-1.21.77-1.43,1.37-.84,1.41-1.66,2.83-2.5,4.27-.26.49-.25,1.03.04,1.49.3.48.87.78,1.44.75.13,0,.26-.03.38-.07.37-.12.67-.37.85-.72.34-.61.7-1.2,1.05-1.8,2.73,1.16,6.45,1.83,9.81.77.87-.28,1.72-.67,2.52-1.2,1.36-.97,2.34-2.38,3.09-3.52,1.79,2.03,3,2.94,3.94,2.65.01,0,.02,0,.03,0,.41-.14.9-.55.9-1.68v-.31s-.94-.99-.94-.99c-1.61-1.69-2.88-3.03-4.33-4.94Z"/>
        <path class="cls-2" d="M85.88,50.16s.03,0,.04-.01c.08-.02.14-.06.21-.1.07-.01.15-.02.22-.04,0,0,.01,0,.02,0l.56-.18c1.41-.45,2.86-.92,4.31-1.66.53-.39.66-1.18.29-1.75-.32-.5-1.01-.77-1.57-.53-1.35.57-2.83,1.11-4.38,1.58-.05.02-.07.05-.11.07-.12,0-.24.03-.35.08-.4.11-.78.48-.88.93-.11.48.06,1.01.42,1.34.34.31.8.41,1.23.27Z"/>
        <path class="cls-2" d="M49.26,148.02s.04.04.05.07l.45.55h0s.23.28.23.28l.08-.06.11-.08c.14.05.27.07.41.07.28.05.56.02.83-.06.47-.15.89-.49,1.13-.97.29-.56.28-1.18.03-1.7-.04-.07-.07-.14-.12-.21-.02-.03-.03-.07-.05-.1h0c-1.75-2.2-3.95-4.65-6.28-7.24-2.39-2.66-4.86-5.4-6.79-7.86-.93-1.14-1.84-2.3-2.75-3.46-.25-.32-.51-.64-.76-.96-.37-.47-.73-.93-1.1-1.39,0-.05.01-.09.01-.14-.03-.68-.41-1.26-1.07-1.59-4.44-2.06-5.95-7.09-5.48-11.17.18-1.58.72-3.26,1.65-4.75.02-.02.04-.04.06-.06.02-.04.03-.08.05-.11,1.17-1.79,2.94-3.26,5.47-3.78,3.43-.61,5.05-.62,6.23,1.95.71,1.23.62,4.57.15,7.31-.02.24-.07.48-.12.73-.08.4-.15.86-.13,1.46,0,.06,0,.1,0,.16.13.58.43,1.06.69,1.48l.2.33c4.35,6.34,9.33,12.21,13.32,16.75.2.15.53.59.82.97.71.94,1.52,1.97,2.59,2.1.07,0,.13.05.2.05.15,0,.32-.02.5-.08.35-.11.77-.37,1.19-.94.3-.56.29-1.24,0-1.79-.1-.19-.22-.36-.38-.51-2.36-2.68-4.29-4.89-6.25-7.22l-1.33-1.65c-2.15-2.67-4.35-5.42-6.37-8.32-.11-.16-.22-.33-.33-.49.17.09.35.18.52.27,2.69,1.41,5.45,2.79,8.37,4,.38.08.71.06.99-.03.88-.28,1.36-1.19,1.62-1.68l.11-.2c.08-.15.17-.3.25-.46.27-.49.59-1.04.73-1.67.24-1.02-.32-2-1.46-2.56-1.8-1.09-3.75-1.95-5.66-2.7-1.14-.45-2.28-.88-3.35-1.27-.91-.33-1.74-.64-2.51-.94-.05-3.13-.89-6.27-3.87-8.33-2.32-1.29-5.38-1.27-9.39.07-.66.24-1.28.56-1.88.91-.03,0-.06-.03-.09-.04-1.47-.42-2.96-.8-4.45-1.17-1.59-.4-3.18-.8-4.77-1.27-.12-.03-.47-.14-.83-.26-.39-2.48-1.35-5.79-3.68-8.67-2.73-2.57-5.76-5.02-9.47-5.54-2.57-.37-4.74.37-6.11,2.1-1.69,2.14-1.98,5.57-.73,8.72,1.49,3.94,4.77,7,8.79,8.18,1.64.48,4.88.52,6.32.3.14.08.27.16.41.25.47.29.94.57,1.44.82,2.51,1.22,4.99,2.36,7.65,3.1-.13.32-.26.63-.37.96-1.47,4.43-.9,9.41,1.47,13.01,1.2,1.81,2.6,3.55,4.42,4.59.05.1.07.2.14.3,1.31,1.8,2.71,3.57,4.13,5.31,2.59,3.18,5.3,6.28,7.97,9.3,2.15,2.44,4.19,4.74,6.12,7.05Z"/>
        <path class="cls-2" d="M158.68,90.67c.15.13.3.27.47.41,0,.03-.03.06-.03.09-.38,2.89-.67,5.82-.94,8.66-.26,2.73-.53,5.55-.9,8.34-.11,1.2-.3,2.41-.49,3.63-.33,2.12-.66,4.3-.58,6.45,0,.17,0,.35,0,.52l.02.24.12.2c.41.67,1.18,1.01,1.98.86.09-.01.18-.04.26-.06.07-.02.12-.06.19-.09.57-.25.99-.75,1.12-1.41,1.02-8.25,1.98-16.69,2.92-25.86,0-.12.03-.24.05-.36.05-.31.11-.73.02-1.17.05-.09.11-.16.14-.26.28-.77.07-1.6-.64-2.2-2.39-1.5-3.72-3.87-4.32-6.33-.39-1.58-.49-3.18-.37-4.62.38-4.48,2.63-8.2,5.68-9.47,0,0,.02,0,.03,0,1.12-.35,2.35-.15,3.65.61,2.83,1.65,5.46,5.67,6.25,9.56.39,1.83-.02,5.11-.86,7.7-.22.68-.46,1.32-.73,1.86-.5.96-.73,1.25-1.3,1.96l-.52.66-.18.37c-.2.82-.17,1.64-.13,2.42.01.37.03.74.02,1.16l.05,2.06c.11,4.48.21,8.71-.46,12.84-.42,2.61-.86,5.22-1.32,7.75-.13.51-.03,1.02.24,1.45.01.02.02.04.04.06.13.2.29.38.5.53.51.36,1.13.45,1.68.28.18-.06.35-.14.5-.25l.24-.24c.19-.28.34-.57.47-.87.38-.93.5-1.94.61-2.94.08-.7.15-1.36.34-2.03.84-4.55,1.2-8.65,1.09-12.53,0-1.41-.03-2.82-.07-4.23-.03-1.37-.06-2.75-.07-4.12.77-.95,1.4-2.03,1.94-3.18.22-.47.39-.99.57-1.49.04-.1.07-.2.11-.29.07-.16.14-.33.19-.5,0-.03.02-.06.03-.09h0c.25-.82.45-1.67.59-2.57.9-3.74.37-7.75-1.53-11.61l-.03-.05c-4.11-7.23-8.39-8.49-11.25-8.28-3.78.28-7.27,3.37-9.1,8.09-.13.33-.25.68-.36,1.04,0,0,0,0,0,0-.03.1-.06.2-.09.3-.08.27-.16.55-.23.84-.03.11-.05.21-.07.32,0,0,0,0,0,0-.06.25-.11.51-.15.78,0,.05-.02.09-.03.14,0,0,0,.01,0,.02-.01.07-.02.14-.03.2,0,.02,0,.03,0,.05,0,0,0,0,0,0,0,0,0,0,0,0-.09.56-.14,1.14-.18,1.73,0,.08,0,.16-.01.24,0,.03,0,.05,0,.08,0,0,0,0,0,0-.02.53-.02,1.06,0,1.6,0,.04,0,.08,0,.13,0,.01,0,.03,0,.04,0,.02,0,.04,0,.05.03.52.07,1.05.15,1.57,0,.01,0,.02,0,.03,0,0,0,0,0,0,.02.11.04.22.06.33.06.37.12.73.21,1.1.6,2.54,1.82,5.08,3.94,7.32.16.13.32.28.49.42Z"/>
        <path class="cls-2" d="M82.16,41.44c-.16-.39-.54-.63-.98-.6l-9.01.79c-.53.05-.92.51-.88,1.04.05.53.52.93,1.04.88l5.91-.52-4.71,3.87c-.41.34-.47.95-.13,1.36.19.23.47.35.75.35.21,0,.43-.07.61-.22l7.11-5.85c.33-.27.44-.72.28-1.11Z"/>
        <path class="cls-2" d="M90.44,39.69l9.17.75s.05,0,.08,0c.5,0,.92-.38.96-.88.04-.53-.35-1-.88-1.04l-6.07-.5,5.15-2.94c.46-.26.62-.85.36-1.31-.26-.46-.85-.62-1.31-.36l-7.85,4.48c-.37.21-.55.63-.46,1.05.09.41.44.72.86.75Z"/>
      </g>
    </g>
  </g>
</svg>