<?xml version="1.0" encoding="UTF-8"?>
<svg id="_レイヤー_2" data-name="レイヤー 2" xmlns="http://www.w3.org/2000/svg" viewBox="0 0 313.51 393.43">
  <defs>
    <style>
      .cls-1 {
        fill: #000;
      }

      .cls-1, .cls-2, .cls-3 {
        stroke-width: 0px;
      }

      .cls-2 {
        fill: #f15a24;
      }

      .cls-3 {
        fill: #fff;
      }
    </style>
  </defs>
  <g id="_人物" data-name="人物">
    <g>
      <path class="cls-3" d="M15.61,40.81c.49.67.97,1.33,1.45,2.01,3.04,4.22,6.7,8.97,11.68,11.81,2.62,1.64,5.25,2.83,7.8,3.98,1.95.88,3.8,1.72,5.57,2.7l1.44.95c.65.42,1.22.8,1.36.9l.17.14c.12.1.29.23.48.36-.07.63-.11,1.27-.12,1.92-.15,5.82-.19,11.65-.17,17.47.45,10.11,1.54,20.26,3.67,30.15,1.86,7.51,5.04,14.62,7.88,21.79,5.17,13.47,12.2,26.06,19.84,38.27,7.83,12.36,15.95,24.64,25.41,35.82.91.99,1.85,1.93,2.81,2.85,2.37,3.88,4.63,7.83,6.85,11.8,5.33,9.7,4.15,6.86,6.53,13.61,1.97,6.76,1.48,7.12,1.73,8.52,1,10.67,1.47,21.39,1.42,32.11-.4,24.91-2.95,49.92-.32,74.79.58,7.66,1.16,15.35,3.07,22.82,1.53,7,4.2,15.35,11.96,17.3,5.84,1.03,11.77.31,17.64-.04,7.89-.59,15.78-1.2,23.67-1.86,20.6-1.29,41.24-2.04,61.77-4.4,13.47-1.61,27.06-2.26,40.43-4.62,6.45-1.1,11.72-5.92,12.05-12.13.83-3.59,1.86-7.13,2.5-10.76.52-3.22.93-6.46,1.25-9.71-.13.01-.26.02-.38.04-.36.06-.72.1-1.08.12l.08-3.23c.85-.12,1.71-.31,2.52-.2,7.3-4.5,13.16-11.21,15.34-19.65,2.82-10.29,1.39-21.05-.23-31.41-1.85-14.48-6.24-28.38-11.34-42.01-3.48-9.02-6.11-18.68-11.78-26.64-2.41-3.24-5.17-6.14-8.15-8.82-.91-1.17-1.84-2.32-2.82-3.44-5.04-5.45-10.18-11.02-16.48-15.04-4.84-2.58-10.04-4.42-15.22-6.21-3.16-1.12-6.37-2.03-9.62-2.75.32-.81.62-1.65.91-2.52,0,0,0,0,0,0,.02-.05.03-.09.05-.14.09-.26.16-.55.25-.81.02-.05.03-.11.05-.16.01-.04.02-.08.03-.11.18-.57.36-1.14.53-1.74,0,0,0-.02,0-.03,0,0,0,0,0,0,.15-.52.28-1.07.42-1.61.08-.33.17-.65.26-.98.02-.06.03-.12.05-.18.05-.2.1-.41.15-.62,0,0,0,0,0,0,.23-.96.45-1.93.66-2.96,1.08-5.55,1.49-10.3,1.26-14.68.69-2.58.96-5.28,1.09-7.65.23-7.52-1.45-15.56-4.86-23.27l-.03-.07c-1.95-3.5-4.23-6.86-6.45-10.1-.83-1.22-1.66-2.44-2.56-3.77-.51-.54-1.1-.98-1.76-1.32-9.3-12.42-23.12-20.43-37.44-20.92-10.62.36-22.04,7.41-29.1,17.95l-1.19,1.75s-.07.1-.1.14c-3.02,3.91-5.48,7.81-7.43,11.79-.07.16-.14.33-.21.5-.79.8-1.43,1.82-1.77,3.13-.38,1.57-.77,3.18-1.16,4.82-1.04,3.31-2,6.96-2.94,11.18-1.57,6.89-3.15,14.91-2.09,23.03.09.81.18,1.62.28,2.44,0,0,0,0,0,0,.03.22.06.44.09.67.01.11.03.22.05.33.04.29.08.59.13.88.03.22.06.45.1.67.02.1.03.2.05.29,0,0,0,.01,0,.02.02.14.05.28.07.43.03.15.06.29.08.44,0,0,0,0,0,0,.09.49.18.97.28,1.46h0s0,.05.02.08c.04.18.07.37.11.55.02.07.04.14.05.21h0s0,0,0,0c.18.78.37,1.56.59,2.33-4.22-4.71-7.88-9.7-10.55-13.79-5.1-8.38-9.59-17.1-14.33-25.67-7.09-11.95-13.87-24.07-20.3-36.38-5.55-10.59-11.22-21.15-18.25-30.86-3.71-5.15-7.43-10.45-12.15-14.72-.27-.75-.56-1.5-.9-2.23-1.49-2.68-4.07-4.61-6.96-5.51,0-.02.02-.04.02-.05,1.16-5.03,2.69-10.06,4.17-14.93.55-1.83,1.11-3.65,1.64-5.48.16-.55.33-1.09.51-1.63.25-.77.49-1.54.74-2.42.15-.5.44-1.42-.28-2.14l-.06-.06c-1.38-1.11-3.34-.88-5.52.63-1.62,1.13-3.18,2.47-4.81,4.16-.03-.08-.06-.16-.1-.25-1.02-2.93-1.82-6.07-2.6-9.1-1.76-6.91-3.59-14.06-8.27-19.87-.88-.84-1.94-1.3-3.07-1.31-1.17.11-2.31.83-3.02,1.95-.33.67-.58,1.35-.79,2.03l-2.41,1.61,2.2-.81c-1.05,4.49.19,9.16,1.39,13.71.09.34.18.67.27,1.01-2.18-3.73-4.55-7.53-7.2-11.1-.13-.17-.27-.35-.42-.55-.88-1.15-1.97-2.58-3.4-2.58h0c-.77,0-1.47.42-2.09,1.23-.59.76-.71,1.69-.75,2.53-.06,2.83.75,5.53,1.53,8.15l.43,1.47c.95,2.74,1.9,5.47,2.87,8.2-11.83-13.61-14.47-13.29-15.4-13.17-.64.08-1.16.46-1.46,1.09-1.18,2.66.07,5.22,1.16,7.49.24.5.48,1,.7,1.51.72,1.52,1.5,3.03,2.34,4.54-1.17-1.11-2.42-2.13-3.83-3.01-2.08-1.02-3.66-1.07-4.7-.14-1.64,1.44-1.24,4.85-.31,7.57,1.09,3.01,2.98,5.6,4.8,8.1Z"/>
      <g>
        <path class="cls-2" d="M207.89,322.62c-.06,0-.12.02-.19.03.09,0,.15-.02.21-.02,0,0-.02,0-.03,0Z"/>
        <path class="cls-2" d="M94.88,211.94c2.37,3.88,4.63,7.83,6.85,11.8,5.33,9.7,4.15,6.86,6.53,13.61,1.97,6.76,1.48,7.12,1.73,8.52,1,10.67,1.47,21.39,1.42,32.11-.4,24.91-2.95,49.92-.32,74.79.58,7.66,1.16,15.35,3.07,22.82,1.53,7,4.2,15.35,11.96,17.3,5.84,1.03,11.77.31,17.64-.04,7.89-.59,15.78-1.2,23.67-1.86,20.6-1.29,41.24-2.04,61.77-4.4,13.47-1.61,27.06-2.26,40.43-4.62,6.45-1.1,11.72-5.92,12.05-12.13.83-3.59,1.86-7.13,2.5-10.76.52-3.22.93-6.46,1.25-9.71-.13.01-.26.02-.38.04-2.35.4-4.69.02-6.96-.6-4.85-.99-8.83-3.95-13.11-6.24-4.3-2.15-8.86-3.84-12.8-6.64-10.72-7.58-19.93-17.13-27.2-28.06-1.21-1.69-2.2-3.53-2.99-5.47-.18.1-.35.21-.52.32-2.94,1.46-7.66,3.39-12.25,4.56.31,1.86.97,4.12,1.36,6.27.26,1.62.65,3.23,1,4.83.01.02.02.03.03.06.02.09.02.17.04.26.24,1.1.46,2.2.6,3.31-.28,1.21-1.94.55-2.83.65-.49-.02-.99-.04-1.48-.06-.7.08-2.07.24-2.31.26-.01,0-.02,0-.03,0-2.4.52-4.85.38-7.28.49-3.47.41-6.96.27-10.42.57-1.54.18-3.09.15-4.63.09-2.97.27-5.95.38-8.93.26-1.46-.09-3.15.19-4.39-.74-4.58-5.76-5.05-13.53-6.17-20.54-.07-.52-.16-1.04-.23-1.57-.3-1.3-.52-2.61-.62-3.94-1.45-8.55-3.41-17.02-4.25-25.67-1.27-7.72-2.76-16.69-2.66-25.23-.21-3.71-.16-7.43,1-11,.06-.3.27-.53.53-.65.91-1.13,2.52-1.57,3.86-.99.17-.03.32-.07.5-.08,4.55.92,7.5.93,13.51,1.34,4.35-.07,8.65.62,12.99.51,3.06,0,6.12-.2,9.16.27.39.02.78.1,1.15.19.91-.02,1.82-.04,2.73-.07,1.73.08,3.69.18,5.07,1.35.34.42.35.95.35,1.48,1.39,2.35.4,5.41.33,8.02-.05,3.08-.29,6.14-.54,9.2.02,2.72.06,5.45,0,8.17.03,0,.07-.01.09-.01,1.46.06,2.66.83,3.83,1.57.49.32.98.63,1.44.85,5.67,3.49,9.2,7.37,10.87,11.87.06-.16.12-.33.18-.49.82-1.12,2.4-.57,3.57-.47,3.42.53,6.73,1.55,10.02,2.61,11.33,3.74,22.13,9.16,30.92,17.33,1.01.94.24,2.8-1.14,2.74-.42,0-.84-.17-1.14-.47-2.59-2.05-5.79-4.92-7.46-6.09-7.71-4.94-14.34-7.81-22.71-10.63-3.15-1.04-7.57-2.21-9.69-2.42-.02.05-.03.09-.05.14-.56-.12-1.12-.22-1.68-.32,0,0-.02-.01-.06-.03-.07-.03-.16-.05-.23-.07-.1-.04-.2-.08-.3-.12-.09.25-.24.5-.46.69-.08.07-.17.1-.26.16.12.2.23.41.35.61-.16.23-.26.49-.28.79,0,0,0,0,0,0,0,.02-.01.04-.01.06v4.13c0,.06.03.12.04.18h0c.01.05.02.1.03.16-.04.47-.08.94-.12,1.41.05.91.08,1.89.03,2.34,0,.33,0,.55,0,.65.25,1.53.01,3.35.38,4.73.01.87.22,1.76.28,2.64.17.11.33.25.45.42.03.04.03.09.06.13.17-.07.33-.11.5-.19.05-.02.08-.06.12-.09.91,3.19,2.28,5.45,4.65,8.65,4.08,6.2,8.45,10.87,14.09,16.54,4.75,4.36,8.22,7.11,13.45,10.51,3.51,2.02,7.32,3.43,10.89,5.33,4.22,2.32,6.97,4.49,11.08,5.4,1.95.43,3.21.92,4.33.8,1.26.12,2.62-.44,3.85-.26,7.3-4.5,13.16-11.21,15.34-19.65,2.83-10.29,1.39-21.05-.23-31.41-1.85-14.48-6.24-28.38-11.34-42.01-3.48-9.02-6.11-18.68-11.78-26.64-2.41-3.24-5.17-6.14-8.15-8.82-.91-1.17-1.84-2.32-2.82-3.44-5.04-5.45-10.18-11.02-16.48-15.04-4.84-2.58-10.04-4.42-15.22-6.21-3.16-1.12-6.37-2.03-9.62-2.75-.4,1.04-.83,2.04-1.28,3.01-1.06,2.75-3.2,5.2-6.31,7.22-1,.72-3.06,2.06-5.23,2.84-.65.2-1.32.3-1.99.3-2.96,0-5.93-1.88-6.87-4.61-1.34-3.49-.59-7.18.13-10.74,0-.03.01-.06.02-.09-6.09.14-12.17.86-18.14,2.13-2.37.73-4.7,1.56-7.03,2.41-3.48.26-6.95.68-10.38,1.3.23,1,.46,2.01.68,3.01.68,3.47.98,7.35-1.9,9.93-1.88,1.69-4.48,2.67-6.95,2.69-.55.1-1.12.16-1.72.16-2.8,0-6.08-1.14-9.68-3.41-5.03-2.94-7.58-8.29-9.05-12.07-.56-1.22-1.05-2.5-1.49-3.8-.87-1.28-1.49-2.32-1.8-2.85-1.08-1.9-1.87-3.91-2.47-5.98-4.22-4.71-7.88-9.7-10.55-13.79-5.1-8.38-9.59-17.1-14.33-25.67-7.09-11.95-13.87-24.07-20.3-36.38-5.55-10.59-11.22-21.15-18.25-30.86-3.71-5.15-7.43-10.45-12.15-14.72-.27-.75-.56-1.5-.9-2.23-1.49-2.68-4.07-4.61-6.96-5.51-.16.6-.67,1.05-1.32,1.13-.68.08-1.31-.22-1.62-.8l-.09-.17v-.19c0-.17.02-.36.03-.53-1.79-.1-3.6.19-5.27.96-2.54.72-4.52,2.98-5.87,5.1-.38.74-.66,1.5-.91,2.28.08.05.17.11.28.18.63.41,1.49.97,1.59,1.87.04.34-.03.84-.54,1.35-.35.29-.7.4-1.02.4-.4,0-.75-.17-1.04-.36-.07.63-.11,1.27-.12,1.92-.15,5.82-.19,11.65-.17,17.47.45,10.11,1.54,20.26,3.67,30.15,1.86,7.51,5.04,14.62,7.88,21.79,5.17,13.47,12.2,26.06,19.84,38.27,7.83,12.36,15.95,24.64,25.41,35.82.91.99,1.85,1.93,2.81,2.85Z"/>
        <path class="cls-1" d="M164.85,246.22c0-.09,0-.19.01-.29,1.09,1.33,1.94,2.48,3,3.74.94.5,1.36-.73,1.74-1.36.75-1.24,1.69-2.73,2.42-3.56.05,2.26.07,4.52.2,6.77-.03.69.9,1.07,1.37.57.44-.5.13-1.24.18-1.84-.09-2.15-.09-4.3-.17-6.45-.01-1.57-1.19-1.49-2.22-.74-.72.6-1.18,1.47-1.74,2.21-.51.74-.96,1.52-1.42,2.3-.04-.04-.05-.07-.09-.11-1.08-1.28-2.04-2.76-3.27-3.87-.19-.1-.43-.1-.62,0-.03.01-.05.04-.07.05-.41.01-.83.31-.81.77-.07,2.18-.45,4.41-.28,6.58.21.61,1.13.65,1.43.1.29-1.57.15-3.25.34-4.85Z"/>
        <path class="cls-1" d="M177.59,246.07c-.02.31-.04.63-.06.94-.12.85-.22,1.7-.28,2.55-.1.21-.13.46-.05.68-.08,1.19-.14,2.38-.23,3.57-.04.16,0,.3.04.43-.04.37.14.77.56.87.95.32,3.71,1.52,3.13-.52-.24-.43-.76-.4-1.18-.53-.34-.06-.66-.21-.99-.33.13-1.01.21-2.03.26-3.03,1.14-.07,2.29-.09,3.44-.02.43,0,.81-.37.8-.8-.01-.86-.96-.84-1.6-.84-.79-.03-1.58,0-2.36.03,0-.66.03-1.33.06-1.99.03-.16.04-.34.07-.49.05-.17.03-.31,0-.44,0,0,0-.01,0-.02,1.42.07,2.84.17,4.25.35.31,0,.63-.19.73-.49.38-1-.81-1.2-1.54-1.21-1.68-.19-3.36-.3-5.05-.33-1.04-.02-1.04,1.62,0,1.61Z"/>
        <path class="cls-1" d="M187.79,253.73c.37-1.06.44-1.9.51-2.75.83,1.8,1.7,3.58,2.81,5.22.97,1.01,1.98-.05,2.17-1.12.43-1.39,3.86-9.86,1.57-9.91-.43,0-.81.37-.8.8-.09,1.04-.12,1.18-.32,2.35-.35,1.83-1.31,4.42-1.89,6.03-.3-.52-.59-1.05-.87-1.58-.8-1.53-1.52-3.09-2.22-4.66.08-.42.16-.85.3-1.25.13-.27.19-.6.02-.87-.33-.6-1.31-.48-1.47.19-.08.26-.14.52-.21.78-.41.18-.66.72-.39,1.14.03.07.06.13.09.2-.24,1.28-.38,2.58-.56,3.87-.01.42-.2.88-.04,1.29.18.52.93.65,1.3.26Z"/>
        <path class="cls-1" d="M198.38,256.46c.82.54,2.07.64,2.87.01,1.46-1.24,1.99-3.25,2.71-4.96.35-1,.68-2.01.84-3.07.06-.38.17-.83-.16-1.13-1.71-1.05-1.35,1.68-1.91,2.82-.65,1.97-1.65,4.5-2.5,5.1-1.51.45-1.49-1.13-.81-4.54.11-1.22.9-2.49.64-3.68-.33-.6-1.31-.48-1.47.19-.56,2.26-1.12,4.53-1.22,6.86-.05.89.26,1.87,1.02,2.39Z"/>
        <path class="cls-1" d="M197.04,263.91c.27-.44.02-1.05-.48-1.18-.46-.1-.9.17-1.35.26-4.65,1.49-10.57-.5-14.94-2.4-4.81-2.47-10.47-4.64-15.26-.88-.38.34-1,.6-1,1.19-.02.69.9,1.07,1.37.57,2.66-2.34,6.2-2.86,10.09-1.29,3.95,1.76,9.54,4.51,14.66,4.89,2.12.07,5.16.03,6.91-1.16Z"/>
        <path class="cls-1" d="M139.05,190.45c.44,1.3.93,2.58,1.49,3.8,1.47,3.77,4.02,9.13,9.05,12.07,3.6,2.27,6.88,3.41,9.68,3.41.6,0,1.17-.06,1.72-.16,2.47-.02,5.08-1,6.95-2.69,2.87-2.58,2.57-6.46,1.9-9.93-.22-1-.45-2.01-.68-3.01-.11-.5-.22-1-.34-1.5-.51-2.24-1.02-4.48-1.49-6.73l-.93-4.31c-2.04-9.42-2.98-13.72-3.55-23.77-.32-6.22-.2-12.26.33-17.88.63-3.37,1.68-7.04,2.69-10.02,1.2,1.26,2.65,2.14,4.12,2.57.84.24,1.68.36,2.52.36,3.22,0,6.26-1.78,8.28-4.94,1.06.27,2.2.31,3.39.08,1.08.61,2.23.92,3.41.95,2.36,1.65,5.24,1.89,7.76.63,1.38-.69,2.49-1.75,3.28-3.05,2.54,5.62,5.91,19.91,5.94,24.72.13,1.72.25,3.44.37,5.16l.24,3.44c.39,6.6.64,13.18.82,19.18-.42,1.69-.7,3.44-.45,5.06-.13.63-.27,1.27-.39,1.9-.13.76-.28,1.53-.44,2.31,0,.03-.01.06-.02.09-.72,3.56-1.46,7.25-.13,10.74.94,2.74,3.91,4.61,6.87,4.61.67,0,1.34-.1,1.99-.3,2.17-.78,4.23-2.13,5.23-2.84,3.11-2.03,5.24-4.47,6.31-7.22.45-.97.88-1.97,1.28-3.01.32-.81.62-1.65.91-2.52,0,0,0,0,0,0,.02-.05.03-.09.05-.14.09-.26.16-.54.25-.81.02-.05.03-.11.05-.16.01-.04.02-.08.03-.11.18-.57.36-1.14.53-1.74,0,0,0-.02,0-.03,0,0,0,0,0,0,.15-.52.28-1.07.42-1.61.08-.33.17-.65.26-.98.02-.06.03-.12.05-.18.05-.2.1-.41.15-.62h0c.23-.96.45-1.94.66-2.97,1.08-5.55,1.49-10.3,1.26-14.68.69-2.58.96-5.28,1.09-7.65.23-7.52-1.45-15.56-4.86-23.27l-.03-.07c-1.95-3.5-4.23-6.85-6.45-10.1-.83-1.22-1.66-2.44-2.56-3.77-.51-.54-1.1-.98-1.76-1.32-9.3-12.42-23.12-20.43-37.44-20.92-10.62.36-22.04,7.41-29.1,17.95l-1.19,1.75s-.07.1-.1.14c-3.02,3.91-5.48,7.81-7.43,11.79-.07.16-.14.33-.21.5-.79.8-1.43,1.82-1.77,3.13-.38,1.57-.77,3.18-1.16,4.82-1.04,3.31-2,6.96-2.94,11.18-1.57,6.89-3.15,14.91-2.09,23.03.09.81.18,1.62.28,2.44,0,0,0,0,0,0,.03.22.06.44.09.67.01.11.03.22.05.33.04.29.08.59.13.88.03.22.06.45.1.67.02.1.03.2.05.29,0,0,0,.01,0,.02.02.14.05.28.07.43.03.15.06.29.08.44,0,0,0,0,0,0,.09.49.18.97.28,1.46h0s0,.06.02.08c.04.18.07.36.11.55.02.07.04.14.05.21,0,0,0,0,0,0s0,0,0,0c.18.78.37,1.56.59,2.33.6,2.07,1.4,4.08,2.47,5.98.3.53.93,1.57,1.8,2.85Z"/>
        <path class="cls-1" d="M181.25,156.6c.73.45,1.76,1,2.9,1,.24,0,.48-.02.72-.08.58-.2.97-.72,1.02-1.35.05-.64-.26-1.25-.8-1.54l-.12-.05c-.4-.14-.59-.16-.79-.18-.09,0-.17-.02-.52-.14-.58-.19-1-.57-1.15-1.05-.16-.49-.03-1.05.37-1.61l.15-.2c.21-.2.55-.54.7-1.4.02-.65-.37-1.24-.99-1.5-.62-.26-1.32-.12-1.74.32-1.21,1.15-1.86,2.87-1.71,4.49.13,1.38.82,2.54,1.97,3.29Z"/>
        <path class="cls-1" d="M193.85,164.12c-.41-.31-.93-.4-1.31-.28-1.55.23-3.07.41-5.27.61-3.19.33-6.61.58-10.04.11l-.27-.04h-.02s-.05,0-.08,0c-.34-.08-.81-.18-1.29-.16-.25-.14-.52-.2-.83-.21-.43,0-.82.18-1.19.6-.57.92-.33,1.97-.14,2.82.06.27.12.53.16.85,1.29,6.31,5.25,7.76,10.82,8,.07,0,.14,0,.21,0,2.96,0,6.04-1.38,8.1-3.67,1.42-1.74,2.06-4.24,1.86-7.24,0-.55-.26-1.07-.7-1.4Z"/>
        <path class="cls-1" d="M174.33,145.38c.07-.05.12-.12.18-.18.25-.03.49-.1.71-.21.24-.13.44-.32.59-.55.4-.41.6-.97.51-1.5-.08-.55-.44-1.01-.99-1.25l-.12-.04c-.54-.14-1.15-.1-1.69.08-.35,0-.67.13-.94.34-.12.06-.23.13-.32.22-.07.04-.15.06-.21.11-.59.16-1.04.65-1.17,1.27-.13.63.1,1.24.6,1.59.4.3.84.34,1.16.34.23.11.47.17.7.17.36,0,.71-.13.98-.38Z"/>
        <path class="cls-1" d="M186.96,143.3c.18.43.49.69.75.86.13.22.3.4.49.53.3.2.67.28,1.03.22.09,0,.17-.03.25-.05.23.11.46.19.71.22.27.02.54-.02.8-.14.32-.07.61-.22.84-.43.17-.15.32-.33.42-.54.24-.51.19-1.09-.14-1.58l-.08-.1c-.33-.36-.78-.62-1.25-.78-.07-.02-.13-.07-.2-.09-.08-.05-.16-.07-.24-.1-.23-.1-.48-.15-.73-.13-.13-.02-.26-.01-.39,0-.08,0-.16-.03-.24-.03-.16-.05-.33-.07-.5-.07-.41,0-.82.16-1.14.46,0,0-.02.01-.03.02-.46.45-.6,1.1-.37,1.66,0,.02.03.04.04.06Z"/>
        <path class="cls-1" d="M37.6,63.64c.51-.51.58-1.02.54-1.35-.09-.9-.96-1.46-1.59-1.87-.11-.07-.2-.13-.28-.18-.03-.02-.07-.05-.1-.07l-.19-.15c-.5-.29-.98-.61-1.46-.94-.65-.44-1.32-.89-2.09-1.28l-1.8-.81c-3.76-1.68-7.31-3.27-11.04-5.59-4.03-2.51-7.13-6.53-9.95-10.44l-.78-1.08c-1.81-2.51-3.87-5.35-4.75-7.45-.73-1.51-.92-3.75-.9-4.67.34.06.96.25,1.77.79,2,1.45,4.53,4.25,6.76,6.73l1.13,1.25c.16.15.43.44.77.8,2.99,3.18,5.01,4.99,6.51,4.86.48-.05.89-.3,1.17-.74.41-.7.22-1.59-.4-2.1-1.14-1.21-1.56-1.79-2.46-3.07l-.15-.22c-5.61-8.19-8.9-14.25-10.03-18.49,5.71,4.16,11.79,11.52,16.26,16.94l.76.9c.38.68,1.18,1,1.94.77.72-.21,1.17-.85,1.13-1.6l-.03-.19c-.43-1.43-.95-2.85-1.46-4.22-.4-1.08-.8-2.17-1.16-3.25-.49-1.57-1.11-3.27-1.76-5.07-1.6-4.39-3.38-9.29-3.23-12.51,3.06,3.56,6.41,9.35,9.14,14.09l.84,1.44c.78,1.25,1.51,2.6,2.2,3.9.69,1.28,1.4,2.61,2.18,3.86l.15.18c.4.35.95.46,1.49.3.54-.17.95-.6,1.11-1.25.06-.65-.15-1.22-.32-1.73-.08-.23-.16-.46-.22-.73-.37-1.53-.9-3.36-1.45-5.29-2.11-7.33-4.99-17.34-2.1-20.79l.04-.02h.03s.07-.05.07-.05c.12.03.34.12.54.28,3.82,4.49,5.64,11.43,7.4,18.14.52,1.98,1.04,3.95,1.61,5.87.14.43.29.94.44,1.49.67,2.37,1.42,5.07,3.23,5.4,1.07.2,2.16-.48,3.26-1.98,1.54-1.6,3.22-2.94,4.4-3.64l-.02.07c-1.43,4.71-2.87,9.43-4.25,14.21-.2.85-.51,1.86-.84,2.93-.64,2.06-1.27,4.17-1.34,5.91,0,.18-.04.37-.04.53v.19s.1.17.1.17c.31.57.94.88,1.62.8.65-.09,1.16-.53,1.32-1.13,0-.02.02-.04.02-.05,1.16-5.03,2.69-10.06,4.17-14.93.55-1.83,1.11-3.65,1.64-5.48.16-.55.33-1.09.51-1.63.24-.77.49-1.54.74-2.42.15-.5.44-1.42-.28-2.14l-.06-.06c-1.38-1.11-3.34-.88-5.52.63-1.62,1.13-3.18,2.47-4.81,4.16-.03-.08-.06-.16-.1-.25-1.02-2.93-1.82-6.07-2.6-9.1-1.76-6.91-3.59-14.06-8.27-19.87-.88-.84-1.94-1.3-3.07-1.31-1.17.11-2.31.83-3.02,1.95-.32.67-.58,1.35-.79,2.03l-2.41,1.61,2.2-.81c-1.05,4.49.19,9.16,1.39,13.71.09.34.18.67.27,1.01-2.18-3.73-4.55-7.53-7.2-11.1-.13-.17-.27-.35-.42-.55-.88-1.15-1.97-2.58-3.4-2.58h0c-.77,0-1.47.42-2.09,1.23-.59.76-.71,1.69-.75,2.53-.06,2.83.75,5.53,1.53,8.15l.43,1.47c.95,2.74,1.9,5.47,2.87,8.2C10.48,13.22,7.84,13.55,6.9,13.66c-.64.08-1.16.46-1.46,1.09-1.18,2.66.07,5.22,1.16,7.49.25.5.48,1,.7,1.51.72,1.52,1.5,3.03,2.34,4.54-1.17-1.11-2.42-2.13-3.83-3.01-2.08-1.02-3.66-1.07-4.7-.14-1.64,1.44-1.24,4.85-.31,7.57,1.09,3.01,2.98,5.6,4.8,8.1.49.67.97,1.33,1.45,2.01,3.04,4.22,6.7,8.97,11.68,11.81,2.62,1.64,5.25,2.83,7.8,3.98,1.95.88,3.8,1.72,5.57,2.7l1.44.95c.65.42,1.22.8,1.36.9l.17.14c.12.1.29.23.48.36.29.19.64.36,1.04.36.32,0,.66-.11,1.02-.4Z"/>
        <path class="cls-1" d="M221.22,299.99c.84-.03,1.61-.24,2.37-.55-.03-.04-.03-.09-.06-.13-.13-.17-.28-.31-.45-.42-.24-.16-.52-.25-.84-.22h-.13c-.62.12-1.08.48-1.49.79-.22.17-.43.33-.61.41-.39.17-.82.38-1.27.6-.85.41-1.81.88-2.77,1.22-5.44,2.16-10.68,3.49-14.77,3.73-.74.04-1.45-.18-1.77-.33.31-.7.84-1.2,2.36-1.94.24-.18.63-.36,1-.53.57-.27,1.07-.5,1.38-.85.48-.22.82-.62.93-1.11.13-.57-.07-1.16-.5-1.54-.39-.34-.9-.46-1.44-.35-.07,0-.15.02-.24.04-.08.02-.18.04-.29.05-5.14.54-13.49-.23-15.37-1.25,2.54-1.09,7.71-2.45,10.79-2.45h.03c.45.05.89.1,1.29.12.51.07,1.03-.12,1.4-.5.35-.37.5-.87.42-1.28-.13-1.33-1.48-1.45-2.06-1.5l-.17-.02c-.13-.01-.26,0-.38,0h-.12c-1.56-.16-2.94-.39-4.87-.72-5.7-.84-8.7-2.22-9.08-3.15-.02-.05-.06-.14,0-.3,1.23-.26,2.94-.35,5.17-.3,2.02.38,3.86.62,5.62.73,1.51.11,3.28.21,4.99.16.33.02,1.16.01,1.71-.52.31-.3.48-.69.47-1.12.02-.96-.8-1.58-1.71-1.72-1.63-.07-3.27-.21-4.91-.34-1.92-.16-3.91-.32-5.77-.37-5.29-.88-6.67-1.84-7.03-2.24.03-.08.11-.24.34-.47.93-.94,3.18-1.9,5.1-1.85,1.06-.02,2.11-.05,3.17-.08,4.8-.16,9.33-.29,13.37,1.13.78.2,1.28-.02,1.56-.25.73-.61.66-1.72.6-2.61-.01-.22-.03-.43-.03-.67l-.06-1.11c-.08-1.52-.16-3.1-.54-4.7-.6-1.96-.53-2.44.06-3.53.05-.1.11-.21.16-.31.07-.02.14-.03.2-.05,2.14,1.06,8.85,5.4,10.55,7.96.77.9,1.27,1.99,1.79,3.14.33.73.67,1.48,1.09,2.18l.16.19c.51.45,1.21.48,1.79.13.09-.05.18-.09.26-.16.23-.19.37-.44.46-.69-.04-.02-.09-.03-.14-.05-.22-.09-.44-.15-.66-.2.18-.49.36-.97.55-1.46-1.67-4.5-5.2-8.38-10.87-11.87-.46-.22-.95-.54-1.44-.85-1.16-.74-2.37-1.51-3.83-1.57-.03,0-.06,0-.09.01-.61.09-2.14.36-2.73,1.85l-.21.46c-.35.75-.74,1.59-.79,2.62.04,1,.29,1.97.51,2.82.17.66.33,1.28.33,1.77.08.99.16,2.11.21,3.25-1.34-.31-3.05-.57-4.25-.57h-.02c-3.52-.23-6.97-.16-10.18-.05-2.04.07-3.87.19-5.58,1.02-3.03,1.33-4.51,3.37-3.95,5.5.4,1.2,1.26,1.94,2.25,2.44-.06.06-.11.13-.17.2-.66.77-.89,1.91-.64,3.21l.05.17c1.3,2.98,4.53,3.96,7.5,4.57-1.54.42-3.1.9-4.53,1.9-.56.53-.81,1.2-.74,1.94.12,1.16,1.05,2.24,1.94,2.79,1.9,1.15,4.06,1.36,6.15,1.57.52.05,1.03.1,1.57.17,1.26.09,2.68.18,4.17.22-1.19,1.32-1.65,2.68-1.3,3.85.26.85,1.05,1.97,3.44,2.46.51.07,1.03.11,1.53.11,1.58,0,3.13-.31,4.64-.6.56-.11,1.12-.22,1.72-.32.55-.12,1.1-.25,1.65-.4,4.59-1.18,9.31-3.11,12.25-4.56.16-.11.34-.21.52-.32-.33-.8-.64-1.62-.9-2.45.05,0,.09.02.14.02Z"/>
      </g>
    </g>
  </g>
</svg>