<?xml version="1.0" encoding="UTF-8"?>
<svg id="_レイヤー_2" data-name="レイヤー 2" xmlns="http://www.w3.org/2000/svg" viewBox="0 0 319.55 493.11">
  <defs>
    <style>
      .cls-1 {
        fill: #000;
      }

      .cls-1, .cls-2, .cls-3 {
        stroke-width: 0px;
      }

      .cls-2 {
        fill: #f15a24;
      }

      .cls-3 {
        fill: #fff;
      }
    </style>
  </defs>
  <g id="_人物" data-name="人物">
    <g>
      <path class="cls-3" d="M291.08,305.01c-6.86-11.08-13.74-19.23-22.22-25.86,3.8-5.7,7.08-11.73,9.8-18.03,3.04-7.09,4.55-14.69,6.35-22.15,2.68-12.16,5.48-24.32,7.16-36.66,2.48-21.22,5.12-42.62,3.47-64.01-1.66-17.74-5.58-35.84-14.44-51.45-4.68-6.99-13.94-20.93-23.24-21.91-.15-.48-.32-.97-.51-1.47-.05-.15-.11-.29-.17-.44-.04-.09-.08-.19-.12-.29-.07-.18-.15-.35-.22-.53-.05-.11-.09-.22-.13-.32-.06-.14-.12-.28-.18-.42-.22-.5-.46-.99-.71-1.49,0,0,0,0,0,0-.06-.12-.13-.24-.19-.36,0,0,0,0,0,0-.2-.39-.41-.78-.62-1.17,0,0,0,0,0,0-.1-.17-.19-.35-.29-.52,0,0,0,0,0,0-.21-.37-.43-.74-.65-1.11,0,0,0,0,0,0-.08-.13-.15-.26-.23-.38,0,0,0,0,0-.01-.29-.47-.58-.94-.88-1.4,0,0,0,0,0,0-.1-.15-.2-.3-.3-.45,0,0,0,0,0,0-.22-.34-.45-.67-.67-.99,0,0,0,0,0,0-.02-.03-.04-.06-.07-.09-.08-.12-.16-.23-.24-.35-.31-.44-.62-.87-.93-1.28,0,0,0,0,0,0,0,0,0,0,0-.01,0,0,0,0,0,0-.03-.03-.05-.07-.08-.1-.14-.19-.28-.37-.43-.55-.01-.01-.02-.03-.03-.04-.07-.1-.15-.2-.22-.29-.07-.09-.14-.17-.21-.26-.18-.23-.36-.46-.54-.67-.09-.11-.18-.21-.27-.31,0,0,0,0,0-.01-.03-.04-.06-.07-.09-.1-.12-.14-.25-.29-.37-.43-.03-.04-.07-.07-.1-.11-.08-.09-.16-.17-.24-.26-.05-.06-.1-.11-.15-.16,0,0-.01-.01-.02-.02-.06-.07-.12-.14-.18-.2-.23-.24-.44-.46-.65-.66-.81-5.95-2.44-12.29-8.15-14.89-3.35-1.05-7.25-.01-10.7,2.79-1.25-.99-2.55-1.93-3.82-2.83-1.55-1.1-3.15-2.24-4.57-3.44-2.38-2.4-6.05-4.94-9.28-7.19l-1.15-.8c-1.53-1.1-2.96-2.23-4.5-3.55.43-.84.67-1.59.73-2.33.13-1.09-.74-1.64-1.21-1.93l-.53.62.49-.64c-1.59-1.21-2.28-1.76-3.61-3.1-1.17-1.01-2.3-2.08-3.46-3.18-2.02-1.91-4.11-3.88-6.51-5.67-.12-.09-.25-.21-.39-.32-.67-.58-1.5-1.29-2.49-1.19-.52.05-.98.32-1.32.77-.21.24-.46.47-.72.69-.64.57-1.36,1.22-1.64,2.18l-.03.23c0,.8.5,1.38.87,1.8l.21.25c.94,1,2.04,1.97,3.47,3.05l.94.71c1.09.82,2.22,1.66,3.03,2.39-.06.05-.12.1-.18.15-1.01-.74-2-1.6-2.95-2.42-1.9-1.65-3.87-3.35-6.22-4.39l-.32-.07c-1.11,0-1.7.91-2.09,1.51-.08.12-.16.24-.3.45l-.15.26c-.37.64-1.07,1.82-.11,2.88,2.91,2.76,5.5,4.68,8.2,6.06.02,0,.04.02.07.04-.43.39-.89.76-1.11.91-.06.03-.11.06-.17.09-.63-.61-1.24-1.24-1.83-1.87-1.05-1.12-2.13-2.27-3.45-3.3-.13-.08-.26-.18-.4-.29-.61-.46-1.74-1.32-2.86-.5l-.57.72c-.62.85-1.33,1.81-1.54,3.11,0,.98.62,1.67,1.11,2.22l.2.22s.02.02.03.03l.47.47c1.13,1.13,2.15,2.05,3.17,2.86l.53.41c3.21,2.44,6.53,4.97,10.43,6.29,1.53.63,2.89-.17,3.99-.82.25-.15.5-.3.8-.45.92-.56,1.88-1.16,2.76-1.9,1.44,1.31,3.06,2.74,4.75,4.23,3.42,3.02,7.29,6.44,10.52,9.61,1.99,2.11,4.08,4.08,6.03,5.87-1.44,4.16-1.35,8.83,1.22,12.72,2.29,3.78,8.05,3.47,11.15,3.31.44-.02.83-.04,1.15-.05,1.51,1.4,5.99,6.77,7.23,8.7.37.43.72,1.11,1.05,1.77.12.23.24.47.36.7.18.34.38.65.58.94,0,0,0,0,0,0,.08.11.15.22.23.32.08.1.18.18.27.26.03.03.07.07.1.1.04.04.08.08.12.12-1.24,3.55.08,7.38.25,11.02,1.58,15.5,2.6,24.76,2.65,33.18-.26,17.85-4.37,35.37-6.58,53.04-2.72,18.46-3.31,21.46-9.19,39.67-4.85,14.21-5.18,14.06-14.14,27.13-3.29,4.51-6.45,9.14-10.06,13.41-.63.7-1.32,1.35-1.98,2.02-.39-.21-.76-.46-1.14-.7-.49-.32-.96-.66-1.43-1.04t0,0s-.09-.07-.14-.11c-.12-.09-.24-.18-.36-.28-.03-.03-.07-.05-.1-.08h0c-.11-.09-.22-.21-.33-.3-.35-.31-.7-.63-1.04-.97-1.03-1.03-2.01-2.17-2.93-3.41-.38-.5-.74-1.02-1.1-1.54-.07-.1-.14-.2-.2-.3,0,0,0,0,0,0h0c-.06-.08-.11-.17-.16-.26-.08-.13-.16-.25-.24-.38-.17-.27-.34-.53-.51-.8-.03-.05-.06-.09-.09-.14-.08-.13-.15-.25-.23-.38,0,0,0,0,0,0-.16-.27-.32-.55-.48-.83,0,0,0,0,0,0-.43-.76-.85-1.53-1.25-2.32-.02-.03-.04-.07-.05-.1-.4-.79-.79-1.59-1.15-2.4,0,0,0,0,0,0,0,0,0-.01,0-.02-.43-.95-.83-1.9-1.2-2.86-.09-.24-.18-.47-.27-.7-.47-1.25-.89-2.48-1.26-3.68,0,0,0,0,0,0,0,0,0,0,0,0-.03-.09-.05-.18-.08-.26-.02-.08-.05-.16-.07-.23-.22-.73-.41-1.44-.59-2.14,0-.03-.01-.06-.02-.08-.18-.71-.34-1.4-.47-2.06-.07-.22-.08-.52-.1-.84-.02-.38-.05-.81-.18-1.22.34-6.79,1.61-13.15,4.08-20.42l.04-.26c0-.42-.18-.78-.45-1.06l1.51-6.06c.11.04.22.09.34.11.2.03.4.02.59-.01.55-.11,1-.5,1.16-1.04,2.21-6.56,1.63-11.14-1.75-13.63l-.15-.09c-1.12-.49-2.05-.5-2.8-.31-.26-1.95-1.14-8.35-1.9-13.28.15-.15.32-.29.47-.45.1-.1.18-.21.28-.31.06-.07.12-.14.19-.21,0,0,0,0,0,0,0-.01.02-.02.03-.03.09-.1.19-.21.28-.31.02-.02.04-.05.06-.07h0c.13-.15.27-.3.4-.46.4-.5.78-1.01,1.13-1.54,4.61-7.52,3.83-16.73-1.99-23.46-5.61-6.48-14.19-8.58-21.91-5.36-.59-.07-1.21-.11-1.85-.12-2.99-.89-5.96-1.08-8.85-.57-.82.14-1.62.36-2.41.61,4.29-3.28,7.29-7.69,8.48-12.66,1.5-6.26-.03-12.73-4.33-18.21l-.02-.03c-3.31-3.84-7.89-6.55-12.51-7.41-10.91-2.96-21.93,3.43-25.13,14.55-3.6,6.71-3.74,14.69-.36,20.84,2.4,4.38,6.33,7.38,11.28,8.73-1.73,1.35-3.33,2.98-4.73,4.87-2.8.29-5.48.97-7.98,2.04-9.28,4.36-12.83,15.42-11.54,24.01.03.58.09,1.15.17,1.72.02.17.05.33.08.5,0,0,0,0,0,0,.03.18.07.35.11.52.05.24.09.49.15.73,0,0,0,0,0,0,.04.16.07.32.11.47.02.07.04.13.06.2.05.16.1.32.15.48.09.3.17.6.27.9,0,0,0,0,0,0,.05.13.1.25.15.38.15.39.31.78.48,1.16.09.2.19.4.28.6.15.31.31.61.48.91.11.2.21.39.33.58t0,0c.07.12.16.24.23.36.12.19.24.38.37.57.07.1.13.2.2.3.16.23.34.46.51.68,0,0,0,0,0,0,.15.2.3.39.45.58,0,0,0,0,0,0,.2.24.4.49.62.72.11.12.22.23.33.35.02.02.03.03.05.05,0,0,0,0,0,0,.4.42.82.83,1.25,1.22h0s.01.02.02.02c.13.12.27.22.4.33.3.26.6.52.92.76.02.01.04.03.06.04,0,0,0,0,.01.01.07.05.13.1.2.15,0,0,0,0,0,0,.32.23.65.46.99.68,0,0,.01,0,.02.01.08.05.18.09.26.14h0c.12.07.23.16.35.23,0,0,0,0,.01,0,.56.33,1.13.63,1.72.9.86.4,1.76.73,2.67,1l2.1,9.54c-.79-.46-1.64-.81-2.5-1.05-.48-.13-.96-.23-1.45-.3,0,0,0,0,0,0,0,0,0,0,0,0h0c-.48-.06-.97-.09-1.45-.09-.12,0-.23,0-.35,0-.26.01-.51.03-.76.06h0c-.2.03-.4.07-.6.11-.08.02-.17.03-.25.05-.01,0-.03,0-.05,0-.17.04-.34.09-.5.14-.04.01-.07.03-.11.04-.1.03-.2.08-.3.11-.16.06-.31.11-.46.17,0,0,0,0,0,0-.11.05-.22.1-.33.16-.36.19-.7.4-1.02.65-2.26,1.82-2.62,4.77-1,8.1.92,1.85,3.01,5.11,6.74,6.19l.32.05c.41.07.91.17,1.42.06.27-.05.55-.16.81-.36.17-.15.3-.33.4-.54l10.89,3.89c-.04.11-.08.22-.09.35-.07.74.39,1.52,1.01,1.83,4.73,3.7,8.2,7.08,11.27,10.97.86.99,1.3,1.78,1.85,2.78.23.42.49.87.79,1.39l.13.16c.11.11.26.16.39.23,2.87,8.51,3.94,18.42,2.96,28.17-.03.43-.07.82-.12,1.2,0,0,0,0,0,0,0,0,0,.02,0,.02-.05.37-.1.72-.16,1.06,0,.03-.01.06-.02.1-.1.54-.2,1.07-.32,1.61,0,0,0,0,0,0-1.18-.05-2.56-.13-4.22-.24-5.82-.45-9.93-1.96-20.84-6.9-15.35-7.28-16.9-6.91-29.59-15.71-4.03-3.21-2.29-1.26-8.37-8.45-7.5-9.88-10.47-13.58-17.78-28.91-7.11-16.17-12.2-33.17-19.63-49.22-3.68-8.74-8.13-17.12-13-25.26-.94-1.85-2.15-3.59-3.66-4.96.15-.05.3-.09.44-.18.56-.38.82-1.03.68-1.61-.7-4.23.4-8.89,1.46-13.39l.18-.73c2.5-1.7,4.65-4.02,6.25-6.74.19-.34.39-.68.59-1.02.89-1.52,1.81-3.1,2.21-4.94.32-1.86.31-3.62-.01-5.23.45-.17.83-.5,1.06-.72.11-.1.21-.2.39-.34.25-.23.51-.45.77-.67.5-.43,1.01-.86,1.47-1.36.09,0,.19.01.29.02.98,0,1.83-.35,2.65-.69.39-.16.78-.33,1.23-.46l1.08-.38c3.96-1.39,8.05-2.83,11.92-4.67,9.95-4.63,16.46-13.94,16.58-23.67.1-1.45.08-2.96-.06-4.55l-.05-.31c-.08-.57-.17-1.28-.73-1.82l-.13-.1c-1.22-.78-2.33.13-3.07.73-.25.2-.51.42-.82.58-10.15,7.32-20.75,15.93-32.41,26.33-.51.47-1.02.93-1.54,1.39-1.23,1.11-2.49,2.26-3.68,3.46-1.78-1.07-3.77-1.62-5.46-1.99-3.29-.86-9.44-1.72-13.7,2.16-2.61,2.62-5.64,6.73-5.2,11.32,0,.94.19,1.91.47,2.88-.41.36-.84.73-1.29,1.1-1.81,1.51-3.69,3.08-4.73,5.28l-.08.34c0,1.16.45,2.15.9,3.11.18.39.36.79.5,1.19l.1.19c.41.6.91.76,1.26.79.17.01.33,0,.5-.03.86-.17,1.64-.95,2.33-1.66.26-.26.49-.51.76-.7.31-.28.62-.57.93-.86.78-.74,1.53-1.44,2.41-2.06.03-.03.1-.07.14-.1.18.23.34.45.48.64-1.84,5.91-3.73,12.03-3.12,18.48.04.15.11.29.19.42,0,0,0,0,0,0,0,0,0,0,0,0,.08.12.18.23.3.33-.11.09-.24.17-.35.27-3.12,2.88-4.29,7.03-5.42,11.07-1.39,1.73-2.32,3.93-2.51,6.58-.13,1.55-.22,3.11-.29,4.67-1.19,6.89-1.4,13.91-.58,20.91.63,5.75,1.86,11.36,3.52,16.86,1.94,12.05,5.2,23.85,9.45,35.31,4.99,12.08,10.17,24.2,17.75,34.93,3.83,5.65,7.74,11.25,11.6,16.88,11.02,16.86,21.73,33.94,35.14,49.05,7.96,9.99,17.46,18.44,27.46,26.28-3.49,11.5-6.4,23.15-7.9,35.11-1.9,14.18-2.46,28.52-1.13,42.78.94,11.11,2.56,22.27,6.71,32.69,4.01,9.83,10.54,18.81,19,25.28,1.62,1.13,3.48,1.85,5.23,2.74-4.65-2.28-.89-.45,1.57.77,4.16,2.13,7.94,2.01,10.96.57,7.67,2.99,16.45,2.92,24.65,3.52,17.45,1.84,35.13.38,51.95-4.68,21.44-6.4,42.8-14.41,61.67-26.61,10.07-6.64,19.61-15.11,24.72-26.24,2.43-5.6,3.45-11.71,4.82-17.63,3.55-15.76,1.55-32.19-1.26-47.91-4.31-22.77-12.73-44.77-25.31-64.26ZM116.66,204.86l1.97,3.06c-.45-.47-.84-.96-1.07-1.37-.39-.58-.68-1.15-.9-1.69Z"/>
      <g>
        <path class="cls-2" d="M278.11,461.06c10.07-6.64,19.61-15.11,24.72-26.24,2.43-5.6,3.45-11.71,4.82-17.63,3.55-15.76,1.55-32.19-1.26-47.91-4.31-22.77-12.73-44.77-25.31-64.26-6.86-11.08-13.74-19.23-22.22-25.86,3.8-5.7,7.08-11.73,9.8-18.03,3.04-7.09,4.55-14.69,6.35-22.15,2.68-12.16,5.48-24.32,7.16-36.66,2.48-21.22,5.12-42.62,3.47-64.01-1.66-17.74-5.58-35.84-14.44-51.45-4.68-6.99-13.94-20.93-23.24-21.91.03.1.07.21.1.31l.07.23-.07.23c-.16.52-.6.92-1.15,1.06-.54.13-1.09,0-1.47-.39l-.11-.13c-.25-.39-.46-.79-.66-1.2-3.19.42-6.11,2.43-7.94,5.12.2.36.43.7.63,1.06.31.57.22,1.28-.22,1.79-.25.28-.57.47-.91.54-.28.06-.57.04-.84-.07l-.21-.12s0,0,0,0c-1.24,3.55.08,7.38.25,11.03,1.58,15.5,2.6,24.76,2.65,33.18-.26,17.85-4.37,35.37-6.58,53.04-2.72,18.46-3.31,21.46-9.19,39.67-4.85,14.21-5.18,14.06-14.14,27.13-3.29,4.51-6.45,9.14-10.06,13.41-.63.7-1.32,1.35-1.98,2.02.44.24.89.48,1.35.66l.07.03c.63.33.99.87.98,1.48,0,.58-.35,1.12-.9,1.4-.15.07-.3.13-.45.16-.46.09-.96,0-1.39-.29-.7-.31-1.38-.67-2.06-1.08-.35.32-.71.62-1.06.94-1.36.08-2.73.19-4.09.37-7.74.86-15.12,3.56-22.66,5.38-3.62.92-7.28,1.85-10.71,3.26-4.76.58-6.56.9-9.71.9-.21,1.19-.45,2.37-.72,3.54-.18.6-.63,1-1.19,1.11-.18.04-.38.04-.58.01-.8-.12-1.37-.74-1.37-1.52.18-1.02.35-1.78.51-2.5.06-.25.11-.49.16-.73-1.18-.05-2.56-.13-4.22-.24-5.82-.45-9.93-1.96-20.84-6.9-15.35-7.28-16.9-6.91-29.59-15.71-4.03-3.21-2.29-1.26-8.37-8.45-7.5-9.88-10.47-13.58-17.78-28.91-7.11-16.17-12.2-33.17-19.63-49.22-3.68-8.74-8.13-17.12-13-25.26-.94-1.85-2.15-3.59-3.66-4.96-.06.02-.11.06-.17.07-.41.08-.85,0-1.2-.25-.35-.23-.59-.6-.67-1.02-.01-.1-.02-.2-.03-.3-.6-.34-1.23-.64-1.92-.85-2.93-1.03-6.2-.8-8.99.48-.02.34-.04.67-.1,1.01l-.11.27c-.33.52-.95.8-1.59.71-.31-.04-.58-.17-.8-.35-.11.09-.24.17-.35.27-3.12,2.88-4.29,7.03-5.42,11.07-1.39,1.73-2.32,3.93-2.51,6.58-.13,1.55-.22,3.11-.29,4.67-1.19,6.89-1.4,13.91-.58,20.91.63,5.75,1.86,11.36,3.52,16.86,1.94,12.05,5.2,23.85,9.45,35.31,4.99,12.08,10.17,24.2,17.75,34.93,3.83,5.65,7.74,11.25,11.6,16.88,11.02,16.86,21.73,33.94,35.14,49.05,7.96,9.99,17.46,18.44,27.46,26.28-3.49,11.5-6.4,23.15-7.9,35.11-1.9,14.18-2.46,28.52-1.13,42.78.94,11.11,2.56,22.27,6.71,32.69,4.01,9.83,10.54,18.81,19,25.28,1.62,1.13,3.48,1.85,5.23,2.74-4.65-2.28-.89-.45,1.57.77,4.16,2.13,7.94,2.01,10.96.57,7.67,2.99,16.45,2.92,24.65,3.52,17.45,1.84,35.13.38,51.95-4.68,21.44-6.4,42.8-14.41,61.67-26.61Z"/>
        <path class="cls-1" d="M141.63,269.19c0,.78.57,1.4,1.37,1.52.2.03.4.02.58-.01.56-.11,1.01-.51,1.19-1.11.28-1.17.51-2.35.72-3.54,2.13-11.94.91-24.78-3.47-35.77l-.09-.23-.2-.14c-.25-.18-.52-.26-.78-.3-1.96-3.18-4.57-5.88-6.94-8.19-1.65-1.7-3.54-3.36-5.82-5.1-.12-.08-.27-.22-.43-.37-.43-.41-1.02-.97-2.04-.85-.69.2-1.14.7-1.21,1.34-.07.74.39,1.52,1.01,1.83,4.73,3.7,8.2,7.08,11.27,10.97.86.99,1.3,1.78,1.85,2.78.23.42.49.87.79,1.39l.13.16c.11.11.26.16.39.23,2.87,8.51,3.94,18.42,2.96,28.17-.03.43-.07.82-.12,1.2,0,0,0,0,0,0,0,0,0,.02,0,.02-.05.37-.1.72-.16,1.06,0,.03-.01.06-.02.1-.1.54-.2,1.07-.32,1.61,0,0,0,0,0,0-.05.24-.11.48-.16.73-.16.72-.33,1.48-.51,2.5Z"/>
        <path class="cls-1" d="M180.66,200.34c-.35.18-.62.49-.75.89l-.07.21c-1.2,3.56-2.45,7.25-3.04,11.12-.11,1.19-.3,2.39-.5,3.65-.42,2.64-.86,5.37-.45,8.01l.03.22.14.17s0,0,0,0c1.72,10.12,8.37,24.9,17.69,30.56.67.41,1.36.77,2.06,1.08.44.28.93.38,1.39.29.15-.03.31-.08.45-.16.55-.28.89-.82.9-1.4,0-.61-.35-1.15-.98-1.48l-.07-.03c-.46-.19-.9-.42-1.35-.66-.39-.21-.76-.46-1.14-.7-.49-.32-.96-.66-1.43-1.04t0,0s-.09-.07-.14-.11c-.12-.09-.24-.18-.36-.28-.03-.03-.07-.05-.1-.08h0c-.11-.09-.22-.2-.33-.3-.35-.31-.7-.63-1.04-.97-1.03-1.03-2.01-2.17-2.93-3.41-.38-.5-.74-1.02-1.1-1.54-.07-.1-.14-.2-.2-.3,0,0,0,0,0,0h0c-.06-.08-.11-.17-.16-.26-.08-.13-.16-.25-.24-.38-.17-.27-.34-.53-.51-.8-.03-.05-.06-.09-.09-.14-.08-.13-.15-.25-.23-.38,0,0,0,0,0,0-.16-.27-.32-.55-.48-.83,0,0,0,0,0,0-.43-.76-.85-1.53-1.25-2.32-.02-.03-.04-.07-.05-.1-.4-.79-.79-1.59-1.15-2.4,0,0,0,0,0,0,0,0,0-.01,0-.02-.43-.95-.83-1.9-1.2-2.86-.09-.24-.18-.47-.27-.7-.47-1.25-.89-2.48-1.26-3.68,0,0,0,0,0,0,0,0,0,0,0,0-.03-.09-.05-.18-.08-.26-.02-.08-.05-.16-.07-.23-.22-.73-.41-1.44-.59-2.14,0-.03-.01-.06-.02-.08-.18-.71-.34-1.4-.47-2.06-.07-.22-.08-.52-.1-.84-.02-.38-.05-.81-.18-1.22.34-6.79,1.61-13.15,4.08-20.42l.04-.26c0-.78-.57-1.4-1.37-1.52-.19-.03-.37-.02-.54.01,0,0,0,0,0,0h0c-.14.03-.26.08-.39.14-.03.01-.06.02-.09.03,0,0,0,0,0,0Z"/>
        <path class="cls-1" d="M113.86,211.43c-.03-.51-.3-.97-.72-1.24l-.17-.08c-.57-.2-.99-.22-1.3-.23-.25,0-.33-.02-.57-.13-1.13-.38-2.91-2.07-3.55-3.19-1.3-1.92-1.64-3.76-.92-4.9.7-1.11,2.34-1.54,4.6-1.19.59.03,1.41.49,2.35,1.03.36.21.74.42,1.15.64l.17.07c.76.21,1.51-.18,1.83-.93.32-.74.09-1.54-.55-1.96-1.05-.82-2.28-1.38-3.54-1.74-.48-.13-.96-.23-1.45-.3,0,0,0,0,0,0,0,0,0,0,0,0,0,0,0,0,0,0-.48-.06-.97-.09-1.45-.09-.12,0-.23,0-.35,0-.26.01-.51.03-.76.06h0c-.2.03-.4.07-.6.11-.08.02-.17.03-.25.05-.01,0-.03,0-.05,0-.17.04-.34.09-.5.14-.04.01-.07.03-.11.04-.1.03-.2.08-.3.11-.16.06-.31.11-.46.17,0,0,0,0,0,0-.11.05-.22.1-.33.16-.36.19-.7.4-1.02.65-2.26,1.82-2.62,4.77-1,8.1.92,1.85,3.01,5.11,6.74,6.19l.32.05c.41.07.91.17,1.42.06.27-.05.55-.16.81-.36.37-.32.58-.81.54-1.31Z"/>
        <path class="cls-1" d="M177.16,189.14c.21.75.91,1.2,1.71,1.1.83-.09,1.39-.71,1.42-1.54-.05-2.76.92-5.3,1.85-5.94.24-.16.38-.14.47-.1,1.18.54,2.09,3.21,1.51,6.07-.06.77-.29,1.53-.54,2.42-.16.56-.33,1.15-.49,1.81l-.02.19s.02.06.02.1c0,0,0,0,0,0,.01.18.05.35.12.51,0,0,0,0,0,0,0,0,0,0,0,0,.07.16.16.3.28.42.02.02.05.04.07.06,0,0,0,0,0,0,.1.1.21.19.34.25.01,0,.03,0,.05.01,0,0,0,0,0,0h0c.15.08.31.13.49.16.2.03.4.02.59-.01.55-.11,1-.5,1.16-1.04,2.21-6.56,1.63-11.14-1.75-13.63l-.15-.09c-1.88-.82-3.26-.3-4.08.29-2.44,1.73-3.28,6.28-3.05,8.95Z"/>
        <path class="cls-1" d="M122.83,189.36c6.15-1.24,12.14-5.08,16.96-11,1.07-.61,2.12-1.29,3.13-2.02,1.75.25,3.59.34,5.46.27,7.19,1.87,14.86.37,20.56-4.03,3.1-.94,5.9-2.38,8.32-4.22,0,0,0,0,0,0,.51-.39,1-.79,1.47-1.21,0,0,0,0,0,0,0,0,0,0,0,0,0,0,0,0,0,0h0c.46-.41.9-.83,1.32-1.27.1-.1.18-.21.28-.31.06-.07.12-.14.19-.21,0,0,0,0,0,0,0-.01.02-.02.03-.03.09-.1.19-.21.28-.31.02-.02.04-.05.06-.07h0c.13-.15.27-.3.4-.46.4-.5.78-1.01,1.13-1.54,4.61-7.52,3.83-16.73-1.99-23.46-5.61-6.48-14.19-8.58-21.91-5.36-.59-.07-1.21-.11-1.85-.12-2.99-.89-5.96-1.08-8.85-.57-.82.14-1.62.36-2.41.61,4.29-3.28,7.29-7.69,8.48-12.66,1.5-6.26-.03-12.73-4.33-18.21l-.02-.03c-3.31-3.84-7.89-6.55-12.51-7.41-10.91-2.96-21.93,3.43-25.13,14.55-3.6,6.71-3.74,14.69-.36,20.84,2.4,4.38,6.33,7.38,11.28,8.73-1.73,1.35-3.33,2.98-4.73,4.87-2.8.29-5.48.97-7.98,2.04-9.28,4.36-12.83,15.42-11.54,24.01.03.58.09,1.15.17,1.72.02.17.05.33.08.5,0,0,0,0,0,0,.03.18.07.35.11.52.05.24.09.49.15.73,0,0,0,0,0,0,.04.16.07.32.11.47.02.07.04.13.06.2.05.16.1.32.15.48.09.3.17.6.27.9,0,0,0,0,0,0,.05.13.1.25.15.38.15.39.31.78.48,1.16.09.2.19.4.28.6.15.31.31.61.48.91.11.2.21.39.33.58,0,0,0,0,0,0,.07.12.16.24.23.36.12.19.24.38.37.57.07.1.13.2.2.3.16.23.34.46.51.68,0,0,0,0,0,0,.15.2.3.39.45.58,0,0,0,0,0,0,.2.24.4.49.62.72.11.12.22.23.33.35.02.02.03.03.05.05,0,0,0,0,0,0,.4.42.82.83,1.25,1.22,0,0,0,0,0,0,0,0,.01,0,.02.01.13.12.27.22.4.33.3.26.6.52.92.76.02.02.04.03.06.04,0,0,0,0,.01.01.07.05.13.1.2.15,0,0,0,0,0,0,.32.23.65.46.99.68,0,0,.01,0,.02.01.08.05.18.09.26.14,0,0,0,0,0,0,.12.07.23.16.35.23,0,0,0,0,.01,0,.56.33,1.13.63,1.72.9,2.38,1.1,4.97,1.72,7.64,1.71,1.61.04,3.22-.1,4.82-.42Z"/>
        <path class="cls-1" d="M140.57,193.61c.26.04.52.03.77-.02.49-.1.93-.35,1.26-.73.55-.31.74-.78.81-1.19.07-.8-.23-1.7-.79-2.35-.23-.54-.61-.95-1.08-1.16-.45-.21-.96-.21-1.49,0-.61.27-1.03.83-1.17,1.51-.37.54-.51,1.19-.36,1.86.09.29.21.54.29.64.28.79.93,1.33,1.75,1.44Z"/>
        <path class="cls-1" d="M157.13,187.99c.48.5,1.11.7,1.75.57.1-.02.19-.05.29-.08.9-.32,1.61-1.23,1.67-2.06.21-.84-.09-1.83-.73-2.39-.36-.31-.78-.47-1.22-.47-.05-.04-.09-.07-.14-.1-.53-.38-1.24-.38-1.8,0-.56.38-.83,1.03-.7,1.58.03.25.06.5.13.76-.12.66.07,1.34.52,1.86.06.1.12.2.23.33Z"/>
        <path class="cls-1" d="M144.71,202.93c-.32.76-.08,1.57.51,1.92,2.5,2.05,5.9,2.74,9.12,2.09,2.05-.41,4.03-1.36,5.66-2.83,1.36-1.4,2.47-3.38,3.3-5.89l.04-.24c0-.54-.28-1.04-.77-1.33-.49-.29-1.1-.31-1.58-.05l-.08.05c-.58.41-.82,1.04-1.02,1.54-.08.2-.15.39-.25.56l-.07.15c-1.32,3.96-5.75,5.62-9.27,4.93-1.09-.21-1.66-.57-2.52-1.1-.31-.2-.66-.41-1.06-.64l-.19-.08c-.76-.2-1.51.18-1.83.93Z"/>
        <path class="cls-1" d="M150.94,195.14c.23,0,.47.03.71.07.44.06.95.14,1.53.02.52-.14.92-.54,1.07-1.08.16-.55.02-1.14-.36-1.53l-.04-.04c-.54-.5-1.24-.53-1.74-.56-.17,0-.33-.01-.48-.04l-.17-.02c-.39-.04-1.04-.1-1.51.36-.5.41-.68,1.09-.46,1.73.22.64.78,1.07,1.46,1.09Z"/>
        <path class="cls-1" d="M12.02,125.72l.11-.27c.07-.33.08-.67.1-1.01.04-.64.05-1.28.03-1.91-.03-.9-.05-1.74.1-2.59.4-3.24,1.13-6.09,2.25-9.91.09-.29.19-.58.29-.88.27-.77.54-1.56.67-2.51.02-.69-.36-1.19-.64-1.56-.08-.11-.16-.21-.31-.43-.18-.21-.36-.43-.55-.67.09-.43,0-.89-.29-1.27-.27-.36-.64-.58-1.07-.64-.38-.61-.73-1.27-1.03-1.96,0-.03.02-.05.02-.07.05-.51-.15-.99-.53-1.32-.66-2.23-.65-4.73.91-7.18,3.04-6.13,8.82-7.41,17.62-3.93,4.06,2.11,4.76,6.5,4.14,9.55-.54,1.76-1.33,3.05-2.33,4.69l-.65,1.07c-1.08,1.98-4.26,4.63-5.02,5.09-.67.34-.86,1.02-.98,1.46l-.32,1.42c-.78,3.4-1.6,6.92-1.69,10.53.04,1.19.15,2.34.27,3.39.01.1.02.21.03.3.08.42.32.78.67,1.02.35.25.79.33,1.2.25.06-.01.11-.05.17-.07.15-.05.3-.09.44-.18.56-.38.82-1.03.68-1.61-.7-4.23.4-8.89,1.46-13.39l.18-.73c2.5-1.7,4.65-4.02,6.25-6.74.19-.34.39-.68.59-1.02.89-1.52,1.81-3.1,2.21-4.94.32-1.86.31-3.62-.01-5.23.45-.17.83-.5,1.06-.72.11-.1.21-.2.39-.34.25-.23.51-.45.77-.67.5-.43,1.01-.86,1.47-1.36.09,0,.19.01.29.02.98,0,1.83-.35,2.65-.69.39-.16.78-.33,1.23-.46l1.08-.38c3.96-1.39,8.05-2.83,11.92-4.67,9.95-4.63,16.46-13.94,16.58-23.67.1-1.45.08-2.97-.06-4.55l-.05-.31c-.08-.57-.17-1.28-.73-1.82l-.13-.1c-1.22-.78-2.33.13-3.07.73-.25.2-.51.42-.82.58-10.15,7.32-20.75,15.93-32.41,26.33-.51.47-1.02.93-1.54,1.39-1.23,1.11-2.49,2.26-3.68,3.46-1.78-1.07-3.77-1.62-5.46-1.99-3.29-.86-9.44-1.72-13.7,2.16-2.61,2.62-5.64,6.73-5.2,11.32,0,.94.19,1.91.47,2.88-.41.36-.84.73-1.29,1.1-1.81,1.51-3.69,3.08-4.73,5.28l-.08.34c0,1.16.45,2.15.9,3.11.18.39.36.79.5,1.19l.1.19c.41.6.91.76,1.26.79.17.01.33,0,.5-.03.86-.17,1.64-.95,2.33-1.66.26-.26.49-.51.76-.7.31-.28.62-.57.93-.86.78-.74,1.53-1.44,2.41-2.06.04-.03.1-.07.14-.1.18.23.34.45.48.64-1.84,5.91-3.73,12.03-3.12,18.48.04.15.11.29.19.42,0,0,0,0,0,0,0,0,0,0,0,0,.08.12.18.23.3.33.22.18.49.31.8.35.64.09,1.26-.19,1.59-.71ZM71.29,56.82v.42c.36,12.34-7.04,21.1-22.01,26.04-2.42.87-6.91,2.48-8.15,2.92-.11,0-.25-.02-.38-.04-.47-.06-1.18-.16-1.78.36l-.12.12c-.38.51-1.23,1.24-2.05,1.95l-.61.54c-.11.08-.19.15-.28.23-.36-.67-.79-1.3-1.29-1.87-.06-.07-.12-.12-.18-.19,12.59-11.67,24.67-21.66,36.86-30.48ZM9.76,103.71c-1.18.82-2.21,1.8-3.21,2.75-.35.33-.69.66-1.05.98-.11-.26-.2-.5-.25-.69.36-.47,1.02-1.23,1.8-1.99.67-.63,1.37-1.23,2.07-1.83.09-.08.17-.16.27-.23.17.3.35.6.55.9-.05.03-.1.07-.17.1Z"/>
        <path class="cls-1" d="M248.07,65.25c-.03-.1-.07-.21-.1-.31-.15-.48-.32-.97-.51-1.47-.05-.15-.11-.29-.17-.44-.04-.09-.08-.19-.12-.29-.07-.18-.15-.35-.22-.53-.05-.11-.09-.22-.13-.32-.06-.14-.12-.28-.18-.42-.22-.5-.46-.99-.71-1.49,0,0,0,0,0,0-.06-.12-.13-.24-.19-.36,0,0,0,0,0,0-.2-.39-.41-.78-.62-1.17,0,0,0,0,0,0-.1-.17-.19-.35-.29-.52,0,0,0,0,0,0-.21-.37-.43-.74-.65-1.11,0,0,0,0,0,0-.08-.13-.15-.26-.23-.38,0,0,0,0,0-.01-.29-.47-.58-.94-.88-1.4,0,0,0,0,0,0-.1-.15-.2-.3-.3-.45,0,0,0,0,0,0-.22-.34-.45-.67-.67-.99,0,0,0,0,0,0-.02-.03-.04-.06-.07-.09-.08-.12-.16-.23-.24-.35-.31-.44-.62-.87-.93-1.28,0,0,0,0,0,0,0,0,0,0,0-.01,0,0,0,0,0,0-.03-.03-.05-.07-.08-.1-.14-.19-.28-.37-.43-.55-.01-.01-.02-.03-.03-.04-.07-.1-.15-.2-.22-.29-.07-.09-.14-.17-.21-.26-.18-.23-.36-.46-.54-.67-.09-.11-.18-.21-.27-.31,0,0,0,0,0-.01-.03-.04-.06-.07-.09-.1-.12-.14-.25-.29-.37-.43-.03-.04-.07-.07-.1-.11-.08-.09-.16-.17-.24-.26-.05-.06-.1-.11-.15-.16,0,0-.01-.01-.02-.02-.06-.07-.12-.14-.18-.2-.23-.24-.44-.46-.65-.66-.81-5.95-2.44-12.29-8.15-14.89-3.35-1.05-7.25-.01-10.7,2.79-1.25-.99-2.55-1.93-3.82-2.83-1.55-1.1-3.15-2.24-4.57-3.44-2.38-2.4-6.05-4.94-9.28-7.19l-1.15-.8c-1.53-1.1-2.96-2.23-4.5-3.55.43-.84.67-1.59.73-2.33.13-1.09-.74-1.64-1.21-1.93l-.53.62.49-.64c-1.59-1.21-2.28-1.76-3.61-3.1-1.17-1.01-2.3-2.08-3.46-3.18-2.02-1.91-4.11-3.88-6.51-5.67-.12-.09-.25-.21-.39-.32-.67-.58-1.5-1.29-2.49-1.19-.52.05-.98.32-1.32.77-.21.24-.46.47-.72.69-.64.57-1.36,1.22-1.64,2.18l-.03.23c0,.8.5,1.38.87,1.8l.21.25c.94,1,2.04,1.97,3.47,3.05l.94.71c1.09.82,2.22,1.66,3.03,2.39-.06.05-.12.1-.18.15-1.01-.74-2-1.6-2.95-2.42-1.9-1.65-3.87-3.35-6.22-4.39l-.32-.07c-1.11,0-1.7.91-2.09,1.51-.08.12-.16.24-.3.45l-.15.26c-.37.64-1.07,1.82-.11,2.88,2.91,2.76,5.5,4.68,8.2,6.06.02,0,.04.02.07.04-.43.39-.89.76-1.11.91-.06.03-.11.06-.17.09-.63-.61-1.24-1.24-1.83-1.87-1.05-1.12-2.13-2.27-3.45-3.3-.13-.08-.26-.18-.4-.29-.61-.46-1.74-1.32-2.86-.5l-.57.72c-.62.85-1.33,1.81-1.54,3.11,0,.98.62,1.67,1.11,2.22l.2.22s.02.02.03.03l.47.47c1.13,1.13,2.15,2.05,3.17,2.86l.53.41c3.21,2.44,6.53,4.97,10.43,6.29,1.53.63,2.89-.17,3.99-.82.25-.15.5-.3.8-.45.92-.56,1.88-1.16,2.76-1.9,1.44,1.31,3.06,2.74,4.75,4.23,3.42,3.02,7.29,6.44,10.52,9.61,1.99,2.11,4.08,4.08,6.03,5.87-1.44,4.16-1.35,8.83,1.22,12.72,2.29,3.78,8.05,3.47,11.15,3.31.44-.02.83-.04,1.15-.05,1.51,1.4,5.99,6.77,7.23,8.7.37.43.72,1.11,1.05,1.77.12.23.24.47.36.7.18.34.38.65.58.94,0,0,0,0,0,0,.08.11.15.22.23.32.08.1.18.18.27.26.03.03.07.07.1.1.04.04.08.08.12.12,0,0,0,0,0,0l.21.12c.28.1.57.12.84.07.34-.07.66-.25.91-.54.44-.51.53-1.21.22-1.79-.2-.36-.43-.7-.63-1.06-2.73-4.81-6.16-9.17-10.05-12.62l-.19-.13c-.49-.23-1.38-.25-3.1-.08h0c-1.47.07-4.49-.12-5.09-.2-2.85-.45-4.11-4.04-4.26-6.31-.11-5.57,2.04-9.79,6.62-12.95,2.16-1.74,4.43-2.52,6.39-2.22,1.62.25,3.01,1.24,4.13,2.91.7,1.11,1.86,3.52,2.14,5.25.18.65.26,1.34.35,2.07.15,1.16.29,2.37.83,3.47l1.01,1.15c1.2,1.3,2.45,2.65,3.45,4.11,1.06,1.56,3.03,4.59,4.27,7.29.28.53.52,1.09.76,1.65.21.49.44.99.68,1.48.2.41.41.82.66,1.2l.11.13c.38.38.93.51,1.47.39.55-.14.99-.54,1.15-1.06l.07-.23-.07-.23ZM174.93,10.01c.75.56,1.48,1.16,2.21,1.75-.73-.52-1.51-1.16-2.21-1.75ZM170.32,15.3c.05-.09.11-.18.17-.27.08.06.15.12.23.18.63.48,1.47,1.37,2.35,2.32.63.67,1.27,1.36,1.94,2-1.6-1.21-3.53-2.74-4.69-4.22ZM213.1,41.35c-.68-.67-1.37-1.33-2.06-1.97-1.16-1.08-2.35-2.2-3.4-3.38l-.04-.04c-3.37-3.27-7.11-6.58-10.73-9.77-1.94-1.71-3.82-3.37-5.52-4.92l-.23-.15c-1.29-.54-1.9.23-2.23.64-.13.16-.24.31-.47.46-1.16.98-2.52,1.76-4.16,2.6l-.18.08c-.22-.06-.44-.12-.66-.21-2.52-.97-4.49-2.26-6.75-3.92.14.03.28.04.42.03.44.19.93.18,1.35-.05,1.31-.7,2.52-1.64,3.53-2.74.56-.49.87-1.08.86-1.68,0-.19-.04-.42-.14-.66.14,0,.28,0,.43-.01h.1s.09-.05.09-.05c.88-.33,1.56-.93,2.22-1.5.22-.19.43-.37.74-.63.47-.51.55-1.01.53-1.35-.05-.96-.88-1.68-1.55-2.26-.16-.14-.32-.27-.49-.44-.98-.83-1.97-1.58-2.93-2.3-1.31-.98-2.55-1.92-3.55-2.93-.06-.06-.13-.13-.19-.19l.39-.37c.37.3.84.67,1.34,1.06.99.77,2.22,1.74,2.61,2.12,2.23,2.2,4.66,4.4,6.25,5.82,1.16,1.17,2.43,2.26,3.76,3.23-.08.21-.21.46-.43.86l-.04.08c-.32.45-.65,1.33-.28,2.07.06.12.17.25.31.39,0,0,0,.01.01.02,2.93,2.78,6.29,5.09,9.54,7.31.83.57,1.65,1.13,2.38,1.63,3.41,3.17,7.7,6.35,11.94,9.45-1.06,1.08-2,2.32-2.77,3.68Z"/>
      </g>
    </g>
  </g>
</svg>