<?xml version="1.0" encoding="UTF-8"?>
<svg id="_レイヤー_2" data-name="レイヤー 2" xmlns="http://www.w3.org/2000/svg" viewBox="0 0 315.76 427.58">
  <defs>
    <style>
      .cls-1 {
        fill: #000;
      }

      .cls-1, .cls-2, .cls-3 {
        stroke-width: 0px;
      }

      .cls-2 {
        fill: #f15a24;
      }

      .cls-3 {
        fill: #fff;
      }
    </style>
  </defs>
  <g id="_人物" data-name="人物">
    <g>
      <path class="cls-3" d="M313.07,239.84c-3.08-26.34-12.4-51.94-28.75-72.48-8.66-10.43-15.61-22.79-26.58-30.81-7.4-5.92-16.16-9.5-24.58-13.49-4.49-2.09-10.17-4.58-14.96-4.79-.23-.03-.42-.05-.62-.07,0,0,0,0,0,0-.04,0-.07,0-.11,0h0c-.4-.03-.76-.03-1.17.03h0s0,0-.01,0c0,0,0,0,0,0-.21.03-.44.08-.69.14-.21.05-.45.12-.71.2l-.07-.55c.06,0,.11.02.17.02.16,0,.32-.02.48-.05.04,0,.06-.03.1-.04.27-.06.51-.16.73-.3,0,0,0,0,0,0,0,0,0,0,0,0,.21-.14.4-.31.55-.5,0,0,.01-.02.02-.03,0-.01.01-.03.02-.04,0-.02.01-.03.02-.04.12-.17.22-.35.29-.55.08-.25.12-.52.11-.81-.7-7.6-1.72-14.89-2.99-23.63-.21-1.42-.45-2.72-.68-3.97-.6-3.27-1.11-6.09-.94-9.55.09-2.03.18-3.56.45-5.16,1.51-.5,2.8-1.45,4-2.4,3.3-2.7,6.01-6.2,7.86-10.2.7-1.78.38-2.96-.1-3.7,3.52-4.97,2.69-14.1,2.22-19.18v-.06c-.3-2.03-.8-3.94-1.41-5.74-1.08-5.31-2.93-10.98-6.53-15.74-5.54-7.05-11.88-13.82-20.6-15.6-5.45-1.25-10.95-.66-16.28-.08l-.54.06c-5.85.41-11.49,1.95-16.67,4.57-6.25,2.56-12.09,7.02-17.87,13.63-6.21,7.1-9.8,15.04-10.38,22.83-.53,2.75.16,5.82,1.67,8.28-.3.31-.57.64-.78.98-1.11,1.89-.26,4.02.15,5.03,1.77,4.54,5.28,8.6,9.91,11.5-.59,3.94-1.61,7.81-2.58,11.53-1.98,7.13-4.92,12.79-8.26,18.91-1.38,2.42-3.02,4.78-4.6,7.06-.88,1.26-1.75,2.55-2.61,3.86l-1.93,1.81c-2.77-1.09-5.78-1.48-8.78-.91-9.43,1.67-18.84,4.7-27.35,9.29-6.26,4.17-11.91,9.28-17.89,13.87-7.19,5.9-14.73,11.46-20.94,18.51-10.37,11.28-18.48,24.49-26.6,37.55-8.53,14.1-15.92,30.09-16.23,47.04-.06,11.99,2.57,23.88,6.29,35.18,3.04,10.43,8.82,19.48,15.4,27.84-5.98,14.55-9.85,29.88-12.24,45.51-3.97,21.38-2.67,43.41,9.91,61.58,4.61,7.33,12.14,11.81,20.32,13.38,8.19,2.07,16.55,3.22,24.9,4.35,16.87,1.95,33.87,5.2,50.84,2.86,5.52-.69,11.01-1.7,16.5-2.61.45-.05,1-.12,1.69-.2,11.11-1.2,22.29-1.52,33.39-2.88,12.28-1.16,24.62-1.16,36.92-1.8,9.78-.57,19.92-1.47,28.61-6.57,9.9-5.62,11.96-16.62,13.66-27.27,4.59-30.42,4.11-40.55,9.05-67.68,2.83-1,5.63-2.1,8.4-3.31,8.91-3.66,17.72-7.28,24.97-14.04,8.36-6.05,13.72-15.46,16.01-25.7,2.73-11.53-.18-23.35-1.56-34.88Z"/>
      <g>
        <path class="cls-2" d="M124.6,162.02s.08-.01.12-.02c0-.03,0-.05-.01-.08-.04.03-.07.07-.11.1Z"/>
        <path class="cls-2" d="M303.07,239.84c-3.08-26.34-12.4-51.94-28.75-72.48-8.66-10.43-15.61-22.79-26.58-30.81-7.4-5.92-16.16-9.5-24.58-13.49-4.49-2.09-10.17-4.58-14.96-4.79-.23-.03-.42-.05-.62-.07,0,0,0,0,0,0-.04,0-.07,0-.11,0h0c-.4-.03-.76-.03-1.17.03h0s0,0-.01,0c0,0,0,0,0,0-.21.03-.44.08-.69.14-.41.1-.9.25-1.52.46-5.47,2.22-10.09,6.15-14.73,9.91.24.99.46,1.96.74,2.98.45,1.43.99,2.88,1.53,4.33.92,2.48,1.88,5.04,2.45,7.71.14.93.23,1.81.33,2.73.31,2.81.63,5.71,1.77,8.78.94,2.06,2.46,4.54,4.06,7.18,1.97,3.22,4,6.56,5.39,9.8l.04.11c.07.22.34.6.58.94.51.72,1.44,2.06.91,3.3.4.08.8.24,1.17.61.69.7.77,1.5.54,2.2,5.1,8.13,8.83,17.23,13.27,25.78,3.66,6.94,8.78,12.93,13.03,19.49,5.85,9.79,10.35,17.72,18.6,24.78.41.64,2.11.95,3.03,2.89.46,1.49-.96,3.17-2.5,2.85-10.16-5.96-16.29-17.15-22.32-26.97-4.11-6.79-9.42-12.78-13.24-19.75-4.49-8.78-8.61-17.75-13.38-26.39-.35-.55-.39-1.12-.24-1.64-.79-.79-.84-1.75-.47-2.51-.19-.04-.37-.09-.55-.17-.42.29-.91.54-1.49.73-3.66,1.63-10.48,4.52-16.37,5.02-.16,0-.31-.03-.46-.06-.13.02-.24.08-.39.08-1.54,0-2.27-1.22-2.21-2.4-.22-.49-.32-1-.39-1.43-.04-.26-.08-.51-.15-.74-.59-2.99-1.27-6.52-1.52-9.97,0-.19-.01-.37-.02-.55-.56-.7-1.35-1.65-2.2-2.68-1.27-1.53-2.67-3.24-3.73-4.57-1.29-1.6-2.81-3.11-4.28-4.57-1.78-1.76-3.62-3.59-5.15-5.67-.41-.71-.74-1.44-1.01-2.16-.23.63-.45,1.26-.71,1.89-1.34,2.86-4.1,4.5-6.52,5.96-.46.27-.91.54-1.34.82-3.91,1.96-8.01,3.87-12.22,5.27-1.41,2.88-2.9,5.83-4.39,8.78-.22.34-.32.61-.43.87-.32.75-.76,1.78-1.86,2.22-.26.07-.51.11-.75.11-.04,0-.07-.01-.11-.01-3.87,1.03-14.02-5.98-16.57-9.88-.06-.03-.12-.07-.18-.1-.28.12-.6.19-.97.2-.05,0-.08-.02-.12-.02-.1.19-.19.38-.37.56-7.99,8.06-15.65,16.5-24.23,23.95-7.91,6.03-11.69,8.92-19.71,15.25-7.12,5.2-15.05,10.29-20.36,15.14-2.52,3.18-6.59-.73-3.33-3.14,6.59-5.89,14.14-10.62,21.26-15.84,5.67-4.38,11.39-9.09,18.37-14.15,6.62-5.53,17.2-16.69,24.77-24.43.55-.55,1.18-.72,1.76-.66.06-.12.12-.23.19-.33v-.2s.21-.28.21-.28c4.02-5.52,9.84-11.11,14.98-16.03l2.29-2.2c.16-.16.33-.29.52-.4.41-1.62,1.03-3.18,1.66-4.7.43-1.05.87-2.11,1.22-3.17,0-.03.02-.05.03-.07-.3-.58-.62-1.15-.9-1.75-.45-1.31-.85-2.64-1.12-4-.86-5.56-3.02-11.19-7.99-14.02-1.63-1.02-3.32-1.64-5.01-1.94-.1.13-.19.27-.29.4-.32.62-1.03,1.01-1.82,1.01-.27,0-.55-.05-.83-.14-1.09-.38-1.7-1.41-1.49-2.5l.09-.24c-2.94-1.29-6.18-1.78-9.41-1.16-9.43,1.67-18.84,4.7-27.35,9.29-6.26,4.17-11.91,9.28-17.89,13.87-7.19,5.9-14.73,11.46-20.94,18.51-10.37,11.28-18.48,24.49-26.6,37.55C7.71,203.12.32,219.11,0,236.06c-.06,11.99,2.57,23.88,6.29,35.18,3.04,10.43,8.82,19.48,15.4,27.84-5.98,14.55-9.85,29.88-12.24,45.51-3.98,21.38-2.67,43.41,9.91,61.58,4.61,7.33,12.14,11.81,20.32,13.38,8.19,2.07,16.55,3.22,24.9,4.35,16.87,1.95,33.87,5.2,50.84,2.86,5.52-.69,11.01-1.7,16.5-2.61.45-.05,1-.12,1.69-.2,11.11-1.2,22.29-1.52,33.39-2.88,12.28-1.16,24.62-1.16,36.92-1.8,9.78-.57,19.92-1.47,28.61-6.57,9.9-5.62,11.96-16.62,13.66-27.27,4.59-30.42,4.11-40.55,9.05-67.68,2.83-1,5.63-2.1,8.4-3.31,8.91-3.66,17.72-7.28,24.97-14.04,8.36-6.05,13.72-15.46,16.01-25.7,2.73-11.53-.18-23.35-1.56-34.88ZM143.34,202.2c-1.73,10.72-5.41,21.03-10.35,30.67-2.84,6.01-5.6,12.1-9.41,17.57-5.61,8.59-10.97,17.41-18.3,24.67-6.81,7.41-15.32,13.03-23.91,18.16-10.59,6.32-22.53,10.1-34.79,11.35-7.13.66-14.54.63-21.06-2.7-1.73-.92-1.33-3.73.54-4.17.59-.17,1.23-.07,1.76.23,1.72.82,1.84.67,4.23,1.55,4.13,1.25,9.64.91,15.35.42,16.51-1.2,36.36-11.78,49.11-22.66,9.38-8.36,14.98-16.31,21.4-26.56,4.44-6.22,7.88-13.03,11.04-19.97,4.82-9.45,8.28-19.01,10.12-30.62.25-2.1.81-14.06-.07-16.42-.65-2.1-.3-1.4-1.31-3.13-.49-.9-1.39-1.68-1.38-2.77.01-1.1.85-2.15,1.98-2.24,1.9-.33,2.71,1.81,3.58,3.11,1.74,2.98,2.09,6.5,2.17,9.88-.02,4.54-.03,9.12-.71,13.62ZM237.1,321.25c-8.81-1.41-17.1-5.59-24.61-10.28-6.14-4.7-11-10.89-16.18-16.59-7.01-9.35-10.26-20.94-13.21-32.09-2.95-12.78-3.35-25.89-2.7-38.94.48-12.25,1.02-24.51,2.38-36.71.4-3.83,5.54-2.36,4.45,1.09-1.32,12.18-1.82,24.42-2.3,36.66-1.46,23.46,2.94,49.82,14.91,67.15,4.46,4.98,11.07,12.57,14.76,15.36,7.97,4.96,14.3,8.19,22.96,9.84,1.51.39,8.5.23,10.27-.35,2.02-.58,1.38-.25,2.77-1.01,1.32-.82,3.28.09,3.39,1.67.48,4.81-13.52,4.77-16.9,4.2Z"/>
        <path class="cls-1" d="M181.05,89.12l-.27-.38c-1.32-1.86-3.14-4.4-6.09-4.15-2.89.15-5.42,2.03-7.11,5.28-.84,1.55-1.51,3.09-2.1,4.61-1.29-3.56-3.27-7.08-6.06-8.49-1.92-.97-3.98-.89-6.13.24l-.21.14c-1.57,1.35-2.27,3.27-2.89,4.96l-.24.66c-1.32,3.81-2.17,7.77-2.99,11.59-.48,2.25-.98,4.57-1.56,6.81-1.92,7.2-4.33,14.73-7.61,23.73,0,.03-.02.05-.03.07-.35,1.07-.79,2.12-1.22,3.17-.63,1.52-1.25,3.08-1.66,4.7-.19.1-.37.24-.52.4l-2.29,2.2c-5.14,4.93-10.96,10.51-14.98,16.03l-.21.28v.2s-.01.15-.01.15c-.03.93.53,1.76,1.42,2.13.29.12.6.18.9.18.6,0,1.19-.24,1.62-.71,0,0,.01-.01.02-.02,5.77-6.4,10.32-11.14,14.82-15.47.18-.22.47-.44.77-.68.66-.52,1.43-1.18,1.73-2.3.53-.3.92-.77,1.03-1.24.94-2.42,1.91-4.96,2.89-7.59,3.07-8.29,6.17-17.49,8.47-27.04.41-1.65.79-3.45,1.18-5.29,1.05-4.98,2.23-10.62,4.3-13.42.14-.04.41-.07.8.05.44.12,1.95.7,3.04,3.11,4.06,8.07,3.89,18.91,3.72,29.39-.04,2.21-.07,4.4-.06,6.48-.24,4.68-.69,9.79-1.89,14.48-.54,2.1-1.21,4.13-2.1,5.99-3.86,4.09-12.1,7.16-18.55,9.57-1.35.24-2.4,1.17-2.55,2.26-.07.53.08,1.03.39,1.47-1.37,2.75-2.74,5.49-4.13,8.23-.59.8-.62,1.89-.07,2.74.39.61,1.02.96,1.75.99.04,0,.07.01.11.01.24,0,.49-.03.75-.11,1.11-.44,1.54-1.47,1.86-2.22.11-.26.22-.53.43-.87,1.5-2.95,2.98-5.9,4.39-8.78,4.21-1.4,8.31-3.3,12.22-5.27.43-.27.88-.54,1.34-.82,2.43-1.45,5.18-3.1,6.52-5.96.26-.62.48-1.26.71-1.89.27.73.6,1.45,1.01,2.16,1.54,2.08,3.38,3.9,5.15,5.67,1.47,1.46,2.99,2.97,4.28,4.57,1.05,1.33,2.46,3.04,3.73,4.57.85,1.03,1.64,1.98,2.2,2.68,0,.18,0,.36.02.55.25,3.45.93,6.98,1.52,9.97.08.23.11.48.15.74.07.43.17.93.39,1.43.19.41.46.81.91,1.14.36.22.76.33,1.16.33.49,0,.99-.16,1.41-.49.5-.38.78-.92.86-1.5.04-.29.04-.59-.04-.89-.8-3.41-1.44-7.14-1.76-10.29-.04-.26-.03-.53-.04-.8,0-.85,0-2.02-.84-2.83l-.93-1.14c-3.62-4.44-7.36-9.04-11.61-13.17-3.58-3.15-4.23-5.64-4.25-11.13-.01-.19.02-.39.04-.59.05-.5.12-1.12-.11-1.76-.07-.19-.16-.37-.27-.53-.08-.11-.18-.21-.28-.3.5-4.06.68-8.14.78-12.13.04-6.57.04-13.91-.74-21.25.19-.25.34-.53.42-.87,1.15-6.57,4.01-13.63,7.01-13.78h.02c1.11,0,3.67,4.08,5.01,8.73,1.2,4.13,1.47,7.9,1.78,12.27.11,1.5.22,3.04.38,4.74l.2,1.24c.51,3.21,1.05,6.48,1.71,9.73.54,2.63,1.15,5.25,1.95,7.82.32.93.72,2.02,1.13,3.16,1.05,2.9,2.24,6.18,2.54,7.7.08.62.15,1.29.23,1.98.39,3.55.87,7.97,2.71,11.82,1.08,2.05,2.32,4.04,3.52,5.96,1.59,2.56,3.24,5.21,4.52,8.03l.53,1.05c.68,1.36,1.38,2.77,2.53,4.09.14.12.3.2.47.28.17.09.35.14.55.17.13.02.26.07.4.07.43,0,.88-.12,1.31-.38.43-.32.67-.67.82-1.02.53-1.25-.39-2.58-.91-3.3-.24-.34-.51-.72-.58-.94l-.04-.11c-1.39-3.24-3.43-6.57-5.39-9.8-1.61-2.63-3.12-5.12-4.06-7.18-1.14-3.07-1.46-5.97-1.77-8.78-.1-.91-.2-1.8-.33-2.73-.57-2.67-1.53-5.23-2.45-7.71-.54-1.45-1.08-2.91-1.53-4.33-.27-1.02-.49-1.99-.74-2.98-1.66-6.72-2.7-12.78-3.04-17.97-.41-6.97-1.19-14.96-5.26-21.65Z"/>
        <path class="cls-1" d="M119.82,113.69c.28.1.56.14.83.14.79,0,1.5-.39,1.82-1.01.1-.13.19-.27.29-.4,10.02-13.5,16.15-26.44,18.68-39.52.47-1.96.75-3.97,1.02-5.91l.06-.42c.06-.98-.53-1.93-1.52-2.42-4.63-2.69-7.91-6.52-9.18-10.63l-.02-.14c1.19.72,2.47,1.1,3.77,1.1.68,0,1.36-.14,2.04-.34.13.05.24.09.4.14l.27.05c1.2.07,1.78-.49,2.04-.84.2-.27.31-.57.38-.88.72-.58,1.35-1.29,1.82-2.13.13-.18.28-.33.4-.53.79-1.37,4.09-4.49,7.59-7.8,4.82-4.57,10.75-10.18,14.32-15l.87.62c.75.53,1.5,1.06,2.25,1.61,3.66,2.59,4.91,3.64,6.63,5.1,1.26,1.06,2.75,2.32,5.6,4.53,2.52,1.82,4.39,3.08,5.96,4.13,2.85,1.92,4.57,3.07,7.36,5.67,1.35,1.27,2.61,2.68,3.83,4.05,1.63,1.82,3.31,3.7,5.2,5.29.39.37.77.68,1.15.96.04.04.07.09.12.13l.19.14c.27.16.51.28.74.36.77.37,1.58.58,2.51.65.3.02.6.03.89.03.72,0,1.38-.09,2.02-.23-2.18,4.15-6.6,8.81-9.7,9.14l-.28.07c-1,.38-1.28,1.5-1.32,2.13-.41,1.66-.53,3.36-.63,5l-.05.75c-.26,5.36.7,10.66,1.62,15.8.59,3.26,1.14,6.33,1.37,9.34.64,4.66,1.18,9.43,1.68,13.91l.06.26c.32.89,1.14,1.43,2.07,1.43.16,0,.32-.02.48-.05.04,0,.06-.03.1-.04.27-.06.51-.16.73-.3,0,0,0,0,0,0,0,0,0,0,0,0,.21-.14.4-.31.55-.5,0,0,.01-.02.02-.03,0-.01.01-.03.02-.04,0-.02.01-.03.02-.04.12-.17.22-.35.29-.55.08-.25.12-.52.11-.81-.7-7.6-1.72-14.89-2.99-23.63-.21-1.42-.45-2.72-.68-3.97-.6-3.27-1.11-6.09-.94-9.55.09-2.03.18-3.56.45-5.16,1.51-.5,2.8-1.45,4-2.4,3.3-2.7,6.01-6.2,7.86-10.2.7-1.78.38-2.96-.1-3.7,3.52-4.97,2.69-14.1,2.22-19.18v-.06c-.3-2.03-.8-3.94-1.41-5.74-1.08-5.31-2.93-10.98-6.53-15.74-5.54-7.05-11.88-13.82-20.61-15.6-5.45-1.25-10.95-.66-16.28-.08l-.54.06c-5.85.41-11.49,1.95-16.67,4.57-6.25,2.56-12.09,7.02-17.87,13.63-6.21,7.1-9.8,15.04-10.38,22.83-.53,2.75.16,5.82,1.67,8.28-.3.31-.57.64-.78.98-1.11,1.89-.26,4.02.15,5.03,1.77,4.54,5.28,8.6,9.91,11.5-.6,3.94-1.61,7.81-2.58,11.53-1.98,7.13-4.92,12.79-8.26,18.91-1.38,2.42-3.02,4.78-4.6,7.06-1.3,1.87-2.65,3.81-3.85,5.78l-.05.14-.09.24c-.21,1.09.41,2.11,1.49,2.5Z"/>
        <path class="cls-1" d="M160.76,51.86c.59-.38,1.32-.86,1.59-1.58.21-.72-.4-1.4-1.48-1.65-1.05-.24-2.15,0-2.7.61-.62.53-1.62,1.19-2.75,1.62-.08-.1-.18-.22-.25-.33-.3-.39-.67-.87-1.33-1.38-.84-.48-2.03-.47-2.91.03-.88.5-1.08,1.3-.5,1.9.15.17.29.36.45.55.79,1.02,1.87,2.41,4.38,2.43,2.12-.15,3.72-1.09,5.08-1.91.13-.1.28-.19.43-.29ZM155.02,51.72h0s.06-.06.06-.06v.02s-.06.04-.06.04Z"/>
        <path class="cls-1" d="M182.95,51.48c-.15-.22-.39-.42-.69-.57-.58-.3-1.33-.4-2.01-.27l-.16.04c-.68.21-1.21.53-1.68.81-.23.14-.46.28-.84.47l-.22.12c-.21.1-.51.22-.76.32l-.2-.09c-.43-.18-1.97-1.3-2.39-1.76-.1-.08-.2-.21-.31-.35-.31-.4-.74-.94-1.74-1.16-.9-.18-1.85.03-2.44.54-.59.51-.65,1.18-.18,1.66,1.23,1.47,2.71,2.65,4.35,3.48.95.53,2,.79,2.99.79.64,0,1.25-.11,1.78-.34,1.21-.41,2.2-.98,3.17-1.53l.35-.19c.46-.25,1.24-.66,1.19-1.34,0-.15-.02-.29-.09-.43l.96-.37-1.08.17Z"/>
        <path class="cls-1" d="M163.45,58.95c-.04.46.24.84.71.95.1.01.21.04.32.07.19.04.42.1.66.1.26,0,.54-.06.8-.27.28-.29.34-.69.15-1.03-.19-.36-.6-.56-1-.51-.06,0-.11-.01-.19-.03-.06-.01-.12-.03-.21-.05-.09-.03-.19-.05-.3-.05h0s-.06,0-.09.01c-.02,0-.04,0-.07,0-.43.03-.76.37-.79.82Z"/>
        <path class="cls-1" d="M170.79,66.22c-.89-.21-2-.01-2.76.46-.39.18-.78.37-1.16.57-.29.14-.57.28-.86.42-.68-.28-1.39-.54-2.09-.8l-.45-.15c-1.32-.76-2.91-.53-3.69.12-.7.58-.75,1.54.5,2.25l.92.35c1.28.45,2.48.88,3.68,1.43.35.14.74.21,1.15.21.49,0,1-.1,1.48-.3.63-.26,1.21-.56,1.8-.86.44-.23.88-.45,1.35-.66.57-.24,1.91-.81,1.58-1.8-.12-.61-.65-1.07-1.44-1.25Z"/>
      </g>
    </g>
  </g>
</svg>