<?xml version="1.0" encoding="UTF-8"?>
<svg id="_レイヤー_2" data-name="レイヤー 2" xmlns="http://www.w3.org/2000/svg" viewBox="0 0 339.89 349.25">
  <defs>
    <style>
      .cls-1 {
        fill: #000;
      }

      .cls-1, .cls-2, .cls-3 {
        stroke-width: 0px;
      }

      .cls-2 {
        fill: #f15a24;
      }

      .cls-3 {
        fill: #fff;
      }
    </style>
  </defs>
  <g id="_人物" data-name="人物">
    <g>
      <path class="cls-3" d="M329.49,216.73c-2.89-8-5.93-15.95-9.71-23.58-4.12-9.28-9.72-17.68-16.31-25.38-5.61-8.86-13.79-15.39-22.56-20.94-6.16-3.95-12.23-8.31-19.2-10.72-1.8-.71-3.65-1.25-5.51-1.69-.2-.28-.44-.5-.64-.64-.09-.06-.18-.12-.3-.24-1.67-1.46-1.98-2.01-2.81-4.16-1.86-4.98-3.38-9.57-3.12-15.39v-.24c.04-1.27.06-1.84.3-3.29.08-.42-.02-.87-.25-1.2-.08-.13-.19-.22-.31-.32l2.67-7.49c.37.35.82.44,1.24.41.4-.03.77-.16,1.02-.25.81-.27,1.61-.64,2.51-1.14,1.72-1.14,3.21-3.66,3.91-6.53,2.61,7.66,5.95,13.68,10.21,18.39,1.56,1.64,3.27,3.36,5.2,4.8.66.6,1.32,1.19,2,1.73.09.08.19.16.28.24,1.91,2.31,4.17,4.14,6.18,5.48.5.47,1.02.9,1.53,1.24l.78.75.14-.22c.82.4,1.6.56,2.32.5,1.08-.09,2.03-.69,2.8-1.78,1.15-1.56.83-3.95-.69-5.25l-.28-.31c-.41-.44-.64-.68-1.85-2.25-2.69-3.64-2.86-4.1-4.5-8.48-.5-1.63-1.38-10.32-1.14-15.03.09-1.06.16-2.39.21-3.87.49-1.77.92-3.6,1.2-5.54,2.25-12.11-.72-23.2-7.95-29.68-6.72-5.7-15.89-8.53-22.47-9.92-5.05-.68-10.56.28-15.89,2.69-1.18-.59-2.42-1.1-3.72-1.47-2.73-.76-5.58-.92-8.34-1.07l-1.49-.08c-6.58.14-18.78,1.7-26.7,10.57-3.06,3.19-7.13,8.1-7.17,13.92.25,2.82,1.6,5.18,3.83,6.63.21.14.43.23.65.35.27.15.56.26.84.38l.39,10.17c-.19-.43-.45-.83-.75-1.21-.26-.33-.55-.64-.86-.92,0,0-.02-.01-.02-.02,0,0-.01-.01-.02-.02,0,0,0,0,0,0-.31-.27-.64-.52-.98-.73,0,0,0,0,0,0,0,0-.01,0-.02-.01-.33-.2-.67-.36-1.01-.49-.07-.02-.13-.05-.2-.07h0s0,0,0,0c-.34-.11-.69-.2-1.03-.24-1.42-.14-2.67.45-3.48,1.64-2.04,2.6-2.49,6.1-1.4,10.61.28,2.6,2.21,5.25,5.27,5.05.13-.02.29-.01.45-.01.18,0,.39,0,.61-.02.14-.01.29-.04.44-.07h0c.14-.03.28-.08.41-.14,0,0,0,0,0,0,0,0,0,0,0,0,0,0,0,0,0,0,0,0,0,0,0,0t0,0s.05-.03.08-.05l6.13,12.78c-.24.07-.46.19-.64.36-.15.14-.28.29-.36.49-.28.62-.08,1.19.05,1.57.04.11.08.22.11.39,1.25,5.21-1.97,13.08-5.74,18.63-.23.42-.73.93-1.21,1.42-.78.8-1.58,1.63-1.77,2.53l-.02.2c0,.11.03.22.06.32,0,0,0,.01,0,.02,0,0,0,0,0,0,0,.01,0,.02,0,.04.02.06.05.11.07.16,0,.02.02.04.03.05.02.03.03.06.04.09-.93.29-1.85.6-2.76.94-.57.13-.56.13-.26.08-1.17.32-2.24.78-3.29,1.59-.82.61-1.26,1.02-1.63,1.4-13.05,8.52-23.44,20.51-36.67,28.76-4.48,2.33-8.85,4.83-13.2,7.38-2.31-.02-4.11-.09-5.16-.19-19.78-2.02-26-4.42-39.23-15.76-.28-.27-.55-.57-.82-.85-4.84-5.63-8.81-11.94-13.37-17.81-.76-.96-1.47-1.96-2.19-2.94-2.41-6.27-5.09-12.45-6.74-18.97-.53-2.88-1-5.77-1.42-8.66-.25-3.79-.43-7.58-.33-11.38,0-3.58.7-7.41-1.25-10.63-2.16-4.44-6.19-6.41-10.26-6.42-1.73-.89-3.53-1.54-5.39-1.96.03-.43.07-.89.12-1.34.11-1.22.26-2.5.47-3.82.03-.18.05-.35.08-.53.13-.79.28-1.59.47-2.39.54.38,1.12.76,1.75,1.1,1.44.75,2.98,1.3,4.65,1.63,4.09.42,8.61-.02,14.29-1.37,1.68-.49,3.21-1.29,4.69-2.07l.52-.27c1.46-.78,3.05-1.76,3.41-3.6.18-.88.19-1.81.04-2.71,1.82-.84,3.64-1.75,5.39-2.64l1.35-.68c.62-.34,1.27-.64,1.92-.94,1.31-.6,2.67-1.23,3.88-2.28,1.79-1.94,3.26-4.36,4.77-7.83,2.27-5.04,2.34-11.98.16-16.86-1.5-3.36-3.96-5.68-7.12-6.69h-.04c-10.96-2.83-23.13.02-33.95,7.83.91-1.29,1.91-2.51,3.04-3.74,4.01-4.53,8.74-8.23,13.75-12.14,1.45-1.13,2.91-2.27,4.35-3.43,3.26-2.51,7.03-5.58,10.19-9.3l.17-.19c1.71-1.96,4.06-4.64,3.1-7.77-.17-.65-.53-1.15-1.06-1.44-1.11-.62-2.59-.16-3.57.14-3.34,1-6.61,2.42-9.74,4.2-1.13.63-2.23,1.27-3.3,1.91.01-.17.04-.33.03-.5-.05-1.19-.63-2.25-1.62-2.98-1.18-.87-2.81-1.17-4.25-.79h-.04c-4.2,1.34-7.47,4.47-10.35,8.05-.36-.14-.76-.16-1.13,0h-.03c-3.38,1.56-5.96,3.36-7.87,5.49-2.24,2.56-3.52,5.72-4.79,8.85-2.01,5.43-3.6,11.58-4.86,18.74-.17.65-.14,1.23.03,1.69-2.44,4.28-4.64,8.7-6.3,13.35-2.42,6.5-3.57,13.42-4.68,20.11-.21,1.25-.41,2.49-.63,3.76-.21,1.44-.47,2.88-.72,4.31-.09.49-.17.99-.26,1.48-5.06.73-9.74,4.46-10.46,10.17-1.96,2.2-3.12,5.18-2.82,8.77,2.65,21.18,7.89,41.9,13.74,62.39,2.05,6.58,3.98,13.23,6.91,19.48,5.1,9.98,10.75,19.77,17.3,28.89.98,1.3,2.01,2.57,3.05,3.81,8.1,13.26,18.75,24.73,33.92,29.67,6.37,2.44,13.02,3.65,19.83,3.63,9.53.7,19.14-1.46,27.8-5.41,4.1-2.08,8.12-4.3,12.1-6.6,2.35,31.59,7.09,63.03,12.17,94.3.55,6.75,6.23,12.75,13.29,11.99,5.1-.34,10.22-.48,15.33-.69,14.59-.75,29.23-.73,43.8-1.83,13.53-1.43,26.92-3.86,40.34-6.08,7.06-1.38,14.52-1.6,21.13-4.64,5.7-2.98,12.16-6.84,14.27-13.26,1.12-2.79.75-5.85.98-8.79.13-3.65.28-7.3.37-10.96-.42.05-.86.03-1.26.07-2.54.11-5.1,0-7.62-.32-6.84-.83-12.59-4.93-18.58-7.99-8.7-4.29-16.26-10.32-23.85-16.27-3.6-2.93-7.8-5.19-10.7-8.88-.67-.9-1.78-1.78-1.61-3,.25-1.16.59-2.62,1-4.23.34.06.71.17,1.29.43l.24.07c.1.01.2.01.3,0,.5-.04.95-.33,1.22-.8.32-.56.29-1.25-.16-1.84-.53-.51-1.26-.86-2.07-1.01-.15-.03-.3-.06-.45-.07-1.98-.06-3.4-.31-5.68-1.53-2.31-1.37-3.94-2.45-5.99-4.29-1.44-1.49-2.92-3.03-4.69-4.23-.46-.32-.93-.59-1.41-.84-.04-.1-.08-.19-.14-.28-.34-.5-.94-.79-1.53-.74-.14.02-.26.05-.38.09-.42-.17-.83-.32-1.25-.48-1.19-.45-2.31-.87-3.4-1.47-.55-.26-.87-.55-.87-.78,0-.27.26-1.29,4.03-3.38,1.48-.77,3.79-1.57,6.03-2.34.55-.19,1.09-.37,1.62-.56.15-.03.3-.08.43-.15.49-.17.98-.35,1.43-.52,4.88-1.72,8.58-2.07,10.2-.97.69.87,1.06,2.71,1.45,4.65.31,1.56.63,3.18,1.16,4.62.5,1.67,1.17,3.24,2,4.75.04.08.07.16.12.23.39.55,1.1.81,1.61.65.53-.08.98-.44,1.19-.96.21-.51.15-1.08-.15-1.51-.46-.81-.87-1.74-1.23-2.73,1.06-2.31,2.4-2.7,5.64-.59,10.41,5.23,21.39,7.37,33.37,10.09,5.56.41,11.08,1.11,16.62,1.72.04,0,.07,0,.07,0,0,0,0,0,.01,0,.06,0,.07,0,.09,0,.41-.03.84.08,1.16.35,1.1.88.47,2.76-.93,2.84-2.74-.09-5.45-.58-8.18-.88-3.15-.42-6.32-.54-9.48-.89-5.81-1.09-11.51-2.67-17.22-4.19-6.34-1.59-12.5-3.82-18.28-6.88-2.33,5.68-3.86,11.9-5.51,18.59,2.25,3.2,5.36,5.14,9.06,7.93,4.41,3.31,11.13,8.64,14.33,10.97,5.63,3.78,11.7,6.8,17.64,10.05,6.64,3.85,11.76,4.77,19.09,4.28,1.09-.12,1.86.95,1.69,1.92,14.09-3.68,27.77-11.8,31.44-26.49,1.73-12.67-.48-25.61-3.33-37.98-1.51-7.01-3.97-13.73-6.46-20.44ZM252.32,62.36c1.33,1.24,1.61,1.5,3.12,3.88.05.12.15.36.35.79.67,1.52,1.11,3.17,1.53,4.79-.31,4.36-.08,8.82.72,13.25-.7-.36-1.5-.49-2.33-.22-1.36.33-2.62,1.16-3.86,2.57l.43-6.08c.84-.46,1.54-1.11,2.01-1.92,1.31-1.95,1.22-4.36,1.14-6.57-.13-3.75-1.26-7.26-3.09-10.17,0-.12-.04-.23-.06-.35l.03.03Z"/>
      <g>
        <path class="cls-2" d="M329.28,275.15c1.73-12.67-.48-25.61-3.33-37.98-1.51-7.01-3.97-13.73-6.46-20.44-2.89-8-5.93-15.95-9.71-23.58-4.12-9.28-9.72-17.68-16.31-25.38-5.61-8.86-13.79-15.39-22.56-20.94-6.16-3.95-12.23-8.31-19.2-10.72-1.8-.71-3.65-1.25-5.51-1.69.07.1.16.18.21.31h0c.27.69.03,1.45-.6,1.88-.25.17-.53.27-.81.3-.41.03-.83-.1-1.16-.39-.98-.69-1.98-1.68-2.91-2.86-.05-.08-.09-.16-.13-.23-3.24-.46-6.51-.73-9.76-1-9.46-.92-18.85.87-28.13,2.46-6,1.15-12.15,1.82-18.1,3.26-.39.46-.81.9-1.24,1.34-.22.29-.59.47-1,.51-.21.02-.44,0-.66-.08-.4-.13-.7-.4-.9-.73-.93.29-1.85.6-2.76.94-.57.13-.56.13-.26.08-1.17.32-2.24.78-3.29,1.59-.82.61-1.26,1.02-1.63,1.4-13.05,8.52-23.44,20.51-36.67,28.76-4.48,2.33-8.85,4.83-13.2,7.38-2.31-.02-4.11-.09-5.16-.19-19.78-2.02-26-4.42-39.23-15.76-.28-.27-.55-.57-.82-.85-4.84-5.63-8.81-11.94-13.37-17.81-.76-.96-1.47-1.96-2.19-2.94-2.41-6.27-5.09-12.45-6.74-18.97-.53-2.88-1-5.77-1.42-8.66-.25-3.79-.43-7.58-.33-11.38,0-3.58.7-7.41-1.25-10.63-2.16-4.44-6.19-6.41-10.26-6.42-1.73-.89-3.53-1.54-5.39-1.96-.04.54-.08,1.09-.11,1.59l-.05.24s.03.05.03.15c.02.46.05,1.17-.3,1.84-.42.55-.97.76-1.53.7-.56-.07-1.02-.4-1.24-.89l-.06-.13v-.14c-.1-1.27-.06-2.56.04-3.85-5.69-.53-11.63.76-16.94,3.23-.34,2.06-.68,4.13-1.06,6.2-.12.71-.7,1.23-1.43,1.29-.04,0-.08,0-.13,0-.79,0-1.45-.51-1.59-1.27l-.02-.12v-.12c.19-1.46.43-2.93.69-4.38-5.06.73-9.74,4.46-10.46,10.17-1.96,2.2-3.12,5.18-2.82,8.77,2.65,21.18,7.89,41.9,13.74,62.39,2.05,6.58,3.98,13.23,6.91,19.48,5.1,9.98,10.75,19.77,17.3,28.89.98,1.3,2.01,2.57,3.05,3.81,8.1,13.26,18.75,24.73,33.92,29.67,6.37,2.44,13.02,3.65,19.83,3.63,9.53.7,19.14-1.46,27.8-5.41,4.1-2.08,8.12-4.3,12.1-6.6,2.35,31.59,7.09,63.03,12.17,94.3.55,6.75,6.23,12.75,13.29,11.99,5.1-.34,10.22-.48,15.33-.69,14.59-.75,29.23-.73,43.8-1.83,13.53-1.43,26.92-3.86,40.34-6.08,7.06-1.38,14.52-1.6,21.13-4.64,5.7-2.98,12.16-6.84,14.27-13.26,1.12-2.79.75-5.85.98-8.79.13-3.65.28-7.3.37-10.96-.42.05-.86.03-1.26.07-2.54.11-5.1,0-7.62-.32-6.84-.83-12.59-4.93-18.58-7.99-8.7-4.29-16.26-10.32-23.85-16.27-3.6-2.93-7.8-5.19-10.7-8.88-.67-.9-1.78-1.78-1.61-3,.25-1.16.59-2.62,1-4.23-.25-.04-.48-.06-.75-.07-.5-.02-1.11-.05-2.1-.26-3.91-1.04-7.12-3.44-10.09-5.82-.41-.39-.75-.74-1.09-1.09-1.31-1.33-2.55-2.59-4.04-3.56-.06-.04-.15-.09-.22-.13-.5,1.15-.99,2.31-1.46,3.45-.79,1.92-1.62,3.91-2.53,5.84-2.39,5.18-4.03,10.09-5.77,15.28-.36,1.07-.72,2.15-1.09,3.22-.25.81-.92,1.41-1.66,1.47,0,0,0,0,0,0-.64.05-1.22-.31-1.55-.97l-.14-.28.08-.3c2.52-9.16,7.1-19.66,11.14-28.93l.05-.11c-.18-.07-.35-.14-.54-.21-.63-.24-1.27-.49-1.89-.75-.57,1.6-1.19,3.15-1.82,4.63-.59,1.4-1.2,2.85-1.73,4.28-1.11,2.95-2.19,6.6-3.24,10.13-.94,3.17-1.83,6.16-2.74,8.72-.04.1-.06.2-.08.29-.09.35-.22.89-.72,1.24-.22.17-.5.27-.78.29-.26.02-.52-.02-.77-.12-.52-.22-.88-.66-.96-1.19l-.02-.17.04-.16c.9-3.25,1.89-6.43,2.95-9.8.67-2.13,1.34-4.29,2.01-6.53.83-2.81,1.97-5.55,3.07-8.19.67-1.6,1.33-3.25,1.95-4.91-.71-.51-1.48-1.27-1.65-2.37-.39-1.77.61-3.61,2.81-5.13.58-.44,1.19-.83,1.81-1.2-.31-.51-.54-1.09-.6-1.68-.06-1.34.58-2.61,1.8-3.63.75-.62,1.65-.9,2.51-1.03.8-2.02,1.55-4.1,2.27-6.11,1.2-3.37,2.43-6.86,4-10.17.26-.59.86-.95,1.53-.91.67.03,1.24.45,1.45,1.06l.04.13v.14c-.03,1.1-.57,2.18-1.1,3.24-.3.6-.58,1.16-.74,1.67-.7,1.85-1.35,3.67-2,5.5-.65,1.81-1.31,3.65-2.01,5.49.82.16,1.66.43,2.52.84.08-.14.17-.29.23-.42,1.11-1.87,2.14-3.76,3.14-5.58,1.54-2.81,3.13-5.73,4.94-8.47.33-.67,1.08-1,1.84-.79.78.21,1.27.89,1.18,1.67l-.1.31c-.95,1.69-1.93,3.37-2.91,5.06-1.64,2.82-3.31,5.71-4.87,8.64,2.27-.66,4.6-1.13,7.02-1.07,3.4,0,5.69,1.99,6.11,5.32l.14.62c.52,2.38,1.13,5.16,2.01,7.56,1.06-2.31,2.4-2.7,5.64-.59,10.41,5.23,21.39,7.37,33.37,10.09,5.56.41,11.08,1.11,16.62,1.72.04,0,.07,0,.07,0,0,0,0,0,.01,0,.06,0,.07,0,.09,0,.41-.03.84.08,1.16.35,1.1.88.47,2.76-.93,2.84-2.74-.09-5.45-.58-8.18-.88-3.15-.42-6.32-.54-9.48-.89-5.81-1.09-11.51-2.67-17.22-4.19-6.34-1.59-12.5-3.82-18.28-6.88-2.33,5.68-3.86,11.9-5.51,18.59,2.25,3.2,5.36,5.14,9.06,7.93,4.41,3.31,11.13,8.64,14.33,10.97,5.63,3.78,11.7,6.8,17.64,10.05,6.63,3.85,11.76,4.77,19.09,4.28,1.09-.12,1.86.95,1.69,1.92,14.09-3.68,27.77-11.8,31.44-26.49Z"/>
        <path class="cls-1" d="M181.9,139.92c.22.07.44.09.66.08.41-.03.78-.22,1-.51.44-.43.85-.88,1.24-1.34,2.63-3.04,4.37-6.51,5.61-9.29,2.5-5.26,3.19-10.7,1.91-14.93v-.02c-.21-.62-.78-1.04-1.45-1.07-.46-.02-.87.15-1.17.43-.15.14-.28.29-.36.49-.28.62-.08,1.19.05,1.57.04.11.08.22.11.39,1.25,5.21-1.97,13.08-5.74,18.63-.23.42-.73.93-1.21,1.42-.78.8-1.58,1.63-1.77,2.53l-.02.2c0,.11.03.22.06.32,0,0,0,.01,0,.02,0,0,0,0,0,0,0,.01,0,.02,0,.04.02.06.05.11.07.16,0,.02.02.04.03.05.02.03.03.06.04.09.2.33.5.6.9.73Z"/>
        <path class="cls-1" d="M185.1,99.04c.06-.61-.08-1.1-.4-1.43-.51-.53-1.24-.49-1.94-.45-1.26.07-2.25.13-2.61-2.26-.56-2.32-.72-5.1-.34-5.97.99-2.39,1.36-2.72,1.93-2.58.52.09,1.32.41,2.34,2.26.33.48.84.74,1.4.69,0,0,0,0,0,0,.6-.05,1.14-.43,1.39-.98.23-.49.18-1.02-.11-1.48-.19-.43-.45-.83-.75-1.21-.26-.33-.55-.64-.86-.92,0,0-.02-.01-.02-.02,0,0-.01-.01-.02-.02,0,0,0,0,0,0-.31-.27-.64-.52-.98-.73,0,0,0,0,0,0,0,0-.01,0-.02-.01-.33-.2-.67-.36-1.01-.49-.07-.02-.13-.05-.2-.07,0,0,0,0,0,0,0,0,0,0,0,0-.34-.11-.69-.2-1.03-.24-1.42-.14-2.67.45-3.48,1.64-2.04,2.6-2.49,6.1-1.4,10.61.28,2.6,2.21,5.25,5.27,5.05.13-.02.29-.01.45-.01.18,0,.39,0,.61-.02.14-.01.29-.04.44-.07h0c.14-.03.28-.08.41-.14,0,0,0,0,0,0,0,0,0,0,0,0,0,0,0,0,0,0,0,0,0,0,0,0,0,0,0,0,0,0,.13-.06.26-.13.37-.23,0,0,.01-.01.02-.02,0,0,0,0,0,0,.12-.1.22-.21.31-.36h0c.07-.11.15-.2.2-.34l.05-.2Z"/>
        <path class="cls-1" d="M236.45,109.9c-.96,5.95-.14,12.4,2.44,19.17l.12.34c.49,1.33,1,2.69,1.79,4.02.05.08.08.16.13.23.93,1.19,1.94,2.17,2.91,2.86.33.29.74.43,1.16.39.28-.02.56-.12.81-.3.63-.44.87-1.19.6-1.88h0c-.05-.13-.14-.21-.21-.31-.2-.28-.44-.5-.64-.64-.09-.06-.18-.12-.3-.24-1.67-1.46-1.98-2.01-2.81-4.16-1.86-4.98-3.38-9.57-3.12-15.39v-.24c.04-1.27.06-1.84.3-3.29.08-.42-.02-.87-.25-1.2-.1-.15-.22-.27-.36-.38-.36-.27-.83-.38-1.31-.28-.66.14-1.14.65-1.24,1.28Z"/>
        <path class="cls-1" d="M12.64,92.62l.02.12c.14.76.8,1.28,1.59,1.27.04,0,.08,0,.13,0,.73-.06,1.31-.58,1.43-1.29.38-2.06.73-4.14,1.06-6.2.18-1.1.36-2.2.53-3.28,1.77-11.11,3.45-21.61,8.5-31.29,2.27-4.75,5.15-9.28,7.93-13.67l1.03-1.62c.56-.86,1.12-1.73,1.68-2.61,2.45-3.84,4.99-7.81,8.32-11.33,6.88-6.52,17.67-15.15,29.93-19.19.28-.06.5-.11.69-.16-.07.79-.63,1.83-1.69,3.09-3.88,4.73-8.07,7.98-12.51,11.43-.9.71-1.81,1.43-2.72,2.14-7.27,5.7-14.8,11.59-19.48,19.92-.16.38-.45.85-.76,1.35-.76,1.24-1.62,2.64-1.36,3.91l.12.29c.39.56.86.73,1.18.77.93.12,1.73-.57,2.38-1.13.16-.14.31-.26.49-.4,2.2-1.88,4.2-3.55,6.39-5,9.8-6.79,21.97-8.96,30.95-5.54,3.81,1.89,5.18,8.71,4.92,12.69-.46,4.28-2.14,8.21-5.23,12.31-1,1.03-2.95,1.93-5.02,2.89-1.29.6-2.62,1.21-3.83,1.91-.5.29-1.43.71-2.25,1.09-.28.13-.55.25-.8.37-.14-.18-.28-.35-.44-.51-.37-1.59.76-3.63,1.96-5.78,1.03-1.86,2.1-3.78,2.5-5.77.62-2.1-.05-4.46-1.76-6.28-1.28-1.52-3.24-2.41-5.8-2.64-3.17-.42-6.56-.13-10.06.88-4.87,1.41-8.65,4.98-10.36,9.75-1.01,2.51-1.03,5.61-.03,8.4.93,1.77,2.73,2.85,4.58,3.77,2.35,1.05,5.17,1.32,7.93.76,1.06-.22,2.07-.52,3.04-.81,1.66-.5,3.23-.97,4.39-.75.32.07.63.2.9.39.24.49.59,1.11,1.08,1.56.23.71.25,1.48.09,2.15-.06.13-.1.21-.07.19l-.14.14s-.41.46-2.85,1.7c-3.27,1.94-8.63,2.51-12.97,2.79-2.74.2-5.68-.51-8.07-2.16-.27-.15-.55-.38-.84-.63-.51-.43-1.08-.91-1.84-1.1l-.17-.02c-1.39-.05-1.79,1.34-1.98,2.02l-.05.18c-.33,1.15-.54,2.32-.74,3.45l-.23,1.47c-.22,1.54-.43,3.12-.55,4.69-.1,1.29-.14,2.58-.05,3.85v.14s.07.13.07.13c.22.49.68.82,1.24.89.56.07,1.11-.15,1.53-.7.35-.67.32-1.37.3-1.84,0-.1-.01-.19-.03-.15l.05-.24c.03-.5.07-1.05.11-1.59.03-.43.07-.89.12-1.34.11-1.22.26-2.5.47-3.82.03-.18.05-.35.08-.53.13-.79.28-1.59.47-2.39.54.38,1.12.76,1.75,1.1,1.44.75,2.98,1.3,4.65,1.63,4.09.42,8.61-.02,14.29-1.37,1.68-.49,3.21-1.29,4.69-2.07l.52-.27c1.46-.78,3.05-1.76,3.41-3.6.18-.88.19-1.81.04-2.71,1.82-.84,3.64-1.75,5.39-2.64l1.35-.68c.62-.34,1.27-.64,1.92-.94,1.31-.6,2.67-1.23,3.88-2.28,1.79-1.94,3.26-4.36,4.77-7.83,2.27-5.04,2.34-11.98.16-16.86-1.5-3.36-3.96-5.68-7.12-6.69h-.04c-10.96-2.83-23.13.02-33.95,7.83.91-1.29,1.91-2.51,3.04-3.74,4.01-4.53,8.74-8.23,13.75-12.14,1.45-1.13,2.91-2.27,4.35-3.43,3.26-2.51,7.03-5.58,10.19-9.3l.17-.19c1.71-1.96,4.06-4.64,3.1-7.77-.17-.65-.53-1.15-1.06-1.44-1.11-.62-2.59-.16-3.57.14-3.34,1-6.61,2.42-9.74,4.2-1.13.63-2.23,1.27-3.3,1.91.01-.17.04-.33.03-.5-.05-1.19-.63-2.25-1.62-2.98-1.18-.87-2.81-1.17-4.25-.79h-.04c-4.2,1.34-7.47,4.47-10.35,8.05-.36-.14-.76-.16-1.13,0h-.03c-3.38,1.56-5.96,3.36-7.87,5.49-2.24,2.56-3.52,5.72-4.79,8.85-2.01,5.43-3.6,11.58-4.86,18.74-.17.65-.14,1.23.03,1.69-2.44,4.28-4.64,8.7-6.3,13.35-2.42,6.5-3.57,13.42-4.68,20.11-.21,1.25-.41,2.49-.63,3.76-.21,1.44-.47,2.88-.72,4.31-.09.49-.17.99-.26,1.48-.25,1.45-.5,2.92-.67,4.38v.12ZM64.23,59.05c-.64,1.29-1.36,2.71-1.6,4.22-.66-.13-1.31-.14-1.94-.03-1.36.22-2.71.61-4.02.98-1.18.34-2.3.66-3.23.79-3.33.58-7.26-1.2-8.23-2.89-.8-2.5-.44-5.29,1.01-7.86,1.69-2.98,4.65-5.21,7.94-5.98,1-.24,2.65-.58,4.44-.73,2.34-.19,4.93-.06,6.72,1.04,1.06.65,1.72,1.58,2.01,2.81.21.97-1.07,4.18-2.95,7.35l-.15.31ZM54.33,5.94c1.11-.61,2.17-.77,2.82-.42.3.16.46.41.51.86,0,.21-.3.88-.52,1.36-.19.42-.4.91-.6,1.48-6.6,4.33-11.91,8.88-16.15,13.8.81-1.48,1.64-2.93,2.46-4.34,2.5-4.6,6.83-10.37,11.49-12.75ZM34.1,24.98c1.8-4.78,3.85-7.64,7.13-9.81-4.03,6.76-8.1,13.73-9.75,20.83-.39.61-.78,1.23-1.16,1.84.96-4.31,2.15-8.8,3.79-12.86Z"/>
        <path class="cls-1" d="M202.79,100.89c1.65,2.16,3.35,4.39,5.95,5.72,1.17.38,2.44.51,3.71.41,2.09-.17,4.19-.98,5.81-2.32,2.11-1.83,3.4-4.36,4.56-6.89.47-.66.49-1.56.05-2.18-.39-.55-1.07-.76-1.77-.55l-.18.08c-.71.42-.99,1.16-1.21,1.75-.11.29-.21.56-.39.83-1.15,2.13-1.98,3.66-3.49,4.79-1.73,1.22-4.53,1.68-6.04,1.05-1.61-.93-3.41-3.27-5.16-5.53l-.65-.84c-.33-.48-.84-.74-1.4-.69,0,0,0,0,0,0-.6.05-1.15.43-1.4.98-.24.51-.18,1.08.2,1.6.48.58.94,1.19,1.41,1.8Z"/>
        <path class="cls-1" d="M202.85,81.28c.25.09.51.12.77.1.4-.03.79-.19,1.13-.47.44-.17.77-.47.96-.87.17-.37.25-.81.22-1.28.15-.88-.02-1.72-.48-2.38-.4-.57-1.09-.89-1.8-.83,0,0,0,0,0,0-.71.06-1.31.47-1.62,1.12-.11.25-.19.53-.23.83-.02.05-.04.1-.06.15-.22.23-.41.59-.45,1.13v.08s0,.08,0,.08c.24,1.64,1.08,2.17,1.56,2.34Z"/>
        <path class="cls-1" d="M218.37,80.57c.45-.04.81-.25,1.06-.5.67-.37,1.05-1.17,1.02-2.09.04-.24.04-.46.01-.67-.02-.19-.07-.39-.16-.67-.03-.08-.06-.15-.06-.15-.09-.26-.19-.48-.35-.74-.41-.53-.89-.69-1.22-.73-.38-.05-.77.04-1.12.25-.39.04-.77.21-1.05.49-.3.3-.45.68-.44,1.1-.03.21,0,.45.05.73-.15,1.13.29,2.21,1.21,2.79.38.18.73.23,1.04.21Z"/>
        <path class="cls-1" d="M211.18,90.06c.21.05.42.07.62.05.6-.05,1.16-.38,1.46-.91.35-.63.22-1.39-.35-1.92h-.02c-.43-.4-.92-.42-1.27-.4-.13-.03-.24-.06-.32-.09.06-.05.14-.11.24-.18.18-.03.44-.07.6-.18.71-.32,1.05-1.08.84-1.86-.22-.79-.88-1.25-1.74-1.17-2.23.4-3.35,2.11-3.3,3.59.04,1.26.94,2.82,3.24,3.07Z"/>
        <path class="cls-1" d="M193.49,76.84c1.28-.41,2.33-1.1,3.11-1.98.34-.3.67-.61,1-.96.63.07,1.25.02,1.81-.13,1.3-.28,2.28-.98,3.03-1.68,2.01,1.45,4.84,1.57,6.97.24.18.2.37.4.59.61,2.68,1.85,5.46,1.83,8.08-.04,1.58.7,3.49.69,5.17-.03,1.08.6,2.37.89,3.88.85,1.35-.07,2.58-.53,3.63-1.33.04,0,.08.01.12.02.43.48.91.92,1.43,1.31.12.34.24.68.39,1.04.17.37.4.73.68,1.08.31,1.43.73,2.64,1.34,3.76,1.08,1.58,3.01,2.52,5.04,2.44.09,0,.18-.01.27-.02,1.84-.15,3.44-1.13,4.28-2.6,1.31-1.95,1.22-4.36,1.14-6.57-.13-3.75-1.26-7.26-3.09-10.17,0-.12-.04-.23-.06-.35l.03.03c1.33,1.24,1.61,1.5,3.12,3.88.05.12.15.36.35.79.67,1.52,1.11,3.17,1.53,4.79-.31,4.36-.08,8.82.72,13.25-.7-.36-1.5-.49-2.33-.22-1.36.33-2.62,1.16-3.86,2.57-.27.29-.72.77-.64,1.43.03.52.31.96.75,1.23.11.07.23.14.37.18.65.21,1.33.01,1.75-.52.87-1.16,2.1-1.74,2.51-1.82.76.47,1.3,2.18.91,4.19-.18,1.85-1.59,4.63-2.18,5.27-.56.51-1.14.73-1.95,1.03-.43.16-.9.33-1.41.57l-.16.1c-.63.5-.76,1.46-.29,2.13.4.58.96.7,1.47.66.4-.03.77-.16,1.02-.25.81-.27,1.61-.64,2.51-1.14,1.72-1.14,3.21-3.66,3.91-6.53,2.61,7.66,5.95,13.68,10.21,18.39,1.56,1.64,3.27,3.36,5.2,4.8.66.6,1.32,1.19,2,1.73.09.08.19.16.28.24,1.91,2.31,4.17,4.14,6.18,5.48.5.47,1.02.9,1.53,1.24l.78.75.14-.22c.82.4,1.6.56,2.32.5,1.08-.09,2.03-.69,2.8-1.78,1.15-1.56.83-3.95-.69-5.25l-.28-.31c-.41-.44-.64-.68-1.85-2.25-2.69-3.64-2.86-4.1-4.5-8.48-.5-1.63-1.38-10.32-1.14-15.03.09-1.06.16-2.39.21-3.87.49-1.77.92-3.6,1.2-5.54,2.25-12.11-.72-23.2-7.95-29.68-6.72-5.7-15.89-8.53-22.47-9.92-5.05-.68-10.56.28-15.89,2.69-1.18-.59-2.42-1.1-3.72-1.47-2.73-.76-5.58-.92-8.34-1.07l-1.49-.08c-6.58.14-18.78,1.7-26.7,10.57-3.06,3.19-7.13,8.1-7.17,13.92.25,2.82,1.6,5.18,3.83,6.63.21.14.43.23.65.35,1.59.86,3.42,1.25,5.31,1.09.88-.07,1.76-.26,2.64-.55Z"/>
        <path class="cls-1" d="M235.26,262.8c.1.01.2.01.3,0,.5-.04.95-.33,1.22-.8.32-.56.29-1.25-.16-1.84-.53-.51-1.26-.86-2.07-1.01-.15-.03-.3-.06-.45-.07-1.98-.06-3.4-.31-5.68-1.53-2.31-1.37-3.94-2.45-5.99-4.29-1.44-1.49-2.92-3.03-4.69-4.23-.46-.32-.93-.59-1.41-.84-.04-.1-.08-.19-.14-.28-.34-.5-.94-.79-1.53-.74-.14.02-.26.05-.38.09-.42-.17-.83-.32-1.25-.48-1.19-.45-2.31-.87-3.4-1.47-.55-.26-.87-.55-.87-.78,0-.27.26-1.29,4.03-3.38,1.48-.77,3.79-1.57,6.03-2.33.55-.19,1.09-.37,1.62-.56.15-.03.3-.08.43-.15.49-.17.98-.35,1.43-.52,4.88-1.72,8.58-2.07,10.2-.97.69.87,1.06,2.71,1.45,4.65.31,1.56.63,3.18,1.16,4.62.5,1.67,1.17,3.24,2,4.75.04.08.07.16.12.23.39.55,1.1.81,1.61.65.53-.08.98-.44,1.19-.96.21-.51.15-1.08-.15-1.51-.46-.81-.87-1.74-1.23-2.73-.88-2.41-1.49-5.19-2.01-7.56l-.14-.62c-.42-3.34-2.71-5.33-6.11-5.32-2.42-.05-4.75.41-7.02,1.07,1.56-2.93,3.23-5.82,4.87-8.64.98-1.69,1.96-3.38,2.91-5.06l.1-.31c.09-.77-.4-1.46-1.18-1.67-.76-.2-1.51.12-1.84.79-1.81,2.74-3.4,5.65-4.94,8.47-1,1.82-2.03,3.7-3.14,5.58-.06.13-.15.28-.23.42-.86-.41-1.7-.68-2.52-.84.7-1.84,1.36-3.68,2.01-5.49.65-1.82,1.3-3.64,2-5.5.16-.51.44-1.07.74-1.67.53-1.05,1.08-2.14,1.1-3.24v-.14s-.04-.13-.04-.13c-.21-.61-.77-1.03-1.45-1.06-.66-.03-1.26.33-1.53.91-1.57,3.31-2.8,6.8-4,10.17-.72,2.02-1.46,4.09-2.27,6.11-.86.13-1.76.4-2.51,1.03-1.23,1.02-1.87,2.29-1.8,3.63.07.59.29,1.17.6,1.68-.62.36-1.23.75-1.81,1.2-2.21,1.52-3.2,3.36-2.81,5.13.17,1.1.94,1.86,1.65,2.37-.61,1.66-1.28,3.31-1.95,4.91-1.1,2.64-2.24,5.38-3.07,8.19-.67,2.24-1.35,4.4-2.01,6.53-1.05,3.37-2.05,6.55-2.95,9.8l-.04.16.02.17c.08.53.43.98.96,1.19.25.1.51.14.77.12.28-.02.56-.12.78-.29.5-.36.63-.89.72-1.24.02-.09.04-.19.08-.29.91-2.56,1.8-5.55,2.74-8.72,1.05-3.53,2.13-7.17,3.24-10.13.53-1.44,1.14-2.88,1.73-4.28.63-1.48,1.24-3.03,1.82-4.63.62.26,1.26.51,1.89.75.18.07.36.14.54.21l-.05.11c-4.04,9.26-8.62,19.77-11.14,28.93l-.08.3.14.28c.33.66.91,1.02,1.55.97,0,0,0,0,0,0,.74-.06,1.41-.66,1.66-1.47.37-1.08.73-2.15,1.09-3.22,1.74-5.19,3.38-10.1,5.77-15.28.91-1.92,1.73-3.91,2.53-5.84.47-1.14.96-2.3,1.46-3.45.07.04.16.09.22.13,1.49.97,2.73,2.23,4.04,3.56.34.35.68.69,1.09,1.09,2.96,2.38,6.18,4.78,10.09,5.82.99.21,1.6.23,2.1.26.27.01.51.03.75.07.34.06.71.17,1.29.43l.24.07ZM216.16,235.69c.45.04.87.11,1.24.22-.25.09-.51.19-.75.27-.26.09-.53.18-.8.27.11-.26.21-.52.31-.77Z"/>
      </g>
    </g>
  </g>
</svg>