<?xml version="1.0" encoding="UTF-8"?>
<svg id="_レイヤー_2" data-name="レイヤー 2" xmlns="http://www.w3.org/2000/svg" viewBox="0 0 422.12 481.74">
  <defs>
    <style>
      .cls-1 {
        fill: #000;
      }

      .cls-1, .cls-2, .cls-3 {
        stroke-width: 0px;
      }

      .cls-2 {
        fill: #f15a24;
      }

      .cls-3 {
        fill: #fff;
      }
    </style>
  </defs>
  <g id="_人物" data-name="人物">
    <g>
      <path class="cls-3" d="M419.75,78.46c-.11-.24-.22-.5-.33-.76-.64-1.48-1.43-3.33-3-4.17l-.23-.08c-.58-.11-.99.07-1.22.24-.65.46-.79,1.29-.91,1.96-.17.74-.35,1.31-.64,2.27l-.08.26c-2.44,7.42-4.51,13.57-6.47,19.27-1.38,2.99-2.18,5.59-3.03,8.34-.32,1.05-.65,2.12-1.03,3.24-2.04,6-4.74,11.87-7.36,17.54l-.58,1.27c-.66,1.52-1.41,3.04-2.13,4.51-1.07,2.18-2.17,4.44-3.04,6.76-.31-.05-.62-.1-.94-.13-5.36-.5-11.04,1.51-14.47,5.13-2.42,2.5-3.18,6.32-2.15,11.19.08.2.14.53.21.88.09.43.18.89.32,1.33-.02.04-.05.08-.09.14-1.63,2.48-3.36,4.95-5.04,7.35-.75,1.07-1.49,2.13-2.2,3.17-2.81-.16-5.83.61-8.72,2.6-4.02,2.84-7.22,6.72-10.95,9.92-5.75,5.31-11.56,10.59-16.76,16.45-12.58,14.29-15.75,17.51-31,30.87-8.67,7.29-17.34,14.58-26.52,21.21-13.16,8.91-26.74,17.18-40.54,25.05-9.21,5.07-18.43,10.15-27.74,15.05-3.53-.81-7.38-.05-11.73.27-11.74.44-6.68.68-17.69-.47-8.37-1.12-16.84-1.26-25.19-2.51,0,0,0,0,0,0,.11-.03.22-.06.34-.08,19.85-5.67,39.82-11.51,58.58-20.22,10.13-5.09,19.5-11.48,28.95-17.7,17.14-11.14,33.01-24.41,46.5-39.78,8.78-10.53,18.97-19.79,27.79-30.28,6.51-8.24,13.64-16.14,18.59-25.46,2.99-5.47,4.61-11.54,6.5-17.45,1.32-4.81,3.16-9.57,3.47-14.58.49-3.94-.37-7.83-2.2-10.98.03,0,.06.01.09,0,.15-.02.3-.06.44-.12l.21-.13c1.83-1.63,3.07-3.78,4.28-5.85.32-.55.63-1.09.97-1.64.63-1.11,1.16-2.25,1.67-3.35.72-1.55,1.41-3.02,2.21-4.09.48-.52,1.05-1.1,1.67-1.74,4.47-4.56,11.78-12.01,7.93-19.36.01-.03.04-.05.05-.08,1.02-1.76,2.04-3.52,2.98-5.27,2.24-3.64,4.25-7.46,6.19-11.16,1.64-3.12,3.34-6.35,5.17-9.45.58-1.04,1.35-2.36,2.09-3.62.81-1.38,1.53-2.61,1.96-3.41l.87.11c3.27.42,6.66.86,9.99-.08,1.34-.47,2.24-1.44,3.11-2.39.26-.28.52-.57.84-.88.39-.45.81-.89,1.23-1.33,1.49-1.58,3.03-3.22,3.85-5.32l.05-.31c-.1-3.84-.68-7.04-1.77-9.76l-.05-.1c-.4-.69-.9-.89-1.26-.94-.96-.13-1.79.65-2.45,1.29-.17.16-.32.31-.49.44-.84.73-1.33,1.66-1.81,2.55l-.24.45c-.48.82-.95,1.69-1.42,2.55-.94,1.73-1.92,3.52-2.81,4.64-.19-.03-.38-.06-.58-.09l.52-.96c1.82-3.34,3.7-6.8,5.01-10.52.17-.57.41-1.17.66-1.79.98-2.49,2.2-5.6.04-8.02l-.19-.16c-1.39-.82-3-1.61-4.34-1.17-.64.21-1.14.69-1.44,1.38-.77,1.8-1.44,3.66-2.08,5.47-.88,2.48-1.8,5.05-2.99,7.4l-.15.28c-.14.25-.28.51-.4.72-.04-.01-.09-.03-.13-.04-.42-.12-1.04-.3-1.4-.48-.27-.1-.65-.26-.98-.41.03-.19.07-.4.1-.62.08-.49.16-.99.26-1.35.61-3.66,1.37-7.26,2.11-10.67.36-2.21,1.03-6.32-1.41-8.97-.79-.82-1.86-1.76-3.2-1.71h-.09s-.08.03-.08.03c-.72.19-1.18.72-1.55,1.15-.13.15-.26.31-.48.52l-.8.95c-2.14,2.52-4.35,5.13-5.7,8.19l-.07.31c-.17,7.16.57,14.42,1.27,21.43l.05.53-.41,1.05c-1.62,4.13-4.33,11.05-6.79,15.45-2.44,4.73-4.53,8.24-7.25,12.19-.39.66-.86,1.29-1.37,1.96-.71.94-1.43,1.91-1.91,3-1.17-.31-2.39-.51-3.61-.57-1.8,0-3.51.47-5.16.94-.4.11-.81.23-1.19.33-7.01,1.61-11.98,7.13-14.96,11.55-1.96,3.81-2.41,9.02.84,12.28-.38,3.33-.74,6.35-1.32,9.36-.22,1.11-.5,2.2-.79,3.29l-.06.25c-4.5,1.96-6.89,6.14-9.51,10.04-4.58,6.45-8.8,13.14-13.19,19.73-13.23,19.11-23.81,31.91-36.72,42.43-26.29,21.01-42.35,28.67-71.94,42.72-7.42,3.63-15.05,6.73-22.77,9.56.06-.14.11-.28.12-.44.13-1.87.31-3.73.49-5.59l.23-2.44c.73-6.17,1.62-11.22,2.8-15.87.58-1.9.95-2.73,2.29-2.66,2.58-.34,5.24-1.9,6.78-3.99,1.19-1.62,1.65-3.43,1.3-5.38-.98-2.61-4.03-4.45-7.09-4.3-.07,0-.13.01-.2.02-.01-.03-.03-.07-.04-.11.1-.01.21-.01.31-.03.02,0,.05,0,.07-.01.02,0,.03,0,.05,0,.04,0,.08-.01.12-.02h0c.25-.05.49-.11.73-.18.06-.02.13-.04.19-.06.29-.1.57-.21.85-.35,0,0,0,0,0,0,0,0,.01,0,.02-.01.02-.01.04-.02.05-.03.02-.01.04-.02.06-.03.23-.12.45-.25.66-.39h0s.08-.06.13-.09c.01-.01.03-.02.05-.03.01,0,.03-.02.04-.03.21-.15.41-.32.6-.49.02-.02.04-.04.06-.05.01,0,.02-.02.03-.03,0,0,.02-.01.02-.02.22-.21.42-.44.61-.68.02-.02.03-.05.05-.07t0,0s.03-.05.05-.07c0,0,0,0,0,0,0,0,0,0,0,0,.01-.02.02-.03.03-.05.14-.19.27-.39.38-.6.03-.06.07-.12.1-.18,0,0,0,0,0-.01,0-.01.02-.03.02-.04,0,0,0,0,0,0,.14-.28.26-.56.36-.86,2.17-1.54,3.45-4.12,3.81-6.86.23-.51.39-1.06.46-1.65.56-2.73-1.45-4.83-2.32-7.23-.16-.4-.31-.81-.47-1.21-.16-1.01-.56-2.04-1.23-3.03-.93-2.14-2.05-4.17-3.71-5.86-5.35-5.55-10.96-16.3-18.91-10.54-1.17.29-2.29.54-3.8.93-2.82-1.16-6.38.26-9.74,1.36-1.2-.23-2.43-.3-3.67-.21-.48-.07-.96-.14-1.43-.21-2.84-.31-5.74.33-8.27,1.65-2.21.19-4.35.65-6.34,1.84-3.36,1.79-6.51,4.63-7.92,8.21-2.5,2.76-4.4,6.06-5.39,9.72-.65,2.7-.09,5.82,1.34,8.3-1.38,2.93-.5,5.84,1.39,7.65-1.18.25-2.31.77-3.29,1.53-1.44,1.07-2.3,2.39-2.5,3.81-.18,1.26.2,2.53,1.04,3.63.93,1.49,2.28,2.73,4.5,4.1.13.05.53.33.79.51.17.12.35.24.51.35-.08.74-.17,1.47-.26,2.21-.12.95-.23,1.9-.32,2.8-1.5,8.89-3.51,18.48-8.08,28.35-3.12,7.03-5.81,12.84-9.74,18.34-.11.23-.27.45-.44.69-.45.64-1.01,1.43-.77,2.53.11.28.31.49.55.67-8.33,4.58-16.27,9.87-23.54,15.97-8.02,7.08-14.96,15.38-21.17,24.07-5.94,9.15-11.3,18.75-15.53,28.82-3.55,8.56-5.89,17.55-8.55,26.41-2.48,8.69-5.2,17.35-6.87,26.24-.99,5.74-1.77,11.51-2.46,17.3-2.43,8.46-3.65,17.2-4.88,25.92-1.89,13.83-4.47,31.45,7.3,41.66,5.88,5.05,13.32,7.59,20.34,10.61,12.26,5.62,25.77,6.92,39.1,7.16,5.61.16,11.16,1.06,16.73,1.63,5.29.28,10.61.04,15.85-.81,9.65-1.47,19.03-4.26,28.41-6.91,5.13-1.63,10.5-2.85,15.25-5.45,5.72-2.89,10.53-7.2,14.83-11.9,3.22-3.62,4.55-8.27,5.89-12.81,1.5-4.8,3.03-9.59,4.38-14.44,2.16-9.19,5.25-16.74,10.45-31.58,4.56-13.76,8.27-27.89,14.62-40.98,3.94-8.25,22.01-29.06,31.41-36.34.05-.04.1-.08.15-.13,17.01-9.05,35.01-19.16,49.9-30.58,11.48-8,21.16-18.16,30.69-28.33,9.25-9.62,17.98-19.72,26.09-30.32,11.15-14.93,25.54-27.96,32.99-45.31.67-1.76.98-3.47.99-5.09.69-.26,1.08-.94,1.34-1.43.17-.32.34-.65.64-.96,1.74-2.45,4.24-5.32,6.39-7.3,1.63-1.5,3.5-2.87,5.31-4.19,3.36-2.45,6.83-4.99,9.2-8.7,2.13-4.21,1.1-9.07-.7-12.55.49-.99.81-2.05,1.11-3.08.22-.75.42-1.46.68-2.12.57-1.33,1.17-2.84,1.77-4.37,1.14-2.88,2.32-5.85,3.38-7.86,9.92-6.5,14.77-15.8,15.73-30.1.7-7.36,0-13.91-2.08-19.49l-.02-.05ZM111.31,190.43l-1.06,1.03c.24-.38.62-.72,1.06-1.03Z"/>
      <g>
        <path class="cls-2" d="M365.93,180.7c-.49-.19-.8-.52-.96-.93s-.15-.86.02-1.24c.4-.69.85-1.38,1.35-2.08-1.23-3.6-4.03-6.38-7.53-7.62-.38.54-.75,1.08-1.13,1.62-.38.5-.91.72-1.47.64-.59-.08-1.11-.5-1.33-1.05-.21-.53-.12-1.09.25-1.54.08-.11.16-.23.24-.35-2.81-.16-5.83.61-8.72,2.6-4.02,2.84-7.22,6.72-10.95,9.92-5.75,5.31-11.56,10.59-16.76,16.45-12.58,14.29-15.75,17.51-31,30.87-8.67,7.29-17.34,14.58-26.52,21.21-13.16,8.91-26.74,17.18-40.54,25.05-9.21,5.07-18.43,10.15-27.74,15.05-3.53-.81-7.38-.05-11.73.27-11.74.44-6.68.68-17.69-.47-8.37-1.12-16.84-1.26-25.19-2.51,0,0,0,0,0,0,.11-.03.22-.06.34-.08,19.85-5.67,39.82-11.51,58.58-20.22,10.13-5.09,19.5-11.47,28.95-17.7,17.14-11.14,33.01-24.41,46.5-39.78,8.78-10.53,18.97-19.79,27.79-30.28,6.51-8.24,13.64-16.14,18.59-25.46,2.99-5.47,4.61-11.54,6.5-17.45,1.32-4.81,3.16-9.57,3.47-14.58.49-3.94-.37-7.83-2.2-10.98-.43.03-.86-.11-1.2-.42-.47-.44-.64-1.09-.43-1.66.02-.05.05-.07.07-.12-2.74-3.25-6.73-5.17-11.37-4.56-.16.68-.31,1.36-.5,2.03-.05.52-.52,1.04-1.17,1.21-.65.16-1.31-.07-1.69-.59-.25-.34-.36-.78-.3-1.2l.14-.55c-4.5,1.96-6.89,6.14-9.51,10.04-4.58,6.45-8.8,13.14-13.19,19.73-13.23,19.11-23.81,31.91-36.72,42.43-26.29,21.01-42.35,28.67-71.94,42.72-7.42,3.63-15.05,6.73-22.77,9.56-.21.53-.68.9-1.27.97-.04,0-.09,0-.13.01-.29.01-.56-.07-.8-.18-16.86,6.07-34.16,11.01-50.88,17.5-5.34,2.15-10.59,4.57-15.7,7.24-.39.56-.78,1.1-1.17,1.61l-.13.17-.2.09c-.13.06-.28.1-.42.11-.27.03-.56,0-.82-.12-.12-.05-.22-.14-.32-.22-8.33,4.58-16.27,9.87-23.54,15.97-8.02,7.08-14.96,15.38-21.17,24.07-5.94,9.15-11.3,18.75-15.53,28.82-3.55,8.56-5.89,17.55-8.56,26.41-2.48,8.69-5.2,17.35-6.87,26.24-.99,5.74-1.77,11.51-2.46,17.3-2.43,8.46-3.65,17.2-4.88,25.92-1.89,13.83-4.47,31.45,7.3,41.66,5.88,5.05,13.32,7.59,20.34,10.61,12.27,5.62,25.77,6.92,39.1,7.16,5.61.16,11.16,1.06,16.73,1.63,5.29.28,10.61.04,15.85-.81,9.65-1.47,19.03-4.26,28.41-6.91,5.13-1.63,10.5-2.85,15.25-5.45,5.72-2.89,10.53-7.2,14.83-11.9,3.22-3.62,4.55-8.27,5.89-12.81,1.5-4.8,3.03-9.59,4.38-14.44,2.16-9.19,5.25-16.74,10.45-31.58,4.56-13.76,8.27-27.89,14.62-40.98,3.94-8.25,22.01-29.06,31.41-36.34.05-.04.1-.08.15-.13,17.01-9.05,35.01-19.16,49.9-30.58,11.48-8,21.16-18.16,30.69-28.33,9.25-9.62,17.98-19.72,26.09-30.32,11.15-14.93,25.54-27.96,32.99-45.31.67-1.76.98-3.47.99-5.09-.11.04-.21.1-.34.12-.22.03-.46.01-.73-.06Z"/>
        <path class="cls-1" d="M310.76,105.94c.38.53,1.04.75,1.69.59.65-.17,1.11-.69,1.17-1.21.19-.67.34-1.35.5-2.03.9-3.77,1.4-7.63,1.84-11.62,0-.11.02-.22.04-.33.06-.45.15-1.07-.35-1.76-1.2-1.14-2.01-2.22-2.03-3.72,0-1.38.17-3.38.96-5.03.43-.78,1.98-2.78,3.19-4.08,2.34-2.39,5.23-4.95,8.87-5.87.59-.16,1.16-.33,1.72-.5,2.19-.65,4.09-1.22,6.23-.84,4.55.83,9.86,3.71,9.87,9.09-.13,3.97-5.3,9.32-8.72,12.87-.48.5-.93.96-1.4,1.48-1.09,1.54-1.88,3.23-2.65,4.88-.55,1.18-1.12,2.39-1.78,3.52-.69,1.19-2.05,3.44-3.37,5.16-.08.12-.21.25-.35.39-.23.23-.5.53-.69.93-.02.04-.05.07-.07.12-.21.58-.04,1.23.43,1.66.34.31.77.45,1.2.42.03,0,.06.01.09,0,.15-.02.3-.06.44-.12l.21-.13c1.83-1.63,3.07-3.78,4.28-5.85.32-.55.63-1.09.97-1.64.63-1.11,1.16-2.25,1.67-3.35.72-1.55,1.41-3.02,2.21-4.09.48-.52,1.05-1.1,1.67-1.74,4.47-4.56,11.78-12.01,7.93-19.36.01-.03.04-.05.05-.08,1.02-1.76,2.04-3.52,2.98-5.27,2.24-3.64,4.25-7.46,6.19-11.16,1.64-3.12,3.34-6.35,5.17-9.45.58-1.04,1.35-2.36,2.09-3.62.81-1.38,1.53-2.61,1.96-3.41l.87.11c3.27.42,6.66.86,9.99-.08,1.34-.47,2.24-1.44,3.11-2.39.26-.28.52-.57.84-.88.39-.45.81-.89,1.23-1.33,1.49-1.58,3.03-3.22,3.85-5.32l.05-.31c-.1-3.84-.68-7.04-1.77-9.76l-.05-.1c-.4-.69-.9-.89-1.26-.94-.96-.13-1.79.65-2.45,1.29-.17.16-.32.31-.49.44-.84.73-1.33,1.66-1.81,2.55l-.24.45c-.48.82-.95,1.69-1.42,2.55-.94,1.73-1.92,3.52-2.81,4.64-.19-.03-.38-.06-.58-.09l.52-.96c1.82-3.34,3.7-6.8,5.01-10.52.17-.57.41-1.17.66-1.79.98-2.49,2.2-5.59.04-8.02l-.19-.16c-1.39-.82-3-1.61-4.34-1.17-.64.21-1.14.69-1.44,1.38-.77,1.8-1.44,3.66-2.08,5.47-.88,2.48-1.8,5.05-2.99,7.4l-.15.28c-.14.25-.28.51-.4.72-.04-.01-.09-.03-.13-.04-.42-.12-1.04-.3-1.4-.48-.27-.1-.65-.26-.98-.41.03-.19.07-.4.1-.62.08-.49.16-.99.26-1.35.61-3.66,1.37-7.26,2.11-10.67.36-2.21,1.03-6.32-1.41-8.97-.79-.82-1.86-1.76-3.2-1.71h-.09s-.08.03-.08.03c-.72.19-1.18.72-1.55,1.15-.13.15-.26.31-.48.52l-.8.95c-2.14,2.52-4.35,5.13-5.7,8.19l-.07.31c-.17,7.16.57,14.42,1.27,21.43l.05.53-.41,1.05c-1.62,4.13-4.33,11.05-6.79,15.45-2.44,4.73-4.53,8.24-7.25,12.19-.39.66-.86,1.29-1.37,1.96-.71.94-1.43,1.91-1.91,3-1.17-.31-2.39-.51-3.61-.57-1.8,0-3.51.47-5.16.94-.4.11-.81.23-1.19.33-7.01,1.61-11.98,7.13-14.96,11.55-1.96,3.81-2.41,9.02.84,12.28-.38,3.33-.74,6.35-1.32,9.36-.22,1.11-.5,2.2-.79,3.29l-.06.25-.14.55c-.07.42.04.86.3,1.2ZM383.28,30.48c-.03.07-.06.14-.09.21.04-.24.06-.52.07-.84,0,.21.02.42.02.63ZM382.92,26.37c-.18-1.07-.41-2.17-.67-3.12.28.97.51,2.01.67,3.12ZM348.29,67.41c.27-.48.54-.96.81-1.43.42-.68.83-1.37,1.24-2.06-.66,1.17-1.34,2.34-2.04,3.49ZM359.51,47.02c-1,1.69-1.95,3.42-2.88,5.14.96-1.8,1.95-3.6,3-5.35-.04.07-.08.14-.11.21ZM361.74,43.16s.04-.06.05-.1c.5-.91,1-1.81,1.49-2.63.06-.08.12-.16.17-.25-.4.74-1.05,1.86-1.71,2.97ZM366.03,39.31l-.85-.11-.24-.05c.45.07.9.13,1.34.19-.08-.01-.16-.02-.25-.03ZM375.33,39.29s-.09.02-.13.04c.34-.12.65-.27.91-.44-.25.17-.5.31-.77.4ZM380.38,34.53c.87-.99,1.66-1.95,2.24-2.79-.62.99-1.42,1.9-2.24,2.79ZM381.47,21.41l-.75.63c-.05.04-.11.09-.16.13.26-.25.69-.65.91-.76ZM376.82,27.86c.25-.45.5-.91.75-1.36-.02.04-.04.07-.06.11-.74,1.4-1.55,2.91-2.39,4.27.56-.92,1.12-1.95,1.7-3.01ZM373.52,33.12c.09-.1.19-.21.28-.33-.15.19-.29.37-.44.54-.02.02-.04.03-.07.04l.23-.25ZM372.8,33.38l.17.03c-.11,0-.25-.03-.42-.06l-.2-.03c.15.02.3.05.45.07ZM373.74,24.97c.59-1.24,1.21-2.6,1.79-3.97-.53,1.35-1.14,2.67-1.79,3.97ZM377.13,11.5c.05.05.09.11.13.17-.07-.08-.16-.16-.24-.23.04.02.08.04.11.07ZM377.82,13.54c.02,1.01-.3,2.12-.72,3.24.38-1.21.64-2.32.72-3.24ZM376,10.91c-.21-.08-.44-.14-.67-.21l-.59-.18s-.02,0-.03,0c.39.04.86.21,1.29.4ZM373.75,11.03c.15-.35.33-.44.46-.49.01,0,.02,0,.04-.01-.12.09-.25.26-.42.59l-.1-.03s.02-.04.03-.06ZM373.71,11.13l-.13.51c-.39.86-.95,2.31-1.85,4.71.62-1.73,1.25-3.52,1.98-5.22ZM370.08,20.79c-.05.12-.09.24-.14.37l-.22.51c-.31.71-.63,1.42-.98,2.11.49-.98.93-1.98,1.34-2.99ZM367.53,25.78s.02-.02.03-.02c-.02.03-.05.06-.07.09-.05.07-.11.12-.18.15l.23-.21ZM366.09,25.76c.25.07.47.13.6.18l.14.05c-.2-.04-.45-.12-.78-.24-.02,0-.05-.02-.07-.03.04.01.08.02.12.03ZM364.48,25.2s.02.01.03.02c-.59-.2-1.16-.42-1.63-.73.39.21,1.17.56,1.6.71ZM362.46,23.56l-.06.22c.03-.41.14-.85.25-1.3.01-.04.02-.09.03-.14,0,.03-.01.07-.02.1-.07.45-.14.88-.21,1.11ZM362.95,21s0,.04-.01.06c.2-1.28.44-2.56.69-3.84-.24,1.25-.47,2.52-.68,3.78ZM365.22,5.23c.22,1.06.19,2.22.07,3.38.07-1.14.14-2.29-.07-3.38ZM365.13,9.87c-.03.17-.05.34-.08.51-.08.36-.16.73-.24,1.1.11-.53.21-1.06.32-1.61ZM360.97,2.81s.03-.03.05-.05c-.06.07-.13.15-.19.22l.14-.17ZM354.94,17.96c.16,3.29.45,6.78.76,10.18-.32-3.37-.61-6.78-.76-10.18ZM355.66,34.75l.12-.31c-1.11,3.02-2.31,5.99-3.62,8.9,1.35-3.12,2.59-6.29,3.49-8.59ZM357.75,33.71l-.12-2.09c-.62-6.64-1.32-14.17-1.21-19.94.72-1.66,4.07-5.97,6.07-8.14,0,0,0,0,.01,0l.21.18c1.21,1.21,1.1,2.91.97,4.88l-.02.4c-.28,1.5-.6,2.99-.91,4.48-.51,2.41-1.03,4.9-1.42,7.42-.04.4-.14.8-.24,1.2-.19.77-.38,1.57-.27,2.43l.03.21.13.17c.87,1.12,2.22,1.57,3.42,1.97.36.12.71.23,1.06.38.82.3,2.33.85,3.29-.43,1.08-1.37,1.77-2.97,2.44-4.51l.24-.55c2.21-5.96,3.15-8.48,3.54-9.5,1.18.35,1.24.43,1.26,1.14-.17,2.1-1.68,6.17-4.22,11.43-1.23,2.33-2.47,4.64-3.73,6.94-.24.42-.29.93-.13,1.4.17.48.53.87,1.04,1.08.87.31,1.76.45,2.62.59l.43.07c.42.09,1.42.29,2.25-.47,1.67-1.93,3.13-4.68,4.42-7.1.57-1.07,1.09-2.06,1.52-2.76.13-.18.25-.33.36-.46.57,2.28.95,5.15.8,6.22-.91,1.47-3.05,3.92-6.06,6.95-.19.2-.91.67-1.91.73-2.79.4-5.95-.1-9.31-.6l-.15-.02-.15.03c-.93.21-1.4.99-1.74,1.55-.1.16-.19.32-.35.53-.54.9-1.05,1.83-1.56,2.75-.54.98-1.07,1.95-1.65,2.9-1.98,3.23-3.75,6.62-5.46,9.91-1.74,3.34-3.54,6.8-5.56,10.06-.54.94-1.06,1.88-1.59,2.83-.57,1.03-1.15,2.06-1.71,3.03-1.3-1.28-2.87-2.34-4.59-3.14,7.51-10.34,13.54-21.83,17.92-34.17ZM369.71,32.81l-.25.69.17-.71.08.02ZM340.04,64.74c.06-.07.11-.15.17-.22-.59.85-1.14,1.73-1.74,2.56.41-.79.98-1.55,1.58-2.34Z"/>
        <path class="cls-1" d="M85.78,256.18c.15-.02.29-.06.42-.11l.2-.09.13-.17c.38-.51.77-1.05,1.17-1.61,2.59-3.69,5.25-8.33,7.31-12.75,5.05-10.25,8.35-19.86,10.08-29.32,1.06-4.57,1.68-8.94,1.85-12.98v-.33s-.21-.24-.21-.24c-.62-.68-1.4-1.13-2.16-1.56-.52-.3-1.01-.58-1.49-.97-1.25-.82-2.31-1.96-2.93-3.2-.16-.27-.33-.7.1-1.36.8-1.25,3.05-2.27,4.61-2.1,1.11.16,1.91.68,2.68,1.74l.11.24c.18.41.43.96,1.03,1.25.59.29,1.29.16,1.78-.31.49-.47.63-1.17.37-1.76-.43-1.07-1.08-1.96-1.9-2.67.66-.21,1.31-.53,1.95-.99.75-.56,1.29-1.29,1.73-2.09.04-.07.08-.13.12-.2.07-.14.18-.27.24-.42-.07.11-.14.23-.2.34.68-1.25,1.27-2.75,1.73-4.35.51-.57.96-1.2,1.37-1.87,1.18-.83,2.24-1.83,3.12-2.97.73-.36,1.43-.76,2.11-1.2.53-.29,1.02-.62,1.48-.97.35.11.71.2,1.06.28,3.44.64,6.81-.58,9.76-2.28.77-.42,1.36-.75,1.84-1,1.78.2,3.6.14,5.36-.18,1.97.83,2.86,1.14,3.76,1.9,1.39,1.76,2.25,3.91,3.8,5.55,3.24,3.45,6.4,7.15,10.65,9.39,1.16.82,2.45,1.19,3.73,1.18,0,0,0,0,0,0,0,0,0,0,0,0,.31,0,.62-.03.93-.08.02,0,.05,0,.07-.01.02,0,.03,0,.05,0,.04,0,.08-.01.12-.02,0,0,0,0,0,0,.25-.05.49-.11.73-.18.06-.02.13-.04.19-.06.29-.1.57-.21.85-.35,0,0,0,0,0,0,0,0,.01,0,.02-.01.02-.01.04-.02.05-.03.02-.01.04-.02.06-.03.23-.12.45-.25.66-.39h0s.08-.06.13-.09c.02-.01.03-.02.05-.03.01,0,.03-.02.04-.03.21-.15.41-.32.6-.49.02-.02.04-.04.06-.05.01,0,.02-.02.03-.03,0,0,.02-.01.02-.02.22-.21.42-.44.61-.68.02-.02.03-.05.05-.07t0,0s.03-.05.05-.07c0,0,0,0,0,0,0,0,0,0,0,0,.01-.02.02-.03.03-.05.14-.19.27-.39.38-.6.03-.06.07-.12.1-.18,0,0,0,0,0-.01,0-.01.02-.03.02-.04,0,0,0,0,0,0,.14-.28.26-.56.36-.86,2.17-1.54,3.45-4.12,3.81-6.86.23-.51.39-1.06.46-1.65.56-2.73-1.45-4.83-2.32-7.23-.16-.4-.31-.81-.47-1.21-.16-1.01-.56-2.04-1.23-3.03-.93-2.14-2.05-4.17-3.71-5.86-5.35-5.55-10.96-16.3-18.91-10.54-1.17.29-2.29.54-3.8.93-2.82-1.16-6.38.26-9.74,1.36-1.2-.23-2.43-.3-3.67-.21-.48-.07-.96-.14-1.43-.21-2.84-.31-5.74.33-8.27,1.65-2.21.19-4.35.65-6.34,1.84-3.36,1.79-6.51,4.63-7.92,8.21-2.5,2.76-4.4,6.06-5.39,9.72-.65,2.7-.09,5.82,1.34,8.3-1.38,2.93-.5,5.84,1.39,7.65-1.18.25-2.31.77-3.29,1.53-1.44,1.07-2.3,2.39-2.5,3.81-.18,1.26.2,2.53,1.04,3.63.93,1.49,2.28,2.73,4.5,4.1.13.05.53.33.79.51.17.12.35.24.51.35-.08.74-.17,1.47-.26,2.21-.12.95-.23,1.9-.32,2.8-1.5,8.89-3.52,18.48-8.08,28.35-3.12,7.03-5.81,12.84-9.74,18.34-.11.23-.27.45-.44.69-.45.64-1.01,1.43-.77,2.53.11.28.31.49.55.67.1.08.2.17.32.22.26.11.55.15.82.12ZM109.34,191.13c-.07-.08-.16-.28-.22-.43-.04-.09-.09-.19-.15-.3.14.23.27.47.37.73ZM108.83,190.15c-.42-.57-.86-1.03-1.35-1.39.53.37.98.84,1.35,1.39ZM100.32,189.14c.95-.74,2.07-1.19,3.21-1.33.05,0,.11-.01.16-.02-1.33.18-2.71.79-3.73,1.63.11-.1.23-.19.35-.28ZM101.91,197.17c.07.05.14.1.22.15.03.03.06.05.09.08-.11-.07-.21-.15-.31-.22ZM105.03,199.18l-.13-.06c-.19-.1-.5-.31-.81-.53-.06-.04-.11-.07-.16-.11.39.23.77.45,1.1.7ZM104.7,205.48c.09-.94.21-1.88.33-2.81.06-.48.12-.97.18-1.46-.23,2.94-.7,6.04-1.4,9.28.32-1.69.62-3.36.9-5.01ZM96.5,234.28c.26-.57.52-1.14.77-1.71-1.11,2.69-2.35,5.41-3.71,8.18-.08.17-.17.35-.26.52,1.06-2.21,2.1-4.52,3.2-6.99ZM86.68,252.77c.52-.72,1.02-1.46,1.5-2.2-.59.92-1.18,1.81-1.76,2.65.12-.18.22-.34.26-.46Z"/>
        <path class="cls-1" d="M159.72,188.88l-.62.23c-.37.13-.99.34-1.24.97-.28.59-.15,1.29.32,1.78.48.49,1.17.63,1.8.35,3.32-1.59,6.16-1.19,7.44,1.05.28,1.53-1.66,4.14-4.45,5.05-.15.05-.45.08-.79.13-.58.08-1.23.16-1.8.34-1.85.64-2.65,2.47-3.14,4.03-1.98,7.31-3.23,15.62-3.81,25.4v.11s.01.1.01.1c.1.48.42.84.83,1.04.24.12.5.2.8.18.04,0,.09,0,.13-.01.59-.07,1.05-.44,1.27-.97.06-.14.11-.28.12-.44.13-1.87.31-3.73.49-5.59l.23-2.44c.73-6.17,1.62-11.22,2.8-15.87.58-1.9.95-2.73,2.29-2.66,2.58-.34,5.24-1.9,6.78-3.99,1.19-1.62,1.65-3.43,1.3-5.38-.98-2.61-4.03-4.45-7.09-4.3-1.33.01-2.52.45-3.67.88ZM155.49,222.48c-.05.51-.1,1.01-.15,1.52.1-1.19.21-2.37.33-3.51l-.19,2ZM159.08,202.41c.38-.95.91-1.8,1.8-2.11,0,0,0,0,0,0-.9.39-1.43,1.22-1.81,2.11ZM162.35,200.07c-.08,0-.15,0-.22,0,.09-.01.18-.02.26-.04.29-.04.53-.07.72-.11-.25.06-.51.11-.76.15ZM167.89,196.73c-.75,1.02-1.83,1.9-3,2.51,1.81-.95,3.25-2.52,3.85-4.1-.22.64-.54,1.18-.85,1.6ZM168.86,192.54c-.37-.68-.85-1.25-1.41-1.69.61.46,1.11,1.02,1.41,1.69ZM163.42,189.61h.04c.56-.03,1.16.04,1.75.19-.75-.17-1.58-.2-2.44-.1-.31.04-.63.09-.95.16.53-.15,1.06-.25,1.6-.25Z"/>
        <path class="cls-1" d="M138.2,206.64c-.16-.38-.46-.68-.78-.8-3.14-1.58-6.77-3.12-10.14-1.4-1.92.99-3.45,2.82-4.54,5.43-.72,1.77-1.38,3.86-.83,5.94.62,2.86,3.09,5.01,5.76,5.01.34,0,.68-.03,1.02-.07,2.82-.34,5.59-1.87,7.59-4.22,2.08-2.45,3.03-5.49,2.6-8.3-.04-.43-.24-.8-.56-1.06,0-.19-.05-.37-.12-.54ZM128.01,205.87c.12-.06.24-.12.37-.17-.19.09-.38.19-.56.29.07-.04.13-.09.19-.12ZM127.67,206.09c-1.22.77-2.19,1.94-2.89,3.22.78-1.47,1.76-2.54,2.89-3.22ZM123.42,215.24c-.18-.85-.11-1.73.08-2.58-.18.92-.2,1.79-.08,2.58ZM127.66,219.22c-.89,0-1.68-.32-2.34-.82.8.55,1.76.82,2.8.8-.16.01-.31.02-.46.02ZM132.11,217.94c.07-.04.14-.09.21-.13.03-.01.05-.03.08-.04-.1.06-.19.12-.29.17ZM135.05,215.49c-.15.18-.34.32-.5.49.69-.74,1.34-1.61,1.83-2.48-.35.69-.8,1.36-1.33,1.99ZM132.22,205.51c1.31.29,2.62.85,3.88,1.44-1.4-.6-2.82-1.19-3.88-1.44ZM137.36,210c0-.17-.01-.33-.02-.49-.02-.27-.03-.54-.02-.89.06.46.07.92.04,1.38Z"/>
        <path class="cls-1" d="M136.82,191.51c-1.53-.55-3.24-.41-4.67.43-.07.05-.15.11-.23.16-.38.26-.95.64-1.07,1.37-.12.65.18,1.29.77,1.64.59.35,1.29.31,1.82-.12.63-.54,1.42-.75,2.12-.54.64.18,1.12.67,1.4,1.51.05.1.06.14.07.26.03.34.1.72.64,1.32.33.28.76.4,1.18.35.21-.03.42-.09.62-.2.59-.33.91-.96.81-1.59-.08-.68-.31-1.29-.5-1.75-.48-1.31-1.56-2.34-2.96-2.85ZM132.43,193.76c.03-.07.27-.23.39-.32.11-.07.22-.15.23-.17.39-.23.84-.38,1.3-.45-.69.13-1.36.44-1.92.93ZM137.2,193.5c.47.34.83.79,1.04,1.31-.25-.53-.6-.97-1.04-1.31Z"/>
        <path class="cls-1" d="M131.06,186.15c.13-.02.26-.05.38-.1.57-.18.97-.62,1.07-1.18,0,0,0,0,0-.01.34-.3.45-.23,1.06-.67.53-.47.12-1.29-.48-1.36.16-.53.04-1.11-.52-1.56-.75-.59-1.8-.28-2.34.43-.1.13-.2.27-.28.42-.4.4-.59.97-.35,1.45-.14.18-.24.39-.29.62-.11.6.12,1.24.6,1.63.33.27.75.38,1.14.33ZM130.86,184.55s0,0,.02,0l-.05.02h.03Z"/>
        <path class="cls-1" d="M143.45,183.75c-.27.05-.43.23-.51.43-.74.23-1.45.86-1.63,1.62-.25,1.45,1.05,3.39,2.65,2.68,1.24-.67,1.63-2.29,1.72-3.59-.18-.92-1.44-1.17-2.23-1.13Z"/>
        <path class="cls-1" d="M409.75,78.46c-.11-.24-.22-.5-.33-.76-.64-1.48-1.43-3.33-3-4.17l-.23-.08c-.58-.1-.99.07-1.22.24-.65.46-.79,1.29-.91,1.96-.17.74-.35,1.31-.64,2.27l-.08.26c-2.44,7.42-4.51,13.57-6.47,19.27-1.38,2.99-2.18,5.59-3.03,8.34-.32,1.05-.65,2.12-1.03,3.24-2.04,6-4.74,11.87-7.36,17.54l-.58,1.27c-.66,1.52-1.41,3.04-2.13,4.51-1.07,2.18-2.17,4.44-3.04,6.76-.31-.05-.62-.1-.94-.13-5.36-.5-11.04,1.51-14.47,5.13-2.42,2.5-3.18,6.32-2.15,11.19.08.2.14.53.21.88.09.43.18.89.32,1.33-.02.04-.05.08-.09.14-1.63,2.48-3.36,4.95-5.04,7.35-.75,1.07-1.49,2.13-2.2,3.17-.08.11-.16.23-.24.35-.37.45-.46,1.02-.25,1.54.22.56.74.97,1.33,1.05.56.08,1.09-.14,1.47-.64.37-.54.75-1.08,1.13-1.62.5-.72,1.01-1.45,1.51-2.17,1.74-2.49,3.55-5.06,5.17-7.6.6-.74.73-1.67.36-2.32-1.89-5.97-.9-10.08,3.03-12.27,3.13-2.17,8.06-2.91,11.99-1.81,1.87.53,4.35,1.7,5.52,4.34,1.9,3.82,1.98,7.76.23,10.25-2.08,2.65-5.33,5.06-8.48,7.39-.89.66-1.78,1.32-2.65,1.99-2.83,2.23-5.55,5.05-8.3,8.62-.31.41-.57.79-.84,1.18-.49.7-.95,1.39-1.35,2.08-.18.38-.19.84-.02,1.24s.48.73.96.93c.27.07.51.09.73.06.13-.02.23-.07.34-.12.69-.26,1.08-.94,1.34-1.43.17-.32.34-.65.64-.96,1.74-2.45,4.24-5.32,6.39-7.3,1.63-1.5,3.5-2.87,5.31-4.19,3.36-2.45,6.83-4.99,9.2-8.7,2.13-4.21,1.1-9.07-.7-12.55.49-.99.81-2.05,1.11-3.08.22-.75.42-1.46.68-2.12.57-1.33,1.17-2.84,1.77-4.37,1.14-2.88,2.32-5.85,3.38-7.86,9.92-6.5,14.77-15.8,15.73-30.1.7-7.36,0-13.91-2.08-19.49l-.02-.05ZM407.47,77.26c-.16-.31-.35-.62-.55-.95l-.41-.66c.37.45.69,1.02.96,1.6ZM405.65,75.86c.03-.2.11-.65.21-.79,0,0,.02.01.03.02l-.28.94c.01-.05.02-.11.04-.16ZM398.35,98.07c-.02.05-.03.1-.05.15-.3.64-.57,1.26-.81,1.87.26-.66.55-1.33.87-2.02ZM392.05,115.64c-1.5,3.7-3.15,7.34-4.82,10.92,1.64-3.56,3.31-7.21,4.82-10.92ZM383.96,133.52c-.83,1.79-1.66,3.6-2.47,5.42.73-1.83,1.6-3.65,2.47-5.42ZM388.74,141.99c-.19.65-.38,1.27-.6,1.86,0,0-.01-.02-.02-.03.22-.66.44-1.32.67-1.99-.01.05-.03.1-.04.15ZM391.24,135.36c-.44,1.1-.87,2.18-1.29,3.21.47-1.24.96-2.49,1.49-3.73-.07.17-.14.35-.21.52ZM393.06,130.89c.44-1.12.91-2.23,1.5-3.26-.49.95-.99,2.06-1.5,3.26ZM395.86,126.33c1.62-1.21,3.05-2.39,4.28-3.52-1.3,1.25-2.7,2.44-4.28,3.52ZM403.17,116.83c-1.53,2.61-4.67,5.64-9.31,8.98l-.2.21c-1.06,1.62-1.77,3.43-2.44,5.18-.27.7-.54,1.4-.83,2.07-1.36,3.05-2.49,6.17-3.5,9.16-1.15-1.08-2.53-1.92-4.08-2.52,1.35-3.03,2.79-6.09,4.18-9.05,3.16-6.71,6.43-13.64,8.87-20.81.39-1.18.73-2.28,1.06-3.35.8-2.59,1.55-5.04,2.87-7.89.68-2.02,1.37-4.03,2.06-6.04,1.56-4.55,3.17-9.23,4.6-13.92.03.08.06.15.09.22,2.42,6,2.95,12.83,1.73,22.15-.65,6.2-2.17,10.86-5.1,15.61ZM409.4,104.77c.19-1.08.34-2.19.46-3.36.14-1.04.27-2.14.37-3.27-.17,2.35-.44,4.56-.83,6.63ZM408.21,78.95s.04.1.07.15c.22.6.43,1.2.62,1.82-.2-.66-.43-1.32-.68-1.97Z"/>
      </g>
    </g>
  </g>
</svg>