<?xml version="1.0" encoding="UTF-8"?>
<svg id="_レイヤー_2" data-name="レイヤー_2" xmlns="http://www.w3.org/2000/svg" viewBox="0 0 3391.63 422.64">
  <defs>
    <style>
      .cls-1 {
        fill: #231815;
      }
    </style>
  </defs>
  <g id="contents">
    <g>
      <path d="M339.97,223.29c-25.14-13.66-65.54-30.08-114.5-30.08-10.85,0-21.93.84-32.93,2.51-2.15.33-4.08,1.52-5.32,3.31-1.18,1.71-1.64,3.81-1.29,5.84-15.18,2.85-29.6,7.18-42.98,12.46C59.25,229.87,0,260.92,0,297.24c0,47.41,100.95,85.84,225.47,85.84s225.47-38.43,225.47-85.84c0-31.49-44.56-59.02-110.98-73.96ZM306.85,232.02l5.79,5.79-9.64,9.64-9.64-9.64,7.98-7.98c1.88.72,3.71,1.45,5.5,2.19ZM344.18,295.63l6.65-13.46,13.46,6.65-6.65,13.46-13.46-6.65ZM272.37,287.68l-5.51,11.9-11.9-5.51,5.51-11.9,11.9,5.51ZM245.7,234.18l-6.95,13.28-13.28-6.95,6.95-13.28,13.28,6.95ZM292.43,317.96l15.11-6.04,6.04,15.11-9.43,3.77c-2.04.36-4.09.7-6.17,1.03l-5.55-13.87ZM189.51,218.69c3.95,12.99,7.58,19.4,11.42,26.16,4.1,7.22,8.35,14.7,12.82,30.5,4.48,15.8,4.79,24.39,5.08,32.7.28,7.93.56,15.46,4.24,29.15-44.3-.2-85.66-5.97-116.71-16.29-28.29-9.41-41.28-20.8-41.45-27.47.25-1.58,2.73-7.41,11.52-16.73,6.24-6.61,17.36-16.78,34.88-27.64,15.37-9.52,43.07-23.92,78.17-30.37ZM377.11,346.56c-40.22,15.31-94.07,23.74-151.64,23.74s-111.42-8.43-151.64-23.74c-36.03-13.72-56.69-31.69-56.69-49.31s20.66-35.6,56.69-49.31c8.13-3.09,16.82-5.9,25.98-8.42-30.41,19.71-49.12,42.01-49.12,53.78,0,32.11,78.25,58.15,174.78,58.15.71,0,1.42,0,2.13,0,.37.99.75,1.96,1.14,2.9,1.22,2.98,4.11,4.91,7.32,4.91.05,0,.11,0,.16,0,43.38-.86,84.35-7.01,115.35-17.33,46.79-15.56,56.61-35.03,56.61-48.62,0-12.32-12.2-29.31-31.95-45.7.3.11.6.22.9.34,36.03,13.72,56.69,31.69,56.69,49.31s-20.66,35.6-56.69,49.31Z"/>
      <g>
        <path d="M568.41,51.18c-3.17-11.68-10.73-21.68-21.3-28.15-10.57-6.47-22.91-8.66-34.76-6.16-11.45,2.41-21.11,8.91-27.41,18.36-17.21,3.77-43.57,8.39-69.21,8.39-67.9,0-80.88-28.5-122.87-39.9-47.32-12.86-67.38,11.83-67.38,11.83,63.04,14.52,66.23,72.51,119.3,94.43l-11.13,28.86c-2.41,6.25,1.1,11.36,7.8,11.36h81.55c6.7,0,10.21-5.11,7.8-11.36l-9.52-24.68c40.28-12.59,65.39-49.96,76.44-70.24,4.04-6.13,10.34-10.36,17.83-11.94,7.97-1.68,16.32-.18,23.52,4.22,7.19,4.4,12.33,11.16,14.46,19.02,2.09,7.7,1.03,15.56-2.99,22.12-8.38,13.68-27.15,17.5-41.85,8.5-3.64-2.22-8.39-1.08-10.61,2.55-2.23,3.64-1.08,8.39,2.55,10.61,7.89,4.83,16.6,7.14,25.12,7.14,15.18,0,29.75-7.33,37.96-20.75,6.25-10.22,7.93-22.37,4.72-34.21Z"/>
        <rect x="327.41" y="156.02" width="107.14" height="19.59" rx="5.3" ry="5.3"/>
      </g>
    </g>
    <g>
      <path class="cls-1" d="M857.38,301.94c-8.29,17.09-21.11,30.62-38.46,40.59-17.36,9.97-37.24,14.96-59.63,14.96-25.08,0-47.09-6-66.01-17.98-18.93-11.98-33.71-28.96-44.34-50.91-10.64-21.95-15.96-47.89-15.96-77.79s5.32-55.07,15.96-76.91c10.63-21.83,25.42-38.74,44.34-50.74,18.92-11.98,40.82-17.98,65.68-17.98,15.9,0,30.34,2.38,43.34,7.12,12.99,4.75,24.07,11.28,33.26,19.58,9.18,8.32,15.9,17.81,20.16,28.49l-11.09,10.68c-9.63-18.28-21.83-30.98-36.62-38.1-14.78-7.12-31.13-10.68-49.05-10.68-21.95,0-41.15,5.34-57.61,16.02-16.46,10.68-29.28,25.63-38.47,44.86-9.19,19.23-13.77,41.78-13.77,67.65s4.59,49.25,13.77,68.71c9.18,19.47,22.06,34.54,38.63,45.22,16.57,10.68,35.83,16.02,57.78,16.02,17.47,0,33.54-3.68,48.21-11.03,14.67-7.35,27.83-20.41,39.47-39.16l10.41,11.39ZM832.52,275.23c-8.73,14.25-19.15,24.74-31.24,31.51-12.09,6.77-24.3,10.15-36.62,10.15-14.78,0-28.39-3.92-40.82-11.75-12.43-7.83-22.34-19.58-29.73-35.25-7.39-15.67-11.09-35.36-11.09-59.1s3.7-42.01,11.09-57.68c7.39-15.67,17.24-27.47,29.56-35.43,12.31-7.95,25.87-11.93,40.65-11.93,11.87,0,23.74,3.26,35.61,9.79,11.87,6.53,21.61,16.8,29.22,30.8l-11.76,11.39c-2.69-6.41-6.78-12.28-12.26-17.62-5.49-5.34-11.81-9.55-18.98-12.64-7.17-3.08-14.45-4.63-21.84-4.63-12.09,0-23.07,3.44-32.92,10.32-9.86,6.89-17.69,16.85-23.51,29.91-5.83,13.06-8.73,28.96-8.73,47.71s2.91,35.84,8.73,49.13c5.82,13.29,13.66,23.27,23.51,29.91,9.85,6.65,20.94,9.97,33.26,9.97,7.39,0,14.72-1.6,22-4.81,7.27-3.2,13.94-7.59,19.99-13.17,6.05-5.57,10.63-12.04,13.77-19.4l12.09,12.82Z"/>
      <path class="cls-1" d="M1014.26,332.2c-4.7,7.12-11.92,12.64-21.67,16.55-9.74,3.92-22.23,5.88-37.46,5.88-20.83,0-37.4-6.64-49.72-19.94-12.32-13.29-18.48-30.74-18.48-52.34v-130.31h16.12v130.31c0,16.62,4.7,30.03,14.11,40.23,9.4,10.21,22.06,15.31,37.96,15.31,8.51,0,17.02-.83,25.53-2.5,8.51-1.66,16.91-5.51,25.19-11.57,8.28-6.05,16.46-15.49,24.52-28.3v54.83h-16.13v-18.16ZM1025.01,152.05v125.33c-3.59,13.77-10.19,24.27-19.82,31.51-9.63,7.24-20.49,10.86-32.59,10.86s-22.51-4.09-30.57-12.28c-8.06-8.19-12.09-20.12-12.09-35.78v-119.63h16.13v119.63c0,9.97,2.46,17.63,7.39,22.97,4.92,5.34,11.31,8.01,19.15,8.01,8.51,0,16.13-2.37,22.84-7.12,6.72-4.75,11.2-11.51,13.44-20.3v-123.19h16.13ZM1051.55,152.05h16.13v198.32h-16.13v-198.32Z"/>
      <path class="cls-1" d="M1113.36,152.05h16.13v198.32h-16.13v-198.32ZM1232.28,164.86c-13.66,0-25.53,1.42-35.61,4.27-10.08,2.85-19.04,7.72-26.87,14.6-7.84,6.89-15.12,16.62-21.84,29.2v-60.88h16.13v19.58c6.72-8.55,14.95-14.66,24.69-18.34s23.35-5.64,40.82-5.88l2.69,17.45ZM1156.02,220.4c6.94-14,15.4-24.03,25.36-30.09,9.96-6.05,22.79-9.08,38.47-9.08,2.46,0,4.92.06,7.39.18,2.46.12,5.04.3,7.73.54l3.02,18.52c-3.81-.95-7.56-1.6-11.25-1.96-3.7-.36-7.22-.54-10.58-.54-21.95,0-36.62,8.78-44.01,26.35v126.04h-16.13v-129.96Z"/>
      <path class="cls-1" d="M1264.53,152.05h16.13v198.32h-16.13v-198.32ZM1383.45,164.86c-13.66,0-25.53,1.42-35.61,4.27-10.08,2.85-19.04,7.72-26.87,14.6-7.84,6.89-15.12,16.62-21.84,29.2v-60.88h16.13v19.58c6.72-8.55,14.95-14.66,24.69-18.34,9.74-3.68,23.35-5.64,40.82-5.88l2.69,17.45ZM1307.19,220.4c6.94-14,15.4-24.03,25.36-30.09,9.96-6.05,22.79-9.08,38.47-9.08,2.46,0,4.92.06,7.39.18,2.46.12,5.04.3,7.73.54l3.02,18.52c-3.81-.95-7.56-1.6-11.25-1.96-3.7-.36-7.22-.54-10.58-.54-21.95,0-36.62,8.78-44.01,26.35v126.04h-16.13v-129.96Z"/>
      <path class="cls-1" d="M1413.68,152.4l75.92,189.06c-3.81,9.73-7.67,17.62-11.59,23.68-3.92,6.05-8.51,10.62-13.77,13.71-5.26,3.08-11.92,5.22-19.99,6.41-8.06,1.19-18.26,1.9-30.57,2.14l-5.04-17.45c14.56,0,25.81-.59,33.76-1.78,7.95-1.19,14.05-3.8,18.31-7.83,4.25-4.04,7.95-10.32,11.09-18.87l-75.25-189.06h17.13ZM1589.04,152.4l-63.15,202.59c-7.62,24.45-19.6,41.84-35.95,52.16-16.35,10.32-38.41,15.49-66.18,15.49l-4.7-16.73c15.45-.24,29.11-1.78,40.98-4.63,11.87-2.85,22.06-8.25,30.57-16.2,8.51-7.95,15.12-19.64,19.82-35.07l61.47-197.61h17.13ZM1440.89,152.4h17.47l29.56,79.75c2.24,5.94,4.65,13.24,7.22,21.9,2.57,8.66,4.31,16.68,5.21,24.03h.67c1.12-7.83,2.63-15.84,4.53-24.03,1.9-8.19,3.64-15.25,5.21-21.19l21.16-80.47h16.8l-38.63,144.56h-15.45l-53.75-144.56Z"/>
      <path class="cls-1" d="M1863.16,89.73h-54.42l-82.3,260.63h-16.8l87.34-277.72h77.93l87.34,277.72h-17.47l-81.63-260.63ZM1879.95,285.21h-88.69l-20.83,65.16h-16.8l26.2-82.25h111.87l25.19,82.25h-16.79l-20.16-65.16ZM1825.53,117.86h19.49l40.31,129.95h-100.11l40.31-129.95ZM1863.16,230.73c-1.12-3.79-2.91-9.49-5.37-17.09-2.47-7.59-5.15-16.08-8.06-25.45-2.91-9.37-5.6-18.75-8.06-28.13-2.47-9.37-4.26-17.74-5.37-25.1h-2.02c-1.12,7.12-2.85,15.37-5.21,24.74-2.35,9.38-4.99,18.75-7.9,28.13-2.91,9.38-5.6,17.93-8.06,25.64-2.47,7.71-4.26,13.47-5.37,17.26h55.43Z"/>
      <path class="cls-1" d="M2117.79,330.42c-3.35,5.7-8.17,10.32-14.44,13.89-6.27,3.56-13.1,6.17-20.49,7.83-7.39,1.66-14.44,2.49-21.16,2.49-16.58,0-31.41-3.92-44.51-11.75s-23.4-19.4-30.9-34.72c-7.51-15.31-11.25-34.23-11.25-56.79s4.03-41.89,12.09-57.33c8.06-15.42,18.64-27.06,31.74-34.89,13.1-7.83,27.15-11.75,42.16-11.75,10.97,0,20.27,1.49,27.89,4.45,7.61,2.97,13.77,6.94,18.47,11.93v-91.15h16.13v126.75c-8.29-10.44-15.9-18.09-22.85-22.96-6.94-4.86-13.61-8.07-19.98-9.61-6.39-1.54-12.93-2.31-19.66-2.31-12.32,0-23.79,3.33-34.43,9.97-10.64,6.65-19.21,16.44-25.7,29.38-6.5,12.94-9.74,28.78-9.74,47.53,0,28.01,6.61,49.43,19.82,64.27,13.21,14.84,30.12,22.25,50.73,22.25,8.28,0,16.63-1.25,25.02-3.74,8.4-2.49,16.63-7.35,24.7-14.59,8.06-7.24,15.56-18.1,22.51-32.58v63.38h-16.13v-19.94ZM2124.84,263.48c0,10.68-2.35,20.3-7.05,28.84-4.7,8.55-10.81,15.26-18.31,20.12-7.5,4.87-15.74,7.3-24.69,7.3-16.13,0-29.52-5.51-40.15-16.55-10.63-11.04-15.95-27.95-15.95-50.74,0-15.67,2.63-28.6,7.9-38.81,5.26-10.2,12.15-17.8,20.66-22.78,8.51-4.98,17.58-7.48,27.21-7.48,12.09,0,22.62,3.97,31.58,11.92,8.96,7.96,15.23,17.27,18.81,27.95v40.23ZM2108.72,226.1c-2.24-6.88-6.33-12.87-12.27-17.98s-13.27-7.65-22-7.65c-10.98,0-20.32,4.39-28.05,13.17-7.73,8.78-11.59,21.72-11.59,38.81s3.69,29.14,11.08,37.56c7.39,8.43,17.02,12.64,28.9,12.64,9.4,0,17.41-3.61,24.01-10.86,6.61-7.24,9.91-16.68,9.91-28.31v-37.38ZM2150.04,72.64h16.13v277.72h-16.13V72.64Z"/>
      <path class="cls-1" d="M2344.54,330.42c-3.36,5.7-8.18,10.32-14.44,13.89-6.27,3.56-13.1,6.17-20.49,7.83-7.39,1.66-14.44,2.49-21.16,2.49-16.58,0-31.41-3.92-44.51-11.75-13.1-7.83-23.41-19.4-30.91-34.72-7.51-15.31-11.25-34.23-11.25-56.79s4.03-41.89,12.09-57.33c8.06-15.42,18.64-27.06,31.74-34.89,13.1-7.83,27.15-11.75,42.16-11.75,10.97,0,20.27,1.49,27.88,4.45,7.61,2.97,13.77,6.94,18.48,11.93v-91.15h16.13v126.75c-8.29-10.44-15.9-18.09-22.84-22.96-6.94-4.86-13.61-8.07-19.99-9.61-6.38-1.54-12.93-2.31-19.65-2.31-12.32,0-23.8,3.33-34.43,9.97-10.64,6.65-19.21,16.44-25.7,29.38-6.5,12.94-9.74,28.78-9.74,47.53,0,28.01,6.6,49.43,19.82,64.27,13.21,14.84,30.12,22.25,50.72,22.25,8.28,0,16.63-1.25,25.03-3.74,8.4-2.49,16.63-7.35,24.69-14.59,8.06-7.24,15.56-18.1,22.51-32.58v63.38h-16.13v-19.94ZM2351.6,263.48c0,10.68-2.35,20.3-7.05,28.84-4.7,8.55-10.81,15.26-18.31,20.12-7.5,4.87-15.74,7.3-24.69,7.3-16.13,0-29.51-5.51-40.15-16.55-10.64-11.04-15.96-27.95-15.96-50.74,0-15.67,2.63-28.6,7.9-38.81,5.26-10.2,12.15-17.8,20.66-22.78,8.51-4.98,17.58-7.48,27.21-7.48,12.09,0,22.62,3.97,31.58,11.92,8.95,7.96,15.23,17.27,18.81,27.95v40.23ZM2335.47,226.1c-2.24-6.88-6.33-12.87-12.26-17.98-5.94-5.1-13.27-7.65-22-7.65-10.98,0-20.32,4.39-28.05,13.17-7.73,8.78-11.59,21.72-11.59,38.81s3.7,29.14,11.09,37.56c7.39,8.43,17.02,12.64,28.89,12.64,9.4,0,17.41-3.61,24.02-10.86,6.61-7.24,9.91-16.68,9.91-28.31v-37.38ZM2376.79,72.64h16.13v277.72h-16.13V72.64Z"/>
      <path class="cls-1" d="M2438.61,72.64h16.12v55.55h-16.12v-55.55ZM2439.61,152.05h16.13v198.32h-16.13v-198.32ZM2482.61,152.05h16.13v198.32h-16.13v-198.32ZM2483.28,72.64h16.13v55.55h-16.13v-55.55Z"/>
      <path class="cls-1" d="M2710.71,326.15c-9.19,9.5-19.54,16.62-31.07,21.36-11.54,4.75-26.26,7.12-44.18,7.12s-34.21-3.92-49.55-11.75c-15.34-7.83-27.66-19.4-36.95-34.72-9.3-15.31-13.94-34.36-13.94-57.14,0-21.12,4.25-39.46,12.76-55.01,8.51-15.55,20.33-27.53,35.44-35.96,15.11-8.42,32.53-12.64,52.23-12.64,16.57,0,30.45,2.02,41.66,6.05,11.2,4.04,21.27,9.86,30.23,17.45l-6.05,15.67c-10.3-8.31-20.55-14.06-30.74-17.27-10.19-3.2-21.89-4.81-35.11-4.81-16.35,0-30.91,3.51-43.67,10.5-12.77,7-22.74,16.97-29.9,29.91-7.17,12.94-10.75,28.3-10.75,46.11,0,18.99,3.91,34.95,11.76,47.89,7.84,12.94,18.19,22.67,31.07,29.2,12.88,6.53,26.71,9.79,41.49,9.79,15.67,0,28.83-2.14,39.47-6.41,10.63-4.27,20.44-11.27,29.4-21.01l6.38,15.67ZM2699.29,298.38c-8.06,8.54-16.8,14.72-26.2,18.52-9.41,3.8-18.7,5.69-27.89,5.69-11.65,0-22.56-2.54-32.75-7.65-10.19-5.1-18.43-13-24.69-23.68-6.27-10.68-9.4-24.09-9.4-40.23s3.24-29.38,9.74-39.7c6.49-10.32,14.78-18.04,24.86-23.14,10.07-5.1,20.38-7.65,30.91-7.65,8.51,0,17.18,1.6,26.03,4.81,8.85,3.21,17.41,8.61,25.7,16.2l-6.72,17.44c-5.6-7.35-12.38-12.75-20.32-16.2-7.96-3.44-16.18-5.16-24.69-5.16-7.85,0-15.57,1.9-23.18,5.69-7.61,3.8-13.89,9.68-18.81,17.63-4.93,7.95-7.39,17.98-7.39,30.09s2.4,22.55,7.22,30.62c4.81,8.07,11.09,14.07,18.81,17.98,7.73,3.92,15.96,5.87,24.69,5.87s17.19-2.13,26.04-6.41c8.84-4.27,15.84-10.08,21-17.45l7.06,16.74Z"/>
      <path class="cls-1" d="M2726.49,152.05h29.56v-61.95h16.13v79.04h-45.69v-17.09ZM2843.4,354.63c-21.95,0-39.53-1.84-52.74-5.52-13.22-3.68-22.73-10.2-28.55-19.58-5.83-9.37-8.73-22.37-8.73-38.99v-90.44h-26.87v-17.09h43v107.53c0,13.05,2.46,23.03,7.39,29.91,4.93,6.89,13.04,11.51,24.35,13.88,11.31,2.38,26.48,3.68,45.52,3.92l-3.36,16.38ZM2796.03,90.09h16.13v61.95h31.58v17.09h-47.7v-79.04ZM2850.46,320.81c-12.1,0-21.78-.54-29.06-1.6-7.28-1.07-12.77-3.03-16.46-5.88s-6.1-7.18-7.22-13c-1.12-5.81-1.68-13.58-1.68-23.32v-94h47.7v17.09h-31.58v76.9c0,8.55.84,14.72,2.52,18.52,1.68,3.8,5.48,6.11,11.42,6.94,5.93.83,15.17,1.25,27.72,1.25l-3.36,17.09Z"/>
      <path class="cls-1" d="M2882.03,72.64h16.12v55.55h-16.12v-55.55ZM2883.04,152.05h16.13v198.32h-16.13v-198.32ZM2926.04,152.05h16.13v198.32h-16.13v-198.32ZM2926.71,72.64h16.13v55.55h-16.13v-55.55Z"/>
      <path class="cls-1" d="M3175.29,251.38c0,20.89-3.92,39.05-11.76,54.47-7.84,15.43-19.1,27.42-33.76,35.96-14.67,8.54-32.2,12.82-52.57,12.82s-37.96-4.27-52.74-12.82c-14.78-8.55-26.15-20.53-34.1-35.96-7.95-15.42-11.92-33.59-11.92-54.47s3.97-39.46,11.92-55.01c7.95-15.55,19.31-27.59,34.1-36.14,14.78-8.54,32.36-12.82,52.74-12.82s37.9,4.27,52.57,12.82c14.67,8.55,25.92,20.6,33.76,36.14,7.84,15.55,11.76,33.88,11.76,55.01ZM3159.17,251.38c0-17.56-3.3-32.88-9.91-45.93-6.61-13.05-16.01-23.15-28.22-30.26-12.21-7.12-26.82-10.68-43.84-10.68s-31.69,3.56-44.01,10.68c-12.32,7.12-21.83,17.21-28.55,30.26-6.72,13.05-10.07,28.37-10.07,45.93s3.36,32.52,10.07,45.57c6.72,13.06,16.24,23.14,28.55,30.26,12.32,7.12,26.99,10.68,44.01,10.68s31.63-3.56,43.84-10.68c12.21-7.12,21.61-17.21,28.22-30.26,6.61-13.05,9.91-28.25,9.91-45.57ZM3077.2,322.95c-16.13,0-29.34-6.29-39.64-18.87-10.31-12.58-15.46-30.14-15.46-52.69s5.15-40.06,15.46-52.52c10.3-12.46,23.52-18.69,39.64-18.69s29.22,6.23,39.3,18.69c10.08,12.46,15.12,29.97,15.12,52.52s-5.04,40.71-15.12,53.05c-10.08,12.34-23.18,18.52-39.3,18.52ZM3077.2,305.86c11.86,0,21.21-4.86,28.05-14.6,6.83-9.73,10.25-23.02,10.25-39.87s-3.42-30.09-10.25-39.7c-6.83-9.61-16.18-14.42-28.05-14.42s-21.33,4.81-28.39,14.42c-7.06,9.61-10.58,22.85-10.58,39.7s3.53,29.85,10.58,39.7c7.05,9.85,16.51,14.78,28.39,14.78Z"/>
      <path class="cls-1" d="M3210.9,152.05h16.12v198.32h-16.12v-198.32ZM3375.51,220.05c0-10.2-2.13-19.52-6.38-27.95-4.26-8.42-10.24-15.13-17.97-20.12-7.73-4.98-16.96-7.48-27.72-7.48-8.51,0-17.02.84-25.53,2.49-8.51,1.67-16.91,5.46-25.2,11.39-8.29,5.94-16.46,15.43-24.52,28.49v-54.83h16.13v18.16c4.7-7.12,11.93-12.7,21.67-16.74,9.74-4.03,22.22-6.05,37.45-6.05,13.88,0,25.92,3.26,36.11,9.79,10.19,6.53,18.08,15.31,23.68,26.34,5.6,11.04,8.4,23.2,8.4,36.5v130.31h-16.13v-130.31ZM3332.51,230.73c0-9.97-2.47-17.62-7.39-22.96-4.93-5.34-11.31-8.01-19.15-8.01-8.29,0-15.79,2.38-22.51,7.12-6.72,4.75-11.31,11.51-13.77,20.29v123.19h-16.13v-125.33c3.8-14,10.47-24.57,19.99-31.69,9.51-7.12,20.32-10.68,32.42-10.68s22.78,4.1,30.74,12.29c7.95,8.19,11.92,20.11,11.92,35.78v119.63h-16.13v-119.63Z"/>
    </g>
  </g>
</svg>