<?xml version="1.0" encoding="UTF-8"?>
<svg id="_レイヤー_2" data-name="レイヤー_2" xmlns="http://www.w3.org/2000/svg" viewBox="0 0 570 366">
  <g id="contents">
    <g>
      <path d="M429.72,38.02C397.95,20.76,346.89,0,285,0c-13.72,0-27.72,1.07-41.62,3.17-2.72.41-5.15,1.93-6.72,4.19-1.5,2.16-2.07,4.81-1.63,7.39-19.18,3.61-37.42,9.07-54.33,15.75C74.9,46.34,0,85.59,0,131.5c0,59.92,127.6,108.5,285,108.5s285-48.58,285-108.5c0-39.81-56.32-74.6-140.28-93.48ZM387.86,49.05l7.32,7.32-12.18,12.18-12.18-12.18,10.09-10.09c2.37.91,4.69,1.83,6.95,2.77ZM435.05,129.45l8.41-17.01,17.01,8.41-8.41,17.01-17.01-8.41ZM344.28,119.41l-6.96,15.05-15.05-6.96,6.96-15.05,15.05,6.96ZM310.56,51.78l-8.78,16.78-16.78-8.78,8.78-16.78,16.78,8.78ZM369.63,157.69l19.1-7.64,7.64,19.1-11.92,4.77c-2.58.45-5.18.88-7.8,1.3l-7.01-17.53ZM239.55,32.2c4.99,16.42,9.59,24.53,14.44,33.06,5.19,9.13,10.55,18.58,16.21,38.55,5.66,19.98,6.05,30.83,6.43,41.33.36,10.03.71,19.54,5.36,36.85-55.99-.25-108.28-7.54-147.52-20.59-35.76-11.9-52.17-26.29-52.39-34.72.31-2,3.46-9.37,14.57-21.15,7.89-8.36,21.94-21.21,44.09-34.94,19.43-12.04,54.44-30.24,98.81-38.39ZM476.67,193.83c-50.84,19.35-118.91,30.01-191.67,30.01s-140.84-10.66-191.67-30.01c-45.54-17.34-71.66-40.06-71.66-62.33s26.12-44.99,71.66-62.33c10.27-3.91,21.26-7.46,32.84-10.65-38.43,24.92-62.09,53.1-62.09,67.98,0,40.59,98.91,73.5,220.93,73.5.9,0,1.79,0,2.69-.01.47,1.25.95,2.48,1.44,3.67,1.54,3.76,5.2,6.21,9.25,6.21.07,0,.13,0,.2,0,54.84-1.09,106.62-8.86,145.8-21.9,59.14-19.67,71.55-44.28,71.55-61.46,0-15.58-15.42-37.04-40.38-57.76.38.14.76.28,1.13.42,45.54,17.34,71.66,40.06,71.66,62.33s-26.12,44.99-71.66,62.33Z"/>
      <path d="M470.34,325c0-5.5-4.5-9.88-10-9.73l-201.56,4.5c-5.5.15-13.27-2.81-17.28-6.58,0,0-17.21-20.19-43.64-20.19-31.55,0-61.37,16.34-61.37,36.5s29.82,36.5,61.37,36.5c26.43,0,43.64-20.19,43.64-20.19,4.01-3.77,11.78-6.73,17.28-6.58l201.56,4.5c5.5.15,10-4.23,10-9.73v-9Z"/>
    </g>
  </g>
</svg>