<?xml version="1.0" encoding="UTF-8"?>
<svg id="_レイヤー_2" data-name="レイヤー_2" xmlns="http://www.w3.org/2000/svg" viewBox="0 0 570 383.08">
  <g id="contents">
    <g>
      <path d="M339.97,223.29c-25.14-13.66-65.54-30.08-114.5-30.08-10.85,0-21.93.84-32.93,2.51-2.15.33-4.08,1.52-5.32,3.31-1.18,1.71-1.64,3.81-1.29,5.84-15.18,2.85-29.6,7.18-42.98,12.46C59.25,229.87,0,260.92,0,297.24c0,47.41,100.95,85.84,225.47,85.84s225.47-38.43,225.47-85.84c0-31.49-44.56-59.02-110.98-73.96ZM306.85,232.02l5.79,5.79-9.64,9.64-9.64-9.64,7.98-7.98c1.88.72,3.71,1.45,5.5,2.19ZM344.18,295.63l6.65-13.46,13.46,6.65-6.65,13.46-13.46-6.65ZM272.37,287.68l-5.51,11.9-11.9-5.51,5.51-11.9,11.9,5.51ZM245.7,234.18l-6.95,13.28-13.28-6.95,6.95-13.28,13.28,6.95ZM292.43,317.96l15.11-6.04,6.04,15.11-9.43,3.77c-2.04.36-4.09.7-6.17,1.03l-5.55-13.87ZM189.51,218.69c3.95,12.99,7.58,19.4,11.42,26.16,4.1,7.22,8.35,14.7,12.82,30.5,4.48,15.8,4.79,24.39,5.08,32.7.28,7.93.56,15.46,4.24,29.15-44.3-.2-85.66-5.97-116.71-16.29-28.29-9.41-41.28-20.8-41.45-27.47.25-1.58,2.73-7.41,11.52-16.73,6.24-6.61,17.36-16.78,34.88-27.64,15.37-9.52,43.07-23.92,78.17-30.37ZM377.11,346.56c-40.22,15.31-94.07,23.74-151.64,23.74s-111.42-8.43-151.64-23.74c-36.03-13.72-56.69-31.69-56.69-49.31s20.66-35.6,56.69-49.31c8.13-3.09,16.82-5.9,25.98-8.42-30.41,19.71-49.12,42.01-49.12,53.78,0,32.11,78.25,58.15,174.78,58.15.71,0,1.42,0,2.13,0,.37.99.75,1.96,1.14,2.9,1.22,2.98,4.11,4.91,7.32,4.91.05,0,.11,0,.16,0,43.38-.86,84.35-7.01,115.35-17.33,46.79-15.56,56.61-35.03,56.61-48.62,0-12.32-12.2-29.31-31.95-45.7.3.11.6.22.9.34,36.03,13.72,56.69,31.69,56.69,49.31s-20.66,35.6-56.69,49.31Z"/>
      <g>
        <path d="M568.41,51.18c-3.17-11.68-10.73-21.68-21.3-28.15-10.57-6.47-22.91-8.66-34.76-6.16-11.45,2.41-21.11,8.91-27.41,18.36-17.21,3.77-43.57,8.39-69.21,8.39-67.9,0-80.88-28.49-122.87-39.9-47.32-12.86-67.38,11.83-67.38,11.83,63.04,14.52,66.23,72.51,119.3,94.43l-11.13,28.86c-2.41,6.25,1.1,11.36,7.8,11.36h81.55c6.7,0,10.21-5.11,7.8-11.36l-9.52-24.68c40.28-12.59,65.39-49.96,76.44-70.24,4.04-6.13,10.34-10.36,17.83-11.94,7.97-1.68,16.32-.18,23.52,4.22,7.19,4.4,12.33,11.16,14.46,19.02,2.09,7.7,1.03,15.56-2.99,22.12-8.38,13.68-27.15,17.5-41.85,8.5-3.64-2.22-8.39-1.08-10.61,2.55-2.23,3.64-1.08,8.39,2.55,10.61,7.89,4.83,16.6,7.14,25.12,7.14,15.18,0,29.75-7.33,37.96-20.75,6.25-10.22,7.93-22.37,4.72-34.21Z"/>
        <rect x="327.41" y="156.02" width="107.14" height="19.59" rx="5.3" ry="5.3"/>
      </g>
    </g>
  </g>
</svg>