<?xml version="1.0" encoding="UTF-8"?>
<svg id="_レイヤー_2" data-name="レイヤー_2" xmlns="http://www.w3.org/2000/svg" viewBox="0 0 591.26 502.82">
  <defs>
    <style>
      .cls-1 {
        fill: #231815;
      }
    </style>
  </defs>
  <g id="contents">
    <g>
      <path d="M344.39,223.29c-25.14-13.66-65.54-30.08-114.5-30.08-10.85,0-21.93.84-32.93,2.51-2.15.33-4.08,1.52-5.32,3.31-1.18,1.71-1.64,3.81-1.29,5.84-15.18,2.85-29.6,7.18-42.98,12.46C63.68,229.87,4.42,260.92,4.42,297.24c0,47.41,100.95,85.84,225.47,85.84s225.47-38.43,225.47-85.84c0-31.49-44.56-59.02-110.98-73.96ZM311.27,232.02l5.79,5.79-9.64,9.64-9.64-9.64,7.98-7.98c1.88.72,3.71,1.45,5.5,2.19ZM348.61,295.63l6.65-13.46,13.46,6.65-6.65,13.46-13.46-6.65ZM276.79,287.68l-5.51,11.9-11.9-5.51,5.51-11.9,11.9,5.51ZM250.12,234.18l-6.95,13.28-13.28-6.95,6.95-13.28,13.28,6.95ZM296.85,317.96l15.11-6.04,6.04,15.11-9.43,3.77c-2.04.36-4.09.7-6.17,1.03l-5.55-13.87ZM193.94,218.69c3.95,12.99,7.58,19.4,11.42,26.16,4.1,7.22,8.35,14.7,12.82,30.5,4.48,15.8,4.79,24.39,5.08,32.7.28,7.93.56,15.46,4.24,29.15-44.3-.2-85.66-5.97-116.71-16.29-28.29-9.41-41.28-20.8-41.45-27.47.25-1.58,2.73-7.41,11.52-16.73,6.24-6.61,17.36-16.78,34.88-27.64,15.37-9.52,43.07-23.92,78.17-30.37ZM381.54,346.56c-40.22,15.31-94.07,23.74-151.64,23.74s-111.42-8.43-151.64-23.74c-36.03-13.72-56.69-31.69-56.69-49.31s20.66-35.6,56.69-49.31c8.13-3.09,16.82-5.9,25.98-8.42-30.41,19.71-49.12,42.01-49.12,53.78,0,32.11,78.25,58.15,174.78,58.15.71,0,1.42,0,2.13,0,.37.99.75,1.96,1.14,2.9,1.22,2.98,4.11,4.91,7.32,4.91.05,0,.11,0,.16,0,43.38-.86,84.35-7.01,115.35-17.33,46.79-15.56,56.61-35.03,56.61-48.62,0-12.32-12.2-29.31-31.95-45.7.3.11.6.22.9.34,36.03,13.72,56.69,31.69,56.69,49.31s-20.66,35.6-56.69,49.31Z"/>
      <g>
        <path d="M572.83,51.18c-3.17-11.68-10.73-21.68-21.3-28.15-10.57-6.47-22.91-8.66-34.76-6.16-11.45,2.41-21.11,8.91-27.41,18.36-17.21,3.77-43.57,8.39-69.21,8.39-67.9,0-80.88-28.49-122.87-39.9-47.32-12.86-67.38,11.83-67.38,11.83,63.04,14.52,66.23,72.51,119.3,94.43l-11.13,28.86c-2.41,6.25,1.1,11.36,7.8,11.36h81.55c6.7,0,10.21-5.11,7.8-11.36l-9.52-24.68c40.28-12.59,65.39-49.96,76.44-70.24,4.04-6.13,10.34-10.36,17.83-11.94,7.97-1.68,16.32-.18,23.52,4.22,7.19,4.4,12.33,11.16,14.46,19.02,2.09,7.7,1.03,15.56-2.99,22.12-8.38,13.68-27.15,17.5-41.85,8.5-3.64-2.22-8.39-1.08-10.61,2.55-2.23,3.64-1.08,8.39,2.55,10.61,7.89,4.83,16.6,7.14,25.12,7.14,15.18,0,29.75-7.33,37.96-20.75,6.25-10.22,7.93-22.37,4.72-34.21Z"/>
        <rect x="331.83" y="156.02" width="107.14" height="19.59" rx="5.3" ry="5.3"/>
      </g>
    </g>
    <g>
      <path class="cls-1" d="M48.1,478.42c-1.78,3.46-4.52,6.19-8.24,8.21-3.72,2.02-7.98,3.02-12.78,3.02-5.38,0-10.09-1.21-14.15-3.64-4.06-2.42-7.22-5.86-9.5-10.3-2.28-4.44-3.42-9.68-3.42-15.73s1.14-11.14,3.42-15.55c2.28-4.42,5.45-7.83,9.5-10.26,4.06-2.42,8.75-3.64,14.08-3.64,3.41,0,6.5.48,9.29,1.44,2.78.96,5.16,2.28,7.13,3.96,1.97,1.68,3.41,3.6,4.32,5.76l-2.38,2.16c-2.06-3.7-4.68-6.26-7.85-7.7-3.17-1.44-6.67-2.16-10.51-2.16-4.7,0-8.82,1.08-12.35,3.24-3.53,2.16-6.28,5.18-8.24,9.07-1.97,3.89-2.95,8.45-2.95,13.68s.98,9.96,2.95,13.9c1.97,3.94,4.73,6.98,8.28,9.14,3.55,2.16,7.68,3.24,12.38,3.24,3.74,0,7.19-.74,10.33-2.23,3.14-1.49,5.96-4.13,8.46-7.92l2.23,2.3ZM42.77,473.02c-1.87,2.88-4.1,5-6.7,6.37-2.59,1.37-5.21,2.05-7.85,2.05-3.17,0-6.08-.79-8.75-2.38s-4.79-3.96-6.37-7.13c-1.58-3.17-2.38-7.15-2.38-11.95s.79-8.5,2.38-11.66,3.7-5.56,6.34-7.16c2.64-1.61,5.54-2.41,8.71-2.41,2.54,0,5.09.66,7.63,1.98,2.54,1.32,4.63,3.4,6.26,6.23l-2.52,2.3c-.58-1.3-1.45-2.48-2.63-3.56-1.18-1.08-2.53-1.93-4.07-2.56-1.54-.62-3.1-.94-4.68-.94-2.59,0-4.94.7-7.06,2.09-2.11,1.39-3.79,3.41-5.04,6.05-1.25,2.64-1.87,5.86-1.87,9.65s.62,7.25,1.87,9.94c1.25,2.69,2.93,4.71,5.04,6.05,2.11,1.34,4.49,2.02,7.13,2.02,1.58,0,3.16-.32,4.72-.97,1.56-.65,2.99-1.54,4.28-2.66,1.3-1.13,2.28-2.44,2.95-3.92l2.59,2.59Z"/>
      <path class="cls-1" d="M81.72,484.54c-1.01,1.44-2.56,2.56-4.64,3.35-2.09.79-4.76,1.19-8.03,1.19-4.46,0-8.02-1.34-10.66-4.03-2.64-2.69-3.96-6.22-3.96-10.58v-26.35h3.46v26.35c0,3.36,1.01,6.07,3.02,8.14,2.02,2.06,4.73,3.1,8.14,3.1,1.82,0,3.65-.17,5.47-.5,1.82-.33,3.62-1.12,5.4-2.34,1.78-1.22,3.53-3.13,5.26-5.72v11.09h-3.46v-3.67ZM84.02,448.1v25.34c-.77,2.78-2.18,4.91-4.25,6.37-2.06,1.46-4.39,2.2-6.98,2.2s-4.82-.83-6.55-2.48-2.59-4.07-2.59-7.24v-24.19h3.46v24.19c0,2.02.53,3.56,1.58,4.64,1.06,1.08,2.42,1.62,4.1,1.62,1.82,0,3.46-.48,4.9-1.44,1.44-.96,2.4-2.33,2.88-4.1v-24.91h3.46ZM89.71,448.1h3.46v40.1h-3.46v-40.1Z"/>
      <path class="cls-1" d="M102.96,448.1h3.46v40.1h-3.46v-40.1ZM128.45,450.7c-2.93,0-5.47.29-7.63.86-2.16.58-4.08,1.56-5.76,2.95-1.68,1.39-3.24,3.36-4.68,5.9v-12.31h3.46v3.96c1.44-1.73,3.2-2.96,5.29-3.71s5-1.14,8.75-1.19l.58,3.53ZM112.1,461.93c1.49-2.83,3.3-4.86,5.44-6.08,2.14-1.22,4.88-1.84,8.24-1.84.53,0,1.06.01,1.58.04.53.02,1.08.06,1.66.11l.65,3.74c-.82-.19-1.62-.32-2.41-.4s-1.55-.11-2.27-.11c-4.71,0-7.85,1.78-9.43,5.33v25.49h-3.46v-26.28Z"/>
      <path class="cls-1" d="M135.36,448.1h3.46v40.1h-3.46v-40.1ZM160.85,450.7c-2.93,0-5.47.29-7.63.86-2.16.58-4.08,1.56-5.76,2.95-1.68,1.39-3.24,3.36-4.68,5.9v-12.31h3.46v3.96c1.44-1.73,3.2-2.96,5.29-3.71s5-1.14,8.75-1.19l.58,3.53ZM144.5,461.93c1.49-2.83,3.3-4.86,5.44-6.08,2.14-1.22,4.88-1.84,8.24-1.84.53,0,1.06.01,1.58.04.53.02,1.08.06,1.66.11l.65,3.74c-.82-.19-1.62-.32-2.41-.4s-1.55-.11-2.27-.11c-4.71,0-7.85,1.78-9.43,5.33v25.49h-3.46v-26.28Z"/>
      <path class="cls-1" d="M167.33,448.18l16.27,38.23c-.82,1.97-1.64,3.56-2.48,4.79-.84,1.22-1.82,2.15-2.95,2.77-1.13.62-2.56,1.06-4.28,1.3s-3.91.38-6.55.43l-1.08-3.53c3.12,0,5.53-.12,7.24-.36,1.7-.24,3.01-.77,3.92-1.58.91-.82,1.7-2.09,2.38-3.82l-16.13-38.23h3.67ZM204.91,448.18l-13.54,40.97c-1.63,4.94-4.2,8.46-7.7,10.55-3.5,2.09-8.23,3.13-14.18,3.13l-1.01-3.38c3.31-.05,6.24-.36,8.78-.94,2.54-.58,4.73-1.67,6.55-3.28,1.82-1.61,3.24-3.97,4.25-7.09l13.18-39.96h3.67ZM173.16,448.18h3.74l6.34,16.13c.48,1.2,1,2.68,1.55,4.43.55,1.75.92,3.37,1.12,4.86h.14c.24-1.58.56-3.2.97-4.86.41-1.66.78-3.08,1.12-4.28l4.54-16.27h3.6l-8.28,29.23h-3.31l-11.52-29.23Z"/>
      <path class="cls-1" d="M263.66,435.5h-11.66l-17.64,52.7h-3.6l18.72-56.16h16.7l18.72,56.16h-3.74l-17.5-52.7ZM267.26,475.03h-19.01l-4.46,13.18h-3.6l5.62-16.63h23.98l5.4,16.63h-3.6l-4.32-13.18ZM255.6,441.19h4.18l8.64,26.28h-21.46l8.64-26.28ZM263.66,464.02c-.24-.77-.62-1.92-1.15-3.46-.53-1.54-1.1-3.25-1.73-5.15-.62-1.9-1.2-3.79-1.73-5.69-.53-1.9-.91-3.59-1.15-5.08h-.43c-.24,1.44-.61,3.11-1.12,5-.5,1.9-1.07,3.79-1.69,5.69-.62,1.9-1.2,3.62-1.73,5.18-.53,1.56-.91,2.72-1.15,3.49h11.88Z"/>
      <path class="cls-1" d="M318.24,484.18c-.72,1.15-1.75,2.09-3.1,2.81-1.34.72-2.81,1.25-4.39,1.58-1.58.33-3.1.5-4.54.5-3.55,0-6.73-.79-9.54-2.38s-5.02-3.92-6.62-7.02c-1.61-3.1-2.41-6.92-2.41-11.48s.86-8.47,2.59-11.59c1.73-3.12,4-5.47,6.8-7.06,2.81-1.58,5.82-2.38,9.04-2.38,2.35,0,4.34.3,5.98.9,1.63.6,2.95,1.4,3.96,2.41v-18.43h3.46v25.63c-1.78-2.11-3.41-3.66-4.9-4.64-1.49-.98-2.92-1.63-4.28-1.94-1.37-.31-2.77-.47-4.21-.47-2.64,0-5.1.67-7.38,2.02-2.28,1.34-4.12,3.33-5.51,5.94-1.39,2.62-2.09,5.82-2.09,9.61,0,5.66,1.42,10,4.25,13s6.46,4.5,10.87,4.5c1.78,0,3.56-.25,5.36-.76,1.8-.5,3.56-1.49,5.29-2.95s3.34-3.66,4.82-6.59v12.82h-3.46v-4.03ZM319.75,470.64c0,2.16-.5,4.1-1.51,5.83-1.01,1.73-2.32,3.08-3.92,4.07-1.61.98-3.37,1.48-5.29,1.48-3.46,0-6.33-1.12-8.61-3.35s-3.42-5.65-3.42-10.26c0-3.17.56-5.78,1.69-7.85,1.13-2.06,2.6-3.6,4.43-4.61s3.77-1.51,5.83-1.51c2.59,0,4.85.8,6.77,2.41,1.92,1.61,3.26,3.49,4.03,5.65v8.14ZM316.29,463.08c-.48-1.39-1.36-2.6-2.63-3.64s-2.84-1.55-4.71-1.55c-2.35,0-4.36.89-6.01,2.66-1.66,1.78-2.48,4.39-2.48,7.85s.79,5.89,2.38,7.6c1.58,1.7,3.65,2.56,6.19,2.56,2.02,0,3.73-.73,5.15-2.2,1.42-1.46,2.12-3.37,2.12-5.72v-7.56ZM325.15,432.05h3.46v56.16h-3.46v-56.16Z"/>
      <path class="cls-1" d="M366.84,484.18c-.72,1.15-1.75,2.09-3.1,2.81-1.34.72-2.81,1.25-4.39,1.58-1.58.33-3.1.5-4.54.5-3.55,0-6.73-.79-9.54-2.38-2.81-1.58-5.02-3.92-6.62-7.02-1.61-3.1-2.41-6.92-2.41-11.48s.86-8.47,2.59-11.59c1.73-3.12,4-5.47,6.8-7.06,2.81-1.58,5.82-2.38,9.04-2.38,2.35,0,4.34.3,5.98.9,1.63.6,2.95,1.4,3.96,2.41v-18.43h3.46v25.63c-1.78-2.11-3.41-3.66-4.9-4.64-1.49-.98-2.92-1.63-4.28-1.94-1.37-.31-2.77-.47-4.21-.47-2.64,0-5.1.67-7.38,2.02-2.28,1.34-4.12,3.33-5.51,5.94-1.39,2.62-2.09,5.82-2.09,9.61,0,5.66,1.42,10,4.25,13,2.83,3,6.46,4.5,10.87,4.5,1.78,0,3.56-.25,5.36-.76s3.56-1.49,5.29-2.95c1.73-1.46,3.34-3.66,4.82-6.59v12.82h-3.46v-4.03ZM368.35,470.64c0,2.16-.5,4.1-1.51,5.83-1.01,1.73-2.32,3.08-3.92,4.07-1.61.98-3.37,1.48-5.29,1.48-3.46,0-6.33-1.12-8.6-3.35-2.28-2.23-3.42-5.65-3.42-10.26,0-3.17.56-5.78,1.69-7.85,1.13-2.06,2.6-3.6,4.43-4.61s3.77-1.51,5.83-1.51c2.59,0,4.85.8,6.77,2.41,1.92,1.61,3.26,3.49,4.03,5.65v8.14ZM364.89,463.08c-.48-1.39-1.36-2.6-2.63-3.64-1.27-1.03-2.84-1.55-4.72-1.55-2.35,0-4.36.89-6.01,2.66-1.66,1.78-2.48,4.39-2.48,7.85s.79,5.89,2.38,7.6c1.58,1.7,3.65,2.56,6.19,2.56,2.02,0,3.73-.73,5.15-2.2,1.42-1.46,2.12-3.37,2.12-5.72v-7.56ZM373.75,432.05h3.46v56.16h-3.46v-56.16Z"/>
      <path class="cls-1" d="M387,432.05h3.46v11.23h-3.46v-11.23ZM387.21,448.1h3.46v40.1h-3.46v-40.1ZM396.43,448.1h3.46v40.1h-3.46v-40.1ZM396.57,432.05h3.46v11.23h-3.46v-11.23Z"/>
      <path class="cls-1" d="M445.31,483.31c-1.97,1.92-4.19,3.36-6.66,4.32-2.47.96-5.63,1.44-9.47,1.44s-7.33-.79-10.62-2.38-5.93-3.92-7.92-7.02c-1.99-3.1-2.99-6.95-2.99-11.56,0-4.27.91-7.98,2.74-11.12,1.82-3.14,4.36-5.57,7.6-7.27,3.24-1.7,6.97-2.56,11.2-2.56,3.55,0,6.53.41,8.93,1.22,2.4.82,4.56,1.99,6.48,3.53l-1.3,3.17c-2.21-1.68-4.4-2.84-6.59-3.49-2.18-.65-4.69-.97-7.52-.97-3.5,0-6.62.71-9.36,2.12-2.74,1.42-4.87,3.43-6.41,6.05-1.54,2.62-2.3,5.72-2.3,9.32,0,3.84.84,7.07,2.52,9.68,1.68,2.62,3.9,4.58,6.66,5.9,2.76,1.32,5.72,1.98,8.89,1.98,3.36,0,6.18-.43,8.46-1.3,2.28-.86,4.38-2.28,6.3-4.25l1.37,3.17ZM442.87,477.7c-1.73,1.73-3.6,2.98-5.62,3.74-2.02.77-4.01,1.15-5.98,1.15-2.5,0-4.84-.51-7.02-1.55-2.18-1.03-3.95-2.63-5.29-4.79-1.34-2.16-2.02-4.87-2.02-8.14s.7-5.94,2.09-8.03c1.39-2.09,3.17-3.65,5.33-4.68,2.16-1.03,4.37-1.55,6.62-1.55,1.82,0,3.68.32,5.58.97,1.9.65,3.73,1.74,5.51,3.28l-1.44,3.53c-1.2-1.49-2.65-2.58-4.36-3.28-1.71-.7-3.47-1.04-5.29-1.04-1.68,0-3.34.38-4.97,1.15-1.63.77-2.98,1.96-4.03,3.56-1.06,1.61-1.58,3.64-1.58,6.08s.51,4.56,1.55,6.19c1.03,1.63,2.38,2.84,4.03,3.64,1.66.79,3.42,1.19,5.29,1.19s3.68-.43,5.58-1.3c1.9-.86,3.4-2.04,4.5-3.53l1.51,3.38Z"/>
      <path class="cls-1" d="M448.7,448.1h6.34v-12.53h3.46v15.98h-9.79v-3.46ZM473.75,489.07c-4.7,0-8.47-.37-11.3-1.12-2.83-.74-4.87-2.06-6.12-3.96-1.25-1.9-1.87-4.52-1.87-7.88v-18.29h-5.76v-3.46h9.22v21.74c0,2.64.53,4.66,1.58,6.05,1.06,1.39,2.8,2.33,5.22,2.81,2.42.48,5.68.75,9.76.79l-.72,3.31ZM463.6,435.58h3.46v12.53h6.77v3.46h-10.22v-15.98ZM475.27,482.23c-2.59,0-4.67-.11-6.23-.32-1.56-.22-2.74-.61-3.53-1.19s-1.31-1.45-1.55-2.63c-.24-1.18-.36-2.75-.36-4.72v-19.01h10.22v3.46h-6.77v15.55c0,1.73.18,2.98.54,3.74.36.77,1.17,1.24,2.45,1.4,1.27.17,3.25.25,5.94.25l-.72,3.46Z"/>
      <path class="cls-1" d="M482.03,432.05h3.46v11.23h-3.46v-11.23ZM482.25,448.1h3.46v40.1h-3.46v-40.1ZM491.47,448.1h3.46v40.1h-3.46v-40.1ZM491.61,432.05h3.46v11.23h-3.46v-11.23Z"/>
      <path class="cls-1" d="M544.89,468.19c0,4.22-.84,7.9-2.52,11.02-1.68,3.12-4.09,5.54-7.24,7.27-3.14,1.73-6.9,2.59-11.27,2.59s-8.14-.86-11.3-2.59c-3.17-1.73-5.6-4.15-7.31-7.27-1.7-3.12-2.56-6.79-2.56-11.02s.85-7.98,2.56-11.12c1.7-3.14,4.14-5.58,7.31-7.31,3.17-1.73,6.94-2.59,11.3-2.59s8.12.86,11.27,2.59c3.14,1.73,5.56,4.17,7.24,7.31,1.68,3.14,2.52,6.85,2.52,11.12ZM541.43,468.19c0-3.55-.71-6.65-2.12-9.29s-3.43-4.68-6.05-6.12c-2.62-1.44-5.75-2.16-9.4-2.16s-6.79.72-9.43,2.16c-2.64,1.44-4.68,3.48-6.12,6.12-1.44,2.64-2.16,5.74-2.16,9.29s.72,6.58,2.16,9.22c1.44,2.64,3.48,4.68,6.12,6.12,2.64,1.44,5.78,2.16,9.43,2.16s6.78-.72,9.4-2.16c2.62-1.44,4.63-3.48,6.05-6.12,1.42-2.64,2.12-5.71,2.12-9.22ZM523.87,482.66c-3.46,0-6.29-1.27-8.5-3.82-2.21-2.54-3.31-6.09-3.31-10.66s1.1-8.1,3.31-10.62c2.21-2.52,5.04-3.78,8.5-3.78s6.26,1.26,8.42,3.78c2.16,2.52,3.24,6.06,3.24,10.62s-1.08,8.23-3.24,10.73c-2.16,2.5-4.97,3.74-8.42,3.74ZM523.87,479.21c2.54,0,4.55-.98,6.01-2.95,1.46-1.97,2.2-4.66,2.2-8.06s-.73-6.08-2.2-8.03c-1.46-1.94-3.47-2.92-6.01-2.92s-4.57.97-6.08,2.92c-1.51,1.94-2.27,4.62-2.27,8.03s.76,6.04,2.27,8.03c1.51,1.99,3.54,2.99,6.08,2.99Z"/>
      <path class="cls-1" d="M552.52,448.1h3.46v40.1h-3.46v-40.1ZM587.8,461.86c0-2.06-.46-3.95-1.37-5.65-.91-1.7-2.2-3.06-3.85-4.07s-3.64-1.51-5.94-1.51c-1.82,0-3.65.17-5.47.5-1.82.34-3.62,1.1-5.4,2.3-1.78,1.2-3.53,3.12-5.26,5.76v-11.09h3.46v3.67c1.01-1.44,2.56-2.57,4.64-3.38,2.09-.82,4.76-1.22,8.03-1.22,2.98,0,5.56.66,7.74,1.98,2.18,1.32,3.88,3.1,5.08,5.33,1.2,2.23,1.8,4.69,1.8,7.38v26.35h-3.46v-26.35ZM578.58,464.02c0-2.02-.53-3.56-1.58-4.64-1.06-1.08-2.42-1.62-4.1-1.62-1.78,0-3.38.48-4.82,1.44-1.44.96-2.42,2.33-2.95,4.1v24.91h-3.46v-25.34c.82-2.83,2.24-4.97,4.28-6.41,2.04-1.44,4.36-2.16,6.95-2.16s4.88.83,6.59,2.48c1.7,1.66,2.56,4.07,2.56,7.24v24.19h-3.46v-24.19Z"/>
    </g>
  </g>
</svg>