<?xml version="1.0" encoding="UTF-8"?>
<svg id="_レイヤー_2" data-name="レイヤー 2" xmlns="http://www.w3.org/2000/svg" viewBox="0 0 252.54 319.93">
  <defs>
    <style>
      .cls-1 {
        fill: #000;
      }

      .cls-1, .cls-2 {
        stroke-width: 0px;
      }

      .cls-2 {
        fill: #f15a24;
      }
    </style>
  </defs>
  <g id="_人物" data-name="人物">
    <g>
      <path class="cls-2" d="M232.13,145.23c-5.82-5.4-12.23-10.11-19.3-13.67-7.67-5.23-16.57-8.39-25.26-11.52-2.44-.87-4.79-1.67-7.05-2.4-2.27-.73-4.46-1.4-6.59-2.01-1.85-.53-3.64-1.01-5.41-1.47,0,0,0,0,0,0-.26-.07-.54-.14-.8-.21-2.01-.51-3.98-.97-5.91-1.39,0,0,0,0,0,0,.66,1.25,1.36,2.49,2.13,3.72.35.56.3,1.26-.11,1.8-.32.41-.78.64-1.27.64-.15,0-.3-.02-.45-.07-.84-.37-1.18-1.05-1.45-1.59-.11-.21-.21-.43-.35-.6-.92-1.56-1.76-3.14-2.53-4.73-10.44-2.05-20.11-3.09-31.38-4.55-7.78-.21-15.55.67-23.21,1.92-2.79.48-5.61.94-8.37,1.57-1.71,2.4-3.52,4.82-6,6.57-.28.18-.57.26-.87.26-.45,0-.88-.2-1.21-.57-.53-.62-.55-1.46-.03-2.05l.18-.15c.71-.46,1.78-1.51,2.67-2.51-.09.03-.18.07-.26.11-.08.03-.15.06-.23.09-.48.18-.95.37-1.42.58,0,0,0,0,0,0-.63.28-1.25.58-1.86.92-12.67,2.96-24.37,9.96-35.57,16.45-13.51,7.92-26.55,17.18-36.62,29.31C.15,174.97-1.22,196.33.7,215.72c.7,11.24,4.67,22.26,11.37,31.32,5.56,7.77,14.48,12.83,23.94,13.74-.05,5.03.25,10.06.12,15.09-.64,12.85-.31,29.33,13.05,35.67,5.1,2.71,10.89,3.33,16.56,3.74,6.93.45,13.88.8,20.82,1.14,19.16,1.13,38.37-.76,57.51.9,7,.33,6.18,1.17,18.09,2.58,7.01.3,13.98-1.14,21.01-.92,5.48-.37,11.2-.04,15.39-4.17,5.05-5.09,3.46-12.86,3.29-19.38-.5-9.07-1.43-18.12-2.66-27.12h0c-.09.3-.26.57-.54.76-5.65,2.18-11.78,3.07-17.6,4.81-6.86,1.36-13.49,3.7-20.37,4.88-.45.14-.89.04-1.24-.19-.66,4.29-4.78,7.99-11.67,6.9-5.05-.52-10.37-1.87-14.14-5.44-3.76-3.54-4.06-9.47-.41-13.24,6.05-5.83,16.09-4.8,23.01-1.05,3.45,1.92,4.52,5.86,3.57,9.22.02.24,0,.48,0,.71.01,0,.02-.01.03-.02,1.87-.3,3.74-.65,5.57-1.15,9.97-2.89,20.22-4.79,30.15-7.77.96-.21,1.99-.86,2.94-.33.44.24.69.69.76,1.17,8.9-4.66,16.6-11.5,24.02-18.2,4.81-4.54,9.87-8.95,13.59-14.47,3.94-6.11,6.68-12.9,9.48-19.58,3.62-9.32,6.05-19.32,6.2-29.35-.2-6.77-1.95-13.36-4.73-19.52-3.04-8.46-9.28-15.11-15.68-21.21ZM133.74,158.34c-.28.8-.58,1.59-.87,2.36-1.04,3.33-3.01,6.45-5.69,8.54.61.27,1.07.86.93,1.63-2.42,5.43-4.81,11.08-8.58,15.77-12.01,15.43-22.94,29.77-35.24,45.82-3.27,3.6-6.42,7.32-9.82,10.79-6.28,5.34-12.92,10.37-20.55,13.63-4.48,1.92-9.46,2.06-14.1,3.46-1.04.25-2.11.89-3.2.7-.99-.26-1.49-1.49-.96-2.36.21-.36.56-.63.96-.74,1.61-.45,3.2-.97,4.83-1.33,3.43-.82,6.98-1.16,10.32-2.31,2.78-1.08,8.12-3.96,11.73-6.43,2.17-1.79,7.19-5.25,10.09-8.32,8.24-8.68,14.16-16.72,21.36-26.46,6.32-7.77,11.14-14.28,17.34-22.4,2.9-3.85,5.06-6.09,7.34-9.79,1.93-3.25,3.41-6.74,5.06-10.14-1.61.75-3.39,1.16-5.33,1.09-2.62.01-4.85-.86-6.6-2.24-.47-.18-.93-.39-1.37-.63-1.68-.91-2.89-2.22-3.72-3.73-.83-.95-1.46-2.07-1.8-3.33-.27.32-.56.62-.78.96-6.63,7.71-13.28,15.42-20.28,22.8-5.81,5.8-12.27,10.86-18.57,16.11-6.45,5-12.72,10.35-19.8,14.44-1.36.89-3.44,2.09-4.01-.25-.25-1.44,1.39-1.88,2.35-2.51,11.86-7.3,21.2-15.6,32.12-24.8,9.88-8.92,18.34-19.3,26.97-29.39.48-.51,1.18-.57,1.75-.33.04-.5.11-1,.24-1.52.04-.15.11-.29.16-.43-.03-.38-.03-.76-.03-1.13-.43-.02-.83-.03-1.14.01-2.92.11-5.74.24-8.55.37-3.62.17-7.37.35-11.06.44-.02,0-.03,0-.05,0-.63,0-1.19-.39-1.44-.99-.26-.63-.12-1.32.35-1.77l.25-.16c1.11-.44,2.59-.42,4.04-.41.78,0,1.53.01,2.14-.05,2.33-.06,4.58-.19,6.84-.31,2.93-.16,5.94-.32,8.94-.33.11-.54.24-1.07.4-1.58.49-1.68,1.28-3.16,2.25-4.48-1.38-.1-2.72-.35-4.03-.59l-.73-.14c-1.15-.21-2.27-.42-3.37-.64-4.55-.88-8.83-1.7-13.42-1.62-.53-.01-1.06-.27-1.36-.74-.31-.48-.35-1.05-.11-1.53.11-.34.46-.69.89-.83l.16-.04c1.95-.21,3.93-.01,5.85.18l.31.03c2.48.3,5.17.82,7.78,1.33,3.76.73,7.32,1.43,10,1.43h0c.37-.08.72-.04,1.04.12,6.4-4.82,16.37-4.62,21.36,2.75.63.86,1.05,1.76,1.32,2.69,1.96.2,3.85.52,5.64.85,3.36.53,7.04,1.49,10.59,2.41,3.06.8,5.95,1.55,8.44,1.98.49-.02,1.06.24,1.36.69.34.51.37,1.19.09,1.72-.27.5-.78.81-1.38.81-3.57-.63-7.1-1.51-10.51-2.37-4.63-1.16-9.4-2.36-13.85-2.85-.03.97-.18,1.94-.4,2.92.64.04,1.28.08,1.91.12l.43.03c6.5.38,12.94,1.02,19.15,1.9.82.04,2.11.46,3.48.9l-.16.79.18-.78c.76.18,1.25.87,1.19,1.68-.06.8-.65,1.41-1.42,1.46-.8-.07-1.41-.28-2.01-.48-.35-.12-.7-.24-1.06-.32-.92-.13-2.9-.41-4.76-.62-5.56-.63-11.71-1.32-17.88-1.49ZM194.78,227.61c-2.23,2.25-4.42,4.52-6.61,6.81-11.25,11.37-25.28,19.41-39.32,26.82-1.83,1.05-3.42-1.72-1.62-2.78,6.44-3.37,12.78-6.96,18.96-10.78,9.35-5.8,16.83-12.22,24.67-20.67.79-.67,1.37-1.71,2.35-2.08.99-.28,2.06.52,2.04,1.55,0,.42-.17.84-.47,1.14Z"/>
      <path class="cls-1" d="M86.89,114.74l-.18.15c-.51.59-.5,1.44.03,2.05.32.38.76.57,1.21.57.29,0,.59-.09.87-.26,2.48-1.76,4.29-4.17,6-6.57.15-.22.32-.43.47-.65.57-.81,1.14-1.61,1.73-2.39,5.15-6.91,11.26-17.91,11.1-31.03,0-.58-.27-1.08-.76-1.37-.51-.3-1.18-.3-1.7,0-.49.28-.76.78-.76,1.37h0c.22,10.84-4.2,21.59-13.96,33.88-.13.2-.32.46-.54.73,0,0,0,0,0,0h0s0,0,0,0c-.16.21-.36.43-.55.66-.08.1-.15.19-.24.28-.02.02-.04.04-.06.07-.89,1-1.96,2.06-2.67,2.51Z"/>
      <path class="cls-1" d="M156.96,76.81c-.39-.6-1.04-.88-1.7-.71-.74.18-1.31.86-1.35,1.5-3.07,10.46-1.66,22.64,3.86,34.14.76,1.59,1.61,3.17,2.53,4.73.13.18.24.39.35.6.27.54.62,1.22,1.45,1.59.15.04.3.07.45.07.48,0,.95-.23,1.27-.64.41-.54.45-1.24.11-1.8-.76-1.23-1.46-2.47-2.13-3.72,0,0,0,0,0,0-.37-.7-.73-1.41-1.06-2.12-.16-.33-.3-.66-.45-.98-.17-.38-.35-.75-.51-1.13,0,0,0,0,0,0,0,0,0,0,0,0-.44-1.03-.83-2.07-1.2-3.12-.21-.6-.43-1.21-.62-1.81-.1-.31-.21-.62-.3-.93-.15-.49-.28-.98-.41-1.47-.13-.48-.25-.96-.37-1.44-.1-.4-.19-.81-.28-1.21-.2-.93-.38-1.87-.52-2.8,0,0,0,0,0,0h0s0-.02,0-.03c-.04-.26-.07-.52-.1-.78-.03-.24-.07-.49-.09-.73h0c-.14-1.24-.23-2.48-.27-3.71,0-.08,0-.17,0-.25,0-.08,0-.17,0-.25-.01-.59,0-1.17,0-1.75,0-.09,0-.17,0-.26,0-.05,0-.09,0-.14h0s0,0,0,0c.01-.44.04-.89.07-1.33,0,0,0,0,0,0,.01-.23.03-.46.05-.69,0-.04,0-.08,0-.12.1-1.18.26-2.35.46-3.5h0s.02-.09.02-.14c.02-.09.03-.18.05-.27h0c.15-.81.32-1.61.53-2.4.02-.12.08-.28.15-.45.18-.46.46-1.15.04-1.93Z"/>
      <path class="cls-1" d="M96.84,62.2c-.21-.08-.44-.18-.54-.28l-.16-.11c-.27-.15-.66-.73-.92-1.69-.35-1.29-.33-2.7.05-3.34.63-1.04,2.98-2.09,4.34-1.68.17.1.42.24.45.25.31.23.57.51.84.79.37.38.74.77,1.3,1.13.71.35,1.52.12,1.97-.55.46-.67.39-1.52-.18-2.06l-.47-.47c-.76-.77-1.62-1.6-2.79-2.07-.17-.07-.33-.15-.51-.2-2.53-.45-5.42.56-7.23,2.56-2.17,2.8-1.33,7.25.78,9.49l.19.16c.57.45,1.68,1.34,2.71,1.34.44,0,.86-.16,1.23-.57l.13-.19c.26-.55.3-1.02.13-1.45-.25-.63-.83-.87-1.3-1.06Z"/>
      <path class="cls-1" d="M132.04,85.82c.4,0,.8-.03,1.2-.08,5.53-.42,8.07-3.7,8.59-6.62.69-3.81-1.63-7.55-5.91-9.52l-.33-.15c-.81-.37-1.81-.83-2.93-.54-4.68-.68-9.47,2.63-10.33,7.3-.27,2.44.63,4.81,2.54,6.66,1.93,1.88,4.6,2.96,7.17,2.96Z"/>
      <path class="cls-1" d="M126.05,54.4c.12,0,.24-.01.35-.03.69-.12,1.34-.6,1.74-1.26.46-.21.85-.6,1.1-1.12.31-.65.36-1.42.16-2.05.09-.27.09-.56.02-.83-.09-.33-.35-.79-1.11-1.14l-.15-.04c-.3-.15-.64-.2-.98-.13-.33.07-.64.25-.88.5-1.03.29-1.83,1.33-2.19,2.31-.45,1.2-.29,2.36.42,3.09.43.46.96.7,1.53.7Z"/>
      <path class="cls-1" d="M129.33,60.78c.21.58.74,1.01,1.33,1.08.07,0,.13.01.19.01.52,0,1-.27,1.36-.8,1.02-1.75,2.5-3.04,3.59-3.14.38-.04.69.09.99.42l.19.19q.17.18.32.41l.15.23c.27.92.77,1.4,1.6,1.43,1.22-.1,1.53-.87,1.6-1.2.34-1.46-1.52-3.43-2.28-3.9-1.01-.72-2.17-.97-3.37-.73-2.29.46-4.29,2.57-5.32,4.27-.45.49-.58,1.13-.37,1.72Z"/>
      <path class="cls-1" d="M142.57,54.67h0c.23.07.46.1.68.1.8,0,1.54-.4,2.1-1.16.57-.83.56-1.98-.04-2.87-.48-.71-1.24-1.09-2.02-1.01-.66-.23-1.39-.09-2.11.48-.68.76-.87,1.73-.53,2.66.21,1.05,1.04,1.81,1.92,1.81Z"/>
      <path class="cls-1" d="M114.86,40.35s0-.02.02-.03c1.29-.87,2.52-1.93,3.6-3.11,1.34-1.2,2.27-2.85,2.65-4.69.97-.55,1.9-1.22,2.79-1.99l.04-.02c.62.18,1.24.31,1.84.39,1.61.85,3.45,1.42,5.35,1.66,1.45,1.2,3.01,2.12,4.69,2.75,1.74.5,3.55.56,5.53.19,1.66,2.06,3.69,3.42,6.05,4.06,1.41,1.09,3.18,1.86,5.17,2.24.14.25.31.51.49.78-.06.19-.11.38-.16.58-.6,3,.12,5.65,2.04,7.44,1.46,1.37,3.47,2.09,5.69,2.09.31,0,.62-.04.93-.06-.19.11-.39.2-.56.33-1.51,1.06-2.85,2.33-3.94,3.79-.22.42-.22.94-.05,1.26.18.5.61.87,1.15.99.55.11,1.12-.05,1.52-.48,1.87-2.25,3.64-3.44,4.87-3.39.67.03,1.25.42,1.73,1.11,1.32,2.47,1.65,4.62.99,6.4-.16.32-.17.35-.44.59-1.01.52-1.14.77-1.14.78-.53.64-.48,1.5.11,2.1.33.34.76.51,1.18.51.32,0,.64-.1.92-.3,1.38-.72,2.32-1.94,2.72-3.53.75-2.97-.48-6.59-1.93-8.69v-.02c-.98-1.31-2.47-2.03-4.02-2.14,3.43-1.14,6.14-3.02,7.73-5.39,1.73-1.15,2.84-2.81,3.22-4.8.41-2.18-.12-4.52-1.45-6.46,0-.04,0-.09,0-.13.62-2.16.33-4.28-.81-6.02,1.4-2.51,1.62-5.51.6-8.33-1.15-3.19-3.74-5.75-6.94-6.89-2.08-3.46-6.57-5.02-9.99-4.77-.25.01-.5.03-.74.07-.46-.52-.97-.97-1.54-1.36.05-2.89-1.6-5.57-4.3-6.93-3.48-1.75-7.63-1.02-11.15,1.96-1.05.17-2.04.52-2.9,1.03h0c-2-2.14-5.03-3.22-7.74-2.73-2.01.25-4.02,1.2-5.71,2.7-1.38-.38-2.79-.57-4.09-.54-7.08-.71-15.33,4.97-16.74,11.52-1.09,1.33-1.82,2.95-2.11,4.64-3.37.19-6.39,1.91-8.01,4.62-1.35,2.48-1.56,5.67-.6,8.79-.9,2.63-1.04,5.33-.42,7.85-.44,3.86,1.28,7.37,4.62,9.4.38.23.76.42,1.15.59.03.01.07.03.1.04.04.02.09.04.13.05.02,0,.03.01.05.02.35.14.71.26,1.07.35.01,0,.02,0,.04.01,0,0,.02,0,.03,0,.01,0,.03,0,.04.01.36.09.72.14,1.08.18.01,0,.02,0,.04,0,.06,0,.11.02.17.03.45.04.9.06,1.35.04,3.31-.11,6.58-1.78,8.92-3.99,2.93-2.37,4.63-4.79,5.07-7.18Z"/>
      <path class="cls-1" d="M111.75,146.54c.57-.15.98-.56,1.12-1.11.15-.58-.04-1.22-.48-1.64-.11-.11-.24-.19-.38-.26-.32-.16-.67-.2-1.04-.12h0c-2.68,0-6.24-.69-10-1.43-2.6-.51-5.3-1.03-7.78-1.33l-.31-.03c-1.92-.19-3.9-.39-5.85-.18l-.16.04c-.43.14-.78.5-.89.83-.24.48-.2,1.06.11,1.53.31.48.83.73,1.36.74,4.59-.07,8.87.74,13.42,1.62,1.1.21,2.22.43,3.37.64l.73.14c1.31.25,2.65.49,4.03.59.41.03.81.05,1.23.05.5,0,1.01-.03,1.53-.08Z"/>
      <path class="cls-1" d="M108.82,155.51l.15-.11c.48-.45.62-1.14.35-1.77-.25-.61-.82-.99-1.45-.99-.01,0-.02,0-.03,0-.5,0-1.01,0-1.51,0-3.01.01-6.01.17-8.94.33-2.26.12-4.51.25-6.84.31-.61.07-1.36.06-2.14.05-1.44,0-2.93-.03-4.04.41l-.25.16c-.48.45-.62,1.14-.35,1.77.25.61.82.99,1.44.99.02,0,.03,0,.05,0,3.69-.09,7.44-.27,11.06-.44,2.82-.13,5.64-.27,8.55-.37.31-.05.71-.03,1.14-.01.05,0,.1,0,.16,0,.92.04,1.89.09,2.64-.34Z"/>
      <path class="cls-1" d="M132.93,148.82c-.67,0-1.28.42-1.45.94-.24.48-.2,1.06.11,1.53.31.48.89.76,1.3.74.71.04,1.44.11,2.18.19,4.46.49,9.22,1.68,13.85,2.85,3.41.86,6.94,1.74,10.51,2.37.6,0,1.12-.31,1.38-.81.28-.54.25-1.21-.09-1.72-.3-.45-.87-.71-1.36-.69-2.49-.43-5.39-1.18-8.44-1.98-3.55-.92-7.23-1.88-10.59-2.41-1.78-.33-3.68-.65-5.64-.85-.58-.06-1.16-.11-1.75-.15h-.01Z"/>
      <path class="cls-1" d="M156.37,160.45c.35.08.7.2,1.06.32.59.2,1.21.41,2.01.48.77-.06,1.36-.66,1.42-1.46.06-.81-.43-1.5-1.19-1.68l-.18.78.16-.79c-1.37-.44-2.66-.86-3.48-.9-6.21-.88-12.66-1.52-19.15-1.9l-.43-.03c-.63-.04-1.27-.08-1.91-.12-1.66-.1-3.35-.15-5-.05h-.01c-.67,0-1.28.42-1.45.94-.24.48-.2,1.06.11,1.53.31.48.76.77,1.36.74,1.35-.02,2.7,0,4.05.04,6.17.17,12.32.86,17.88,1.49,1.85.21,3.83.49,4.76.62Z"/>
    </g>
  </g>
</svg>