<?xml version="1.0" encoding="UTF-8"?>
<svg id="_レイヤー_2" data-name="レイヤー 2" xmlns="http://www.w3.org/2000/svg" viewBox="0 0 485.95 427.58">
  <defs>
    <style>
      .cls-1 {
        fill: #000;
      }

      .cls-1, .cls-2, .cls-3 {
        stroke-width: 0px;
      }

      .cls-2 {
        fill: #f15a24;
      }

      .cls-3 {
        fill: #fff;
      }
    </style>
  </defs>
  <g id="_食べ物" data-name="食べ物">
    <g>
      <g>
        <path class="cls-3" d="M483.27,239.84c-3.08-26.34-12.4-51.94-28.75-72.48-8.66-10.43-15.61-22.79-26.58-30.81-7.4-5.92-16.16-9.5-24.58-13.49-4.49-2.09-10.17-4.58-14.96-4.79-.23-.03-.42-.05-.62-.07,0,0,0,0,0,0-.04,0-.07,0-.11,0h0c-.4-.03-.76-.03-1.17.03h0s0,0-.01,0c0,0,0,0,0,0-.21.03-.44.08-.69.14-.21.05-.45.12-.71.2l-.07-.55c.06,0,.11.02.17.02.16,0,.32-.02.48-.05.04,0,.06-.03.1-.04.27-.06.51-.16.73-.3,0,0,0,0,0,0,0,0,0,0,0,0,.21-.14.4-.31.55-.5,0,0,.01-.02.02-.03,0-.01.01-.03.02-.04,0-.02.01-.03.02-.04.12-.17.22-.35.29-.55.08-.25.12-.52.11-.81-.7-7.6-1.72-14.89-2.99-23.63-.21-1.42-.45-2.72-.68-3.97-.6-3.27-1.11-6.09-.94-9.55.09-2.03.18-3.56.45-5.16,1.51-.5,2.8-1.45,4-2.4,3.3-2.7,6.01-6.2,7.86-10.2.7-1.78.38-2.96-.1-3.7,3.52-4.97,2.69-14.1,2.22-19.18v-.06c-.3-2.03-.8-3.94-1.41-5.74-1.08-5.31-2.93-10.98-6.53-15.74-5.54-7.05-11.88-13.82-20.6-15.6-5.45-1.25-10.95-.66-16.28-.08l-.54.06c-5.85.41-11.49,1.95-16.67,4.57-6.25,2.56-12.09,7.02-17.87,13.63-6.21,7.1-9.8,15.04-10.38,22.83-.53,2.75.16,5.82,1.67,8.28-.3.31-.57.64-.78.98-1.11,1.89-.26,4.02.15,5.03,1.77,4.54,5.28,8.6,9.91,11.5-.59,3.94-1.61,7.81-2.58,11.53-1.98,7.13-4.92,12.79-8.26,18.91-1.38,2.42-3.02,4.78-4.6,7.06-.88,1.26-1.75,2.55-2.61,3.86l-1.93,1.81c-2.77-1.09-5.78-1.48-8.78-.91-9.43,1.67-18.84,4.7-27.35,9.29-6.26,4.17-11.91,9.28-17.89,13.87-7.19,5.9-14.73,11.46-20.94,18.51-10.37,11.28-18.48,24.49-26.6,37.55-8.53,14.1-15.92,30.09-16.23,47.04-.06,11.99,2.57,23.88,6.29,35.18,3.04,10.43,8.82,19.48,15.4,27.84-5.98,14.55-9.85,29.88-12.24,45.51-3.97,21.38-2.67,43.41,9.91,61.58,4.61,7.33,12.14,11.81,20.32,13.38,8.19,2.07,16.55,3.22,24.9,4.35,16.87,1.95,33.87,5.2,50.84,2.86,5.52-.69,11.01-1.7,16.5-2.61.45-.05,1-.12,1.69-.2,11.11-1.2,22.29-1.52,33.39-2.88,12.28-1.16,24.62-1.16,36.92-1.8,9.78-.57,19.92-1.47,28.61-6.57,9.9-5.62,11.96-16.62,13.66-27.27,4.59-30.42,4.11-40.55,9.05-67.68,2.83-1,5.63-2.1,8.4-3.31,8.91-3.66,17.72-7.28,24.97-14.04,8.36-6.05,13.72-15.46,16.01-25.7,2.73-11.53-.18-23.35-1.56-34.88Z"/>
        <g>
          <path class="cls-2" d="M294.79,162.02s.08-.01.12-.02c0-.03,0-.05-.01-.08-.04.03-.07.07-.11.1Z"/>
          <path class="cls-2" d="M473.27,239.84c-3.08-26.34-12.4-51.94-28.75-72.48-8.66-10.43-15.61-22.79-26.58-30.81-7.4-5.92-16.16-9.5-24.58-13.49-4.49-2.09-10.17-4.58-14.96-4.79-.23-.03-.42-.05-.62-.07,0,0,0,0,0,0-.04,0-.07,0-.11,0h0c-.4-.03-.76-.03-1.17.03h0s0,0-.01,0c0,0,0,0,0,0-.21.03-.44.08-.69.14-.41.1-.9.25-1.52.46-5.47,2.22-10.09,6.15-14.73,9.91.24.99.46,1.96.74,2.98.45,1.43.99,2.88,1.53,4.33.92,2.48,1.88,5.04,2.45,7.71.14.93.23,1.81.33,2.73.31,2.81.63,5.71,1.77,8.78.94,2.06,2.46,4.54,4.06,7.18,1.97,3.22,4,6.56,5.39,9.8l.04.11c.07.22.34.6.58.94.51.72,1.44,2.06.91,3.3.4.08.8.24,1.17.61.69.7.77,1.5.54,2.2,5.1,8.13,8.83,17.23,13.27,25.78,3.66,6.94,8.78,12.93,13.03,19.49,5.85,9.79,10.35,17.72,18.6,24.78.41.64,2.11.95,3.03,2.89.46,1.49-.96,3.17-2.5,2.85-10.16-5.96-16.29-17.15-22.32-26.97-4.11-6.79-9.42-12.78-13.24-19.75-4.49-8.78-8.61-17.75-13.38-26.39-.35-.55-.39-1.12-.24-1.64-.79-.79-.84-1.75-.47-2.51-.19-.04-.37-.09-.55-.17-.42.29-.91.54-1.49.73-3.66,1.63-10.48,4.52-16.37,5.02-.16,0-.31-.03-.46-.06-.13.02-.24.08-.39.08-1.54,0-2.27-1.22-2.21-2.4-.22-.49-.32-1-.39-1.43-.04-.26-.08-.51-.15-.74-.59-2.99-1.27-6.52-1.52-9.97,0-.19-.01-.37-.02-.55-.56-.7-1.35-1.65-2.2-2.68-1.27-1.53-2.67-3.24-3.73-4.57-1.29-1.6-2.81-3.11-4.28-4.57-1.78-1.76-3.62-3.59-5.15-5.67-.41-.71-.74-1.44-1.01-2.16-.23.63-.45,1.26-.71,1.89-1.34,2.86-4.1,4.5-6.52,5.96-.46.27-.91.54-1.34.82-3.91,1.96-8.01,3.87-12.22,5.27-1.41,2.88-2.9,5.83-4.39,8.78-.22.34-.32.61-.43.87-.32.75-.76,1.78-1.86,2.22-.26.07-.51.11-.75.11-.04,0-.07-.01-.11-.01-3.87,1.03-14.02-5.98-16.57-9.88-.06-.03-.12-.07-.18-.1-.28.12-.6.19-.97.2-.05,0-.08-.02-.12-.02-.1.19-.19.38-.37.56-7.99,8.06-15.65,16.5-24.23,23.95-7.91,6.03-11.69,8.92-19.71,15.25-7.12,5.2-15.05,10.29-20.36,15.14-2.52,3.18-6.59-.73-3.33-3.14,6.59-5.89,14.14-10.62,21.26-15.84,5.67-4.38,11.39-9.09,18.37-14.15,6.62-5.53,17.2-16.69,24.77-24.43.55-.55,1.18-.72,1.76-.66.06-.12.12-.23.19-.33v-.2s.21-.28.21-.28c4.02-5.52,9.84-11.11,14.98-16.03l2.29-2.2c.16-.16.33-.29.52-.4.41-1.62,1.03-3.18,1.66-4.7.43-1.05.87-2.11,1.22-3.17,0-.03.02-.05.03-.07-.3-.58-.62-1.15-.9-1.75-.45-1.31-.85-2.64-1.12-4-.86-5.56-3.02-11.19-7.99-14.02-1.63-1.02-3.32-1.64-5.01-1.94-.1.13-.19.27-.29.4-.32.62-1.03,1.01-1.82,1.01-.27,0-.55-.05-.83-.14-1.09-.38-1.7-1.41-1.49-2.5l.09-.24c-2.94-1.29-6.18-1.78-9.41-1.16-9.43,1.67-18.84,4.7-27.35,9.29-6.26,4.17-11.91,9.28-17.89,13.87-7.19,5.9-14.73,11.46-20.94,18.51-10.37,11.28-18.48,24.49-26.6,37.55-8.53,14.1-15.92,30.09-16.23,47.04-.06,11.99,2.57,23.88,6.29,35.18,3.04,10.43,8.82,19.48,15.4,27.84-5.98,14.55-9.85,29.88-12.24,45.51-3.98,21.38-2.67,43.41,9.91,61.58,4.61,7.33,12.14,11.81,20.32,13.38,8.19,2.07,16.55,3.22,24.9,4.35,16.87,1.95,33.87,5.2,50.84,2.86,5.52-.69,11.01-1.7,16.5-2.61.45-.05,1-.12,1.69-.2,11.11-1.2,22.29-1.52,33.39-2.88,12.28-1.16,24.62-1.16,36.92-1.8,9.78-.57,19.92-1.47,28.61-6.57,9.9-5.62,11.96-16.62,13.66-27.27,4.59-30.42,4.11-40.55,9.05-67.68,2.83-1,5.63-2.1,8.4-3.31,8.91-3.66,17.72-7.28,24.97-14.04,8.36-6.05,13.72-15.46,16.01-25.7,2.73-11.53-.18-23.35-1.56-34.88ZM313.53,202.2c-1.73,10.72-5.41,21.03-10.35,30.67-2.84,6.01-5.6,12.1-9.41,17.57-5.61,8.59-10.97,17.41-18.3,24.67-6.81,7.41-15.32,13.03-23.91,18.16-10.59,6.32-22.53,10.1-34.79,11.35-7.13.66-14.54.63-21.06-2.7-1.73-.92-1.33-3.73.54-4.17.59-.17,1.23-.07,1.76.23,1.72.82,1.84.67,4.23,1.55,4.13,1.25,9.64.91,15.35.42,16.51-1.2,36.36-11.78,49.11-22.66,9.38-8.36,14.98-16.31,21.4-26.56,4.44-6.22,7.88-13.03,11.04-19.97,4.82-9.45,8.28-19.01,10.12-30.62.25-2.1.81-14.06-.07-16.42-.65-2.1-.3-1.4-1.31-3.13-.49-.9-1.39-1.68-1.38-2.77.01-1.1.85-2.15,1.98-2.24,1.9-.33,2.71,1.81,3.58,3.11,1.74,2.98,2.09,6.5,2.17,9.88-.02,4.54-.03,9.12-.71,13.62ZM407.29,321.25c-8.81-1.41-17.1-5.59-24.61-10.28-6.14-4.7-11-10.89-16.18-16.59-7.01-9.35-10.26-20.94-13.21-32.09-2.95-12.78-3.35-25.89-2.7-38.94.48-12.25,1.02-24.51,2.38-36.71.4-3.83,5.54-2.36,4.45,1.09-1.32,12.18-1.82,24.42-2.3,36.66-1.46,23.46,2.94,49.82,14.91,67.15,4.46,4.98,11.07,12.57,14.76,15.36,7.97,4.96,14.3,8.19,22.96,9.84,1.51.39,8.5.23,10.27-.35,2.02-.58,1.38-.25,2.77-1.01,1.32-.82,3.28.09,3.39,1.67.48,4.81-13.52,4.77-16.9,4.2Z"/>
          <path class="cls-1" d="M351.24,89.12l-.27-.38c-1.32-1.86-3.14-4.4-6.09-4.15-2.89.15-5.42,2.03-7.11,5.28-.84,1.55-1.51,3.09-2.1,4.61-1.29-3.56-3.27-7.08-6.06-8.49-1.92-.97-3.98-.89-6.13.24l-.21.14c-1.57,1.35-2.27,3.27-2.89,4.96l-.24.66c-1.32,3.81-2.17,7.77-2.99,11.59-.48,2.25-.98,4.57-1.56,6.81-1.92,7.2-4.33,14.73-7.61,23.73,0,.03-.02.05-.03.07-.35,1.07-.79,2.12-1.22,3.17-.63,1.52-1.25,3.08-1.66,4.7-.19.1-.37.24-.52.4l-2.29,2.2c-5.14,4.93-10.96,10.51-14.98,16.03l-.21.28v.2s-.01.15-.01.15c-.03.93.53,1.76,1.42,2.13.29.12.6.18.9.18.6,0,1.19-.24,1.62-.71,0,0,.01-.01.02-.02,5.77-6.4,10.32-11.14,14.82-15.47.18-.22.47-.44.77-.68.66-.52,1.43-1.18,1.73-2.3.53-.3.92-.77,1.03-1.24.94-2.42,1.91-4.96,2.89-7.59,3.07-8.29,6.17-17.49,8.47-27.04.41-1.65.79-3.45,1.18-5.29,1.05-4.98,2.23-10.62,4.3-13.42.14-.04.41-.07.8.05.44.12,1.95.7,3.04,3.11,4.06,8.07,3.89,18.91,3.72,29.39-.04,2.21-.07,4.4-.06,6.48-.24,4.68-.69,9.79-1.89,14.48-.54,2.1-1.21,4.13-2.1,5.99-3.86,4.09-12.1,7.16-18.55,9.57-1.35.24-2.4,1.17-2.55,2.26-.07.53.08,1.03.39,1.47-1.37,2.75-2.74,5.49-4.13,8.23-.59.8-.62,1.89-.07,2.74.39.61,1.02.96,1.75.99.04,0,.07.01.11.01.24,0,.49-.03.75-.11,1.11-.44,1.54-1.47,1.86-2.22.11-.26.22-.53.43-.87,1.5-2.95,2.98-5.9,4.39-8.78,4.21-1.4,8.31-3.3,12.22-5.27.43-.27.88-.54,1.34-.82,2.43-1.45,5.18-3.1,6.52-5.96.26-.62.48-1.26.71-1.89.27.73.6,1.45,1.01,2.16,1.54,2.08,3.38,3.9,5.15,5.67,1.47,1.46,2.99,2.97,4.28,4.57,1.05,1.33,2.46,3.04,3.73,4.57.85,1.03,1.64,1.98,2.2,2.68,0,.18,0,.36.02.55.25,3.45.93,6.98,1.52,9.97.08.23.11.48.15.74.07.43.17.93.39,1.43.19.41.46.81.91,1.14.36.22.76.33,1.16.33.49,0,.99-.16,1.41-.49.5-.38.78-.92.86-1.5.04-.29.04-.59-.04-.89-.8-3.41-1.44-7.14-1.76-10.29-.04-.26-.03-.53-.04-.8,0-.85,0-2.02-.84-2.83l-.93-1.14c-3.62-4.44-7.36-9.04-11.61-13.17-3.58-3.15-4.23-5.64-4.25-11.13-.01-.19.02-.39.04-.59.05-.5.12-1.12-.11-1.76-.07-.19-.16-.37-.27-.53-.08-.11-.18-.21-.28-.3.5-4.06.68-8.14.78-12.13.04-6.57.04-13.91-.74-21.25.19-.25.34-.53.42-.87,1.15-6.57,4.01-13.63,7.01-13.78h.02c1.11,0,3.67,4.08,5.01,8.73,1.2,4.13,1.47,7.9,1.78,12.27.11,1.5.22,3.04.38,4.74l.2,1.24c.51,3.21,1.05,6.48,1.71,9.73.54,2.63,1.15,5.25,1.95,7.82.32.93.72,2.02,1.13,3.16,1.05,2.9,2.24,6.18,2.54,7.7.08.62.15,1.29.23,1.98.39,3.55.87,7.97,2.71,11.82,1.08,2.05,2.32,4.04,3.52,5.96,1.59,2.56,3.24,5.21,4.52,8.03l.53,1.05c.68,1.36,1.38,2.77,2.53,4.09.14.12.3.2.47.28.17.09.35.14.55.17.13.02.26.07.4.07.43,0,.88-.12,1.31-.38.43-.32.67-.67.82-1.02.53-1.25-.39-2.58-.91-3.3-.24-.34-.51-.72-.58-.94l-.04-.11c-1.39-3.24-3.43-6.57-5.39-9.8-1.61-2.63-3.12-5.12-4.06-7.18-1.14-3.07-1.46-5.97-1.77-8.78-.1-.91-.2-1.8-.33-2.73-.57-2.67-1.53-5.23-2.45-7.71-.54-1.45-1.08-2.91-1.53-4.33-.27-1.02-.49-1.99-.74-2.98-1.66-6.72-2.7-12.78-3.04-17.97-.41-6.97-1.19-14.96-5.26-21.65Z"/>
          <path class="cls-1" d="M290.01,113.69c.28.1.56.14.83.14.79,0,1.5-.39,1.82-1.01.1-.13.19-.27.29-.4,10.02-13.5,16.15-26.44,18.68-39.52.47-1.96.75-3.97,1.02-5.91l.06-.42c.06-.98-.53-1.93-1.52-2.42-4.63-2.69-7.91-6.52-9.18-10.63l-.02-.14c1.19.72,2.47,1.1,3.77,1.1.68,0,1.36-.14,2.04-.34.13.05.24.09.4.14l.27.05c1.2.07,1.78-.49,2.04-.84.2-.27.31-.57.38-.88.72-.58,1.35-1.29,1.82-2.13.13-.18.28-.33.4-.53.79-1.37,4.09-4.49,7.59-7.8,4.82-4.57,10.75-10.18,14.32-15l.87.62c.75.53,1.5,1.06,2.25,1.61,3.66,2.59,4.91,3.64,6.63,5.1,1.26,1.06,2.75,2.32,5.6,4.53,2.52,1.82,4.39,3.08,5.96,4.13,2.85,1.92,4.57,3.07,7.36,5.67,1.35,1.27,2.61,2.68,3.83,4.05,1.63,1.82,3.31,3.7,5.2,5.29.39.37.77.68,1.15.96.04.04.07.09.12.13l.19.14c.27.16.51.28.74.36.77.37,1.58.58,2.51.65.3.02.6.03.89.03.72,0,1.38-.09,2.02-.23-2.18,4.15-6.6,8.81-9.7,9.14l-.28.07c-1,.38-1.28,1.5-1.32,2.13-.41,1.66-.53,3.36-.63,5l-.05.75c-.26,5.36.7,10.66,1.62,15.8.59,3.26,1.14,6.33,1.37,9.34.64,4.66,1.18,9.43,1.68,13.91l.06.26c.32.89,1.14,1.43,2.07,1.43.16,0,.32-.02.48-.05.04,0,.06-.03.1-.04.27-.06.51-.16.73-.3,0,0,0,0,0,0,0,0,0,0,0,0,.21-.14.4-.31.55-.5,0,0,.01-.02.02-.03,0-.01.01-.03.02-.04,0-.02.01-.03.02-.04.12-.17.22-.35.29-.55.08-.25.12-.52.11-.81-.7-7.6-1.72-14.89-2.99-23.63-.21-1.42-.45-2.72-.68-3.97-.6-3.27-1.11-6.09-.94-9.55.09-2.03.18-3.56.45-5.16,1.51-.5,2.8-1.45,4-2.4,3.3-2.7,6.01-6.2,7.86-10.2.7-1.78.38-2.96-.1-3.7,3.52-4.97,2.69-14.1,2.22-19.18v-.06c-.3-2.03-.8-3.94-1.41-5.74-1.08-5.31-2.93-10.98-6.53-15.74-5.54-7.05-11.88-13.82-20.61-15.6-5.45-1.25-10.95-.66-16.28-.08l-.54.06c-5.85.41-11.49,1.95-16.67,4.57-6.25,2.56-12.09,7.02-17.87,13.63-6.21,7.1-9.8,15.04-10.38,22.83-.53,2.75.16,5.82,1.67,8.28-.3.31-.57.64-.78.98-1.11,1.89-.26,4.02.15,5.03,1.77,4.54,5.28,8.6,9.91,11.5-.6,3.94-1.61,7.81-2.58,11.53-1.98,7.13-4.92,12.79-8.26,18.91-1.38,2.42-3.02,4.78-4.6,7.06-1.3,1.87-2.65,3.81-3.85,5.78l-.05.14-.09.24c-.21,1.09.41,2.11,1.49,2.5Z"/>
          <path class="cls-1" d="M330.96,51.86c.59-.38,1.32-.86,1.59-1.58.21-.72-.4-1.4-1.48-1.65-1.05-.24-2.15,0-2.7.61-.62.53-1.62,1.19-2.75,1.62-.08-.1-.18-.22-.25-.33-.3-.39-.67-.87-1.33-1.38-.84-.48-2.03-.47-2.91.03-.88.5-1.08,1.3-.5,1.9.15.17.29.36.45.55.79,1.02,1.87,2.41,4.38,2.43,2.12-.15,3.72-1.09,5.08-1.91.13-.1.28-.19.43-.29ZM325.21,51.72h0s.06-.06.06-.06v.02s-.06.04-.06.04Z"/>
          <path class="cls-1" d="M353.14,51.48c-.15-.22-.39-.42-.69-.57-.58-.3-1.33-.4-2.01-.27l-.16.04c-.68.21-1.21.53-1.68.81-.23.14-.46.28-.84.47l-.22.12c-.21.1-.51.22-.76.32l-.2-.09c-.43-.18-1.97-1.3-2.39-1.76-.1-.08-.2-.21-.31-.35-.31-.4-.74-.94-1.74-1.16-.9-.18-1.85.03-2.44.54-.59.51-.65,1.18-.18,1.66,1.23,1.47,2.71,2.65,4.35,3.48.95.53,2,.79,2.99.79.64,0,1.25-.11,1.78-.34,1.21-.41,2.2-.98,3.17-1.53l.35-.19c.46-.25,1.24-.66,1.19-1.34,0-.15-.02-.29-.09-.43l.96-.37-1.08.17Z"/>
          <path class="cls-1" d="M333.64,58.95c-.04.46.24.84.71.95.1.01.21.04.32.07.19.04.42.1.66.1.26,0,.54-.06.8-.27.28-.29.34-.69.15-1.03-.19-.36-.6-.56-1-.51-.06,0-.11-.01-.19-.03-.06-.01-.12-.03-.21-.05-.09-.03-.19-.05-.3-.05h0s-.06,0-.09.01c-.02,0-.04,0-.07,0-.43.03-.76.37-.79.82Z"/>
          <path class="cls-1" d="M340.98,66.22c-.89-.21-2-.01-2.76.46-.39.18-.78.37-1.16.57-.29.14-.57.28-.86.42-.68-.28-1.39-.54-2.09-.8l-.45-.15c-1.32-.76-2.91-.53-3.69.12-.7.58-.75,1.54.5,2.25l.92.35c1.28.45,2.48.88,3.68,1.43.35.14.74.21,1.15.21.49,0,1-.1,1.48-.3.63-.26,1.21-.56,1.8-.86.44-.23.88-.45,1.35-.66.57-.24,1.91-.81,1.58-1.8-.12-.61-.65-1.07-1.44-1.25Z"/>
        </g>
      </g>
      <g>
        <path class="cls-3" d="M15.76,341.87c3.84,2.55,8.49,4.3,14.23,5.34,4.82.89,9.69,1.22,13.41,1.41h.5c.47.03.96.04,1.45.04.92,0,1.86-.06,2.76-.27h0c.07-.02.13-.05.2-.06.38-.1.74-.22,1.1-.38.37-.17.73-.37,1.06-.63.02-.01.03-.03.05-.04.51-.32.8-.91.73-1.49l3.68-.09c.07.13.14.27.21.4.46.88.92,1.76,1.38,2.68,8,13.91,22.71,25.62,40.16,25.62,4.33,0,8.82-.72,13.42-2.31,9.17-2.96,22.54-7.96,32.67-17.23,7.18-6.89,11.17-16.11,10.68-24.66v-.02c-.44-5.32-2.21-5.51-5.62-5.39-.66.02-1.4.05-2.25.03-6.47-.01-13,.36-19.33.74-7.44.44-15.13.89-22.7.68-12.58-.33-26.02-1.52-43.58-3.86l-1.56-.18c-2.32-.26-4.63-.52-7.02-.73-.37.02-.83.16-1.14.46-.47.46-.6,1.15-.34,1.77.07.16.16.3.27.42h0s.02.01.02.02c0,0,0,0,0,0,0,0,0,0,0,0h0c.1.11.22.21.34.29.25.16.52.25.74.25l.53,2.61c-.19-.23-.44-.41-.75-.52-.56-.12-.97-.03-1.26.12h0c-.14.07-.26.15-.34.24-.15.15-.25.32-.33.51h0s-.02.05-.03.07c-.07.2-.11.41-.13.63h0c0,.14,0,.28,0,.42l-2.15-.13c0-.16-.02-.31-.06-.46-.04-.14-.1-.26-.17-.38,0-.02-.01-.03-.02-.05,0,0,0,0,0,0-.03-.04-.06-.08-.1-.12-.07-.09-.15-.17-.24-.24h0s-.04-.03-.06-.04c-.02-.01-.04-.03-.06-.04-.14-.09-.29-.16-.46-.2-5.92-1.51-12.11-1.77-17.41-1.82h-.63c-5.05.12-10.78.23-15.13,3.51-2.16,1.66-3.02,4.57-2.1,7.07.94,2.69,3.15,4.47,5.39,5.99ZM136.63,355.86c-.76.57-1.57,1.13-2.41,1.69l2.41-1.69ZM58.97,346.59c-.71-1.28-1.38-2.59-2-3.95l-.76-1.56c-1.56-3.22-2.91-5.99-3.58-9.7l6.34,15.2ZM43.33,338.67c-3.73-.24-7.25-.72-11.22-1.98-2.05-.72-2.93-1.31-3.21-1.6.16-.09.49-.23,1.13-.35,2.67-.33,6.39.14,9.98.6,1.59.2,3.16.4,4.66.53.58.05,1.08-.26,1.37-.75.3-.52.31-1.19,0-1.71-.28-.48-.77-.76-1.28-.76h-.03c-.9-.06-1.83-.16-2.75-.27l.74-.04,6.98.7c.44,1.93,1.08,3.8,1.83,5.62l-8.2.03Z"/>
        <g>
          <path class="cls-2" d="M101.19,338.39l-1.75-.07c-1.53-.06-3.07-.13-4.62-.21,3.98.24,7.98.44,11.97.46-1.87-.04-3.74-.12-5.6-.19Z"/>
          <path class="cls-2" d="M86.98,337.62c-2.06-.16-4.14-.35-6.23-.58,1.42.16,2.88.32,4.39.47.61.04,1.22.07,1.84.11Z"/>
          <path class="cls-2" d="M68.39,337.92c3.88.59,7.82.6,11.74.75.2,0,.41,0,.61,0-5.23-.59-9.88-1.3-14.19-2.13.41.67,1.05,1.19,1.84,1.38Z"/>
          <path class="cls-2" d="M101.25,336.78c6.97.27,14.16.55,20.53-.88.88-.2,1.81-.39,2.76-.59.42-.09.85-.18,1.27-.27-.01-1.09-.5-2.18-1.54-2.75-.5-.3-1.05-.42-1.62-.44h0s-.02,0-.03,0c-.1,0-.19,0-.29,0-3.31,0-6.62,0-9.93,0-8.81.07-17.62.35-26.44.38-3.99-.48-8.3-1.73-13.7-2.26-1.18.11-1.98.8-2.4,1.68-.87-.17-1.79-.22-3.15,1.21-.1.11-.16.25-.24.37,11.44,2.3,22.55,3.07,33.02,3.48l1.75.07Z"/>
          <path class="cls-2" d="M125.37,336.78c-.16.03-.33.07-.49.1-.94.2-1.87.39-2.74.59-.31.07-.63.14-.95.2,1.38-.21,2.75-.46,4.11-.75.03-.04.04-.09.07-.14Z"/>
          <path class="cls-1" d="M143.44,330.2c-.44-5.32-2.21-5.51-5.62-5.39-.66.02-1.4.05-2.25.03-6.47-.01-13,.36-19.33.74-7.44.44-15.13.89-22.7.68-12.58-.33-26.02-1.52-43.58-3.86l-1.56-.18c-2.32-.26-4.63-.52-7.02-.73-.37.02-.83.16-1.14.46-.47.46-.6,1.15-.34,1.77.07.16.16.3.27.42h0s.02.01.02.02c0,0,0,0,0,0,0,0,0,0,0,0h0c.1.11.22.21.34.29.25.16.52.25.74.25,2.94.33,5.89.68,8.83,1.02,20.75,2.43,42.2,4.94,63.44,3.23,8.1-.48,17.29-1.04,26.19-.91,2.17,8.09-2.65,19.4-11.25,26.35-4.93,4.08-11.86,7.96-20.58,11.53-8.43,3.41-15.11,5.11-21,5.35-.08,0-.16,0-.24,0-16.17,0-31.74-11.21-39.71-28.63l-.76-1.56c-1.56-3.22-2.91-5.99-3.58-9.7-.07-.46-.14-.88-.21-1.27-.13-.72-.23-1.28-.23-1.82-.01-.68-.43-1.27-1.13-1.51-.56-.12-.97-.03-1.26.12,0,0,0,0,0,0-.14.07-.26.15-.34.24-.15.15-.25.32-.33.51h0s-.02.05-.03.07c-.07.2-.11.41-.13.63h0c-.05.68.11,1.46.27,2.19.08.36.16.78.18,1.09.42,2.43,1.19,4.74,2.12,6.99-.1.02-.2.05-.28.07h-.02s-.14.01-.14.01c-1.26.14-2.56.15-3.65.14-5.39-.19-9.95-.47-15.34-2.18-2.05-.72-2.93-1.31-3.21-1.6.16-.09.49-.23,1.13-.35,2.67-.33,6.39.14,9.98.6,1.59.2,3.16.4,4.66.53.58.05,1.08-.26,1.37-.75.3-.52.31-1.19,0-1.71-.28-.48-.77-.76-1.28-.76h-.03c-1.65-.11-3.35-.35-5-.57-3.63-.5-7.39-1.02-11.13-.3-1.16.28-2.18,1.03-2.67,1.95-.39.73-.45,1.53-.14,2.36.84,1.88,2.82,2.69,4.5,3.37,4.58,1.69,9.44,2.21,14.1,2.52,1.23.06,2.49.13,3.77.13s2.63-.07,3.98-.27c.2-.03.48-.08.74-.18.73,1.52,1.49,3.01,2.26,4.48.46.88.92,1.76,1.38,2.68,8,13.91,22.71,25.62,40.16,25.62,4.33,0,8.82-.72,13.42-2.31,9.17-2.96,22.54-7.96,32.67-17.23,7.18-6.89,11.17-16.11,10.68-24.66v-.02ZM50.3,324.13c-2.86-.34-5.72-.67-8.57-.99,2.17.2,4.33.44,6.49.68l1.55.17c1.98.26,3.9.51,5.78.75-1.75-.2-3.5-.41-5.24-.61ZM99.43,327.91c4.66-.05,9.32-.29,13.91-.55-4.63.37-9.27.54-13.91.55ZM119.99,326.97c4.26-.24,8.59-.45,12.89-.51-4.38.08-8.72.28-12.89.51ZM137.89,326.42c.81-.03,1.45-.05,1.96.02-.65,0-1.31-.02-1.96-.02ZM40.51,328.34s.06-.01.06-.02c0,.55.08,1.09.19,1.69-.12-.57-.3-1.48-.25-1.67ZM41.01,331.51s0-.06,0-.09c.01.08.03.15.04.23.08.46.17.9.27,1.33-.12-.49-.22-.98-.31-1.47ZM28.31,333.5c-2.08-.25-4.14-.46-6-.48,2-.03,4.01.21,6,.48ZM18.94,333.34s.02,0,.03,0c-.22.06-.45.14-.67.25.2-.11.42-.19.64-.24ZM18.2,336.6c.38.28.89.58,1.58.9-.57-.25-1.13-.54-1.58-.9ZM22.35,338.45c1.28.38,2.52.68,3.74.93-1.25-.24-2.51-.55-3.74-.93ZM34.41,340.35c-.17-.01-.35-.02-.52-.03,1.12.07,2.25.11,3.41.15-.96-.02-1.92-.07-2.89-.12ZM41.78,340.25c-.06,0-.03,0-.02,0,.15-.04.26-.07.37-.07.01,0,.03,0,.04,0-.09.02-.24.05-.39.07ZM43.6,339.35c-.23-.52-.48-1.03-.69-1.56.25.58.51,1.16.78,1.74-.03-.06-.06-.13-.09-.19ZM43.8,339.8s0-.01,0-.02c.31.66.63,1.33.97,2.01l.74,1.54s.03.06.04.09c-.61-1.19-1.19-2.4-1.75-3.62ZM89.72,372.68c2.96-.32,6.12-.98,9.58-2-3.26,1.1-6.46,1.74-9.58,2ZM109.49,367.02c4.71-1.97,8.89-4.04,12.51-6.18-4.15,2.5-8.45,4.53-12.51,6.18ZM133.33,352c2.59-2.89,4.86-6.35,6.41-10.02-1.46,3.56-3.63,6.98-6.41,10.02ZM141.25,327.43c-.06-.15-.12-.28-.18-.38.43.55.63,1.53.77,3.28.03.47.04.95.04,1.42-.04-1.46-.24-2.91-.63-4.32Z"/>
          <path class="cls-1" d="M52.43,332.96c.82.24,1.63.48,2.44.76,3.68,1.09,7.53,2.02,11.69,2.82,4.31.83,8.96,1.54,14.19,2.13,1.39.16,2.81.31,4.27.45,1.83.11,3.68.22,5.53.34,5.66.36,11.38.73,17.1.73,9.17,0,18.3-.95,26.99-4.39l.22-.13c.14-.12.35-.25.57-.41.89-.6,2-1.35,2.03-2.39.01-.35-.1-.88-.7-1.35l-.07-.05c-.68-.42-1.58-.25-2.04.31-.31.25-.5.42-.66.55-.21.18-.34.29-.61.48-1.9.98-4.7,1.64-7.55,2.24-.42.09-.85.18-1.27.27-.95.2-1.89.39-2.76.59-6.37,1.43-13.56,1.15-20.53.88l-1.75-.07c-10.47-.41-21.58-1.17-33.02-3.48-3.32-.67-6.67-1.45-10.04-2.42l-1.55-.47c-2.84-.84-6.05-1.8-7.64-3-.19-.1-.46-.42-.69-.7-.45-.55-.97-1.17-1.82-1.27-.71.01-1.25.38-1.51,1.01-.26.63-.11,1.32.27,1.65,2.2,2.92,5.62,3.93,8.92,4.9ZM135.03,333.54c.14-.12.32-.27.61-.51l.1-.07c-.19.22-.58.52-.91.75.06-.05.12-.11.19-.16ZM134.02,334.27s-.07.05-.1.07c-.1.04-.2.08-.3.12.14-.06.27-.13.4-.19ZM122.14,337.48c.87-.2,1.79-.39,2.74-.59.16-.03.33-.07.49-.1,1.52-.32,3.04-.64,4.48-1.02-1.5.45-3.02.83-4.54,1.16-1.36.29-2.73.55-4.11.75.32-.06.63-.13.95-.2ZM99.44,338.32l1.75.07c1.86.07,3.73.15,5.6.19-3.99-.03-7.99-.22-11.97-.46,1.55.08,3.09.14,4.62.21ZM86.98,337.62c-.62-.04-1.23-.07-1.84-.11-1.51-.15-2.97-.3-4.39-.47,2.1.23,4.17.42,6.23.58ZM65.66,334.73c-3.33-.67-6.43-1.44-9.43-2.3,3.17.9,6.31,1.66,9.43,2.3ZM55.7,332.28c-.11-.03-.23-.06-.34-.1-.04-.02-.08-.03-.13-.04l.47.14ZM51.62,331.04c-1.23-.38-2.45-.79-3.56-1.35,1.03.49,2.26.93,3.56,1.35ZM45.32,327.68c.06.08.13.16.2.24-.25-.25-.49-.52-.71-.81.17.15.38.41.51.57Z"/>
          <path class="cls-1" d="M41.24,345.69c-.08-.61-.48-1.08-1.05-1.27-.6-.2-1.26-.05-1.73.38l-.14.08q-.51.3-1.12.44c-4.55.39-11.56-.39-16.6-1.26-5.59-.96-12.82-3.48-16.33-7.64-1.03-1.32-1.33-2.53-.9-3.6.72-1.79,3.51-3.28,7.12-3.79,5.34-.82,12.77-.51,17.95.05,1.72.17,2.99.43,4.46.74.69.14,1.43.3,2.27.45l.1.02h.1c.77-.06,1.36-.66,1.42-1.47.02-.21,0-.41-.06-.59-.04-.14-.1-.26-.17-.38,0-.02-.01-.03-.02-.05,0,0,0,0,0,0-.03-.04-.06-.08-.1-.12-.07-.09-.15-.17-.24-.24h0s-.04-.03-.06-.04c-.02-.02-.04-.03-.06-.04-.14-.09-.29-.16-.46-.2-5.92-1.51-12.11-1.77-17.41-1.82h-.63c-5.05.12-10.78.23-15.13,3.51-2.16,1.66-3.02,4.57-2.1,7.07.94,2.69,3.15,4.47,5.39,5.99,3.84,2.55,8.49,4.3,14.23,5.34,4.82.89,9.69,1.22,13.41,1.41h.5c.47.03.96.04,1.45.04.92,0,1.86-.06,2.76-.27h0c.07-.02.13-.05.2-.06.38-.1.74-.22,1.1-.38.37-.17.73-.37,1.06-.63.02-.01.03-.03.05-.04.54-.34.84-.98.73-1.59ZM14.39,327.02c-1.26.07-2.47.19-3.61.35,1.19-.17,2.39-.29,3.61-.35ZM2.33,331.42c.29-.49.64-.95,1.11-1.32.17-.13.34-.25.51-.36-.69.5-1.23,1.07-1.62,1.68ZM3.23,337.64c.46.52.96,1.01,1.51,1.48-.55-.46-1.06-.95-1.51-1.48ZM8.79,341.83c2.66,1.41,5.66,2.46,8.49,3.17-3.21-.78-6.02-1.83-8.49-3.17ZM33.94,347.03h-.48c-.08-.02-.16-.02-.24-.03,1.43.03,2.84.01,4.13-.09-1.08.19-2.25.16-3.4.12ZM39.57,345.99s-.03.02-.04.03l.04-.03h0ZM39.63,345.93l.02-.02h0s-.03.02-.03.02Z"/>
        </g>
      </g>
    </g>
  </g>
</svg>